<?xml version="1.0" standalone="no"?>
<!DOCTYPE svg PUBLIC "-//W3C//DTD SVG 20010904//EN"
 "http://www.w3.org/TR/2001/REC-SVG-20010904/DTD/svg10.dtd">
<svg version="1.0" xmlns="http://www.w3.org/2000/svg"
 width="73.000000pt" height="73.000000pt" viewBox="0 0 73.000000 73.000000"
 preserveAspectRatio="xMidYMid meet">
<metadata>
Created by potrace 1.14, written by Peter Selinger 2001-2017
</metadata>
<g transform="translate(0.000000,73.000000) scale(0.100000,-0.100000)"
fill="#000000" stroke="none">
<path d="M37 705 l-27 -26 0 -283 c0 -306 -2 -297 54 -291 24 3 67 43 57 54
-1 2 1 7 7 10 15 10 102 145 102 158 0 7 -4 13 -10 13 -5 0 -10 5 -10 11 0 6
-13 29 -29 52 -16 23 -29 46 -29 51 0 5 -4 12 -9 15 -16 12 -64 92 -59 100 3
4 37 9 76 10 l70 2 52 -52 c48 -49 52 -51 65 -33 7 10 20 26 27 36 8 9 12 19
9 22 -4 3 -1 6 5 6 7 0 12 6 12 14 0 8 7 16 15 20 8 3 15 12 15 19 0 8 9 22
20 32 11 10 18 20 16 22 -2 3 4 13 15 24 11 11 17 24 14 29 -4 6 -93 10 -218
10 l-212 0 -28 -25z"/>
<path d="M618 606 c-10 -7 -18 -16 -18 -20 0 -4 -24 -42 -52 -84 -29 -42 -52
-80 -50 -84 1 -5 -2 -8 -6 -8 -5 0 -17 -15 -27 -34 l-19 -34 37 -36 c21 -20
36 -36 33 -36 -2 0 25 -30 60 -67 35 -37 64 -70 64 -73 0 -3 -63 -5 -140 -5
-127 0 -140 2 -155 20 -15 20 -15 20 -40 -10 -50 -61 -86 -125 -71 -131 7 -3
108 -4 224 -2 l210 3 20 25 c19 24 20 39 21 307 l0 283 -37 0 c-20 0 -45 -7
-54 -14z"/>
</g>
</svg>
