<svg width="48" height="48" viewBox="0 0 48 48" fill="none" xmlns="http://www.w3.org/2000/svg">
<path d="M14 30V22C14 20.9391 14.4214 19.9217 15.1716 19.1716C15.9217 18.4214 16.9391 18 18 18C19.0609 18 20.0783 18.4214 20.8284 19.1716C21.5786 19.9217 22 20.9391 22 22V30M14 26H22M34 18V30H31C30.4067 30 29.8266 29.8241 29.3333 29.4944C28.8399 29.1648 28.4554 28.6962 28.2284 28.1481C28.0013 27.5999 27.9419 26.9967 28.0576 26.4147C28.1734 25.8328 28.4591 25.2982 28.8787 24.8787C29.2982 24.4591 29.8328 24.1734 30.4147 24.0576C30.9967 23.9419 31.5999 24.0013 32.1481 24.2284C32.6962 24.4554 33.1648 24.8399 33.4944 25.3333C33.8241 25.8266 34 26.4067 34 27M10 10H38C40.2091 10 42 11.7909 42 14V34C42 36.2091 40.2091 38 38 38H10C7.79086 38 6 36.2091 6 34V14C6 11.7909 7.79086 10 10 10Z" stroke="#A5B6C1" stroke-width="3" stroke-linecap="round" stroke-linejoin="round"/>
</svg>
