<svg width="18" height="18" viewBox="0 0 18 18" fill="none" xmlns="http://www.w3.org/2000/svg">
<path d="M6.75 14.25V9.75C6.75 9.33579 6.41421 9 6 9H3C2.58579 9 2.25 9.33579 2.25 9.75V14.25C2.25 14.6642 2.58579 15 3 15M6.75 14.25C6.75 14.6642 6.41421 15 6 15H3M6.75 14.25C6.75 14.6642 7.08579 15 7.5 15H10.5C10.9142 15 11.25 14.6642 11.25 14.25M6.75 14.25V6.75C6.75 6.33579 7.08579 6 7.5 6H10.5C10.9142 6 11.25 6.33579 11.25 6.75V14.25M3 15H13.5M11.25 14.25C11.25 14.6642 11.5858 15 12 15H15C15.4142 15 15.75 14.6642 15.75 14.25V3.75C15.75 3.33579 15.4142 3 15 3H12C11.5858 3 11.25 3.33579 11.25 3.75V14.25Z" stroke="#F53362" stroke-width="2" stroke-linecap="round" stroke-linejoin="round"/>
</svg>
