<svg width="20" height="20" viewBox="0 0 20 20" fill="none" xmlns="http://www.w3.org/2000/svg">
    <path
        d="M4.11573 6.54499C4.23181 6.42883 4.36965 6.33668 4.52135 6.27382C4.67306 6.21095 4.83568 6.17859 4.99989 6.17859C5.16411 6.17859 5.32673 6.21095 5.47843 6.27382C5.63014 6.33668 5.76798 6.42883 5.88406 6.54499L9.70573 10.3658C9.78386 10.4439 9.88983 10.4878 10.0003 10.4878C10.1108 10.4878 10.2168 10.4439 10.2949 10.3658L14.1157 6.54499C14.3501 6.31049 14.6681 6.17871 14.9996 6.17863C15.3311 6.17855 15.6491 6.31019 15.8836 6.54457C16.1181 6.77896 16.2499 7.0969 16.25 7.42844C16.2501 7.75999 16.1184 8.07799 15.8841 8.31249L12.0624 12.1342C11.7916 12.405 11.47 12.6199 11.1161 12.7665C10.7622 12.9131 10.3829 12.9885 9.99989 12.9885C9.61685 12.9885 9.23755 12.9131 8.88366 12.7665C8.52978 12.6199 8.20824 12.405 7.93739 12.1342L4.11573 8.31249C3.88139 8.07808 3.74975 7.76019 3.74975 7.42874C3.74975 7.09728 3.88139 6.7794 4.11573 6.54499Z"
        fill="#151616" />
</svg>