 <svg
                        width="16"
                        height="16"
                        viewBox="0 0 16 16"
                        fill="none"
                        xmlns="http://www.w3.org/2000/svg"
                      >
                        <path
                          d="M7.99984 9.33317C9.10441 9.33317 9.99984 8.43774 9.99984 7.33317C9.99984 6.2286 9.10441 5.33317 7.99984 5.33317C6.89527 5.33317 5.99984 6.2286 5.99984 7.33317C5.99984 8.43774 6.89527 9.33317 7.99984 9.33317Z"
                          stroke="#F53362"
                          strokeWidth="1.5"
                          strokeLinecap="round"
                          strokeLinejoin="round"
                        />
                        <path
                          d="M11.7712 11.1045L8.94251 13.9331C8.6925 14.1829 8.35356 14.3232 8.00017 14.3232C7.64678 14.3232 7.30785 14.1829 7.05784 13.9331L4.22851 11.1045C3.48265 10.3586 2.97473 9.40827 2.76896 8.37371C2.5632 7.33916 2.66883 6.26681 3.07251 5.29229C3.47618 4.31777 4.15977 3.48483 5.03683 2.89881C5.91388 2.31279 6.94502 2 7.99984 2C9.05466 2 10.0858 2.31279 10.9629 2.89881C11.8399 3.48483 12.5235 4.31777 12.9272 5.29229C13.3308 6.26681 13.4365 7.33916 13.2307 8.37371C13.0249 9.40827 12.517 10.3586 11.7712 11.1045Z"
                          stroke="#F53362"
                          strokeWidth="1.5"
                          strokeLinecap="round"
                          strokeLinejoin="round"
                        />
                      </svg>