<svg
    width="16"
    height="16"
    viewBox="0 0 16 16"
    fill="none"
    xmlns="http://www.w3.org/2000/svg"
>
    <path
        d="M13.333 8.00016C13.333 10.9457 10.9452 13.3335 7.99967 13.3335M13.333 8.00016C13.333 5.05464 10.9452 2.66683 7.99967 2.66683M13.333 8.00016H14.6663M7.99967 13.3335C5.05416 13.3335 2.66634 10.9457 2.66634 8.00016M7.99967 13.3335V14.6668M2.66634 8.00016C2.66634 5.05464 5.05416 2.66683 7.99967 2.66683M2.66634 8.00016H1.33301M7.99967 2.66683V1.3335M9.99967 8.00016C9.99967 9.10473 9.10424 10.0002 7.99967 10.0002C6.89511 10.0002 5.99967 9.10473 5.99967 8.00016C5.99967 6.89559 6.89511 6.00016 7.99967 6.00016C9.10424 6.00016 9.99967 6.89559 9.99967 8.00016Z"
        stroke="#F53362"
        strokeWidth="1.5"
        strokeLinecap="round"
        strokeLinejoin="round"
    />
</svg>