<svg width="24" height="24" viewBox="0 0 24 24" fill="none" xmlns="http://www.w3.org/2000/svg">
<path d="M12 13.9998C13.6569 13.9998 15 12.6566 15 10.9998C15 9.3429 13.6569 7.99976 12 7.99976C10.3431 7.99976 9 9.3429 9 10.9998C9 12.6566 10.3431 13.9998 12 13.9998Z" stroke="white" stroke-width="2" stroke-linecap="round" stroke-linejoin="round"/>
<path d="M17.657 16.6567L13.414 20.8997C13.039 21.2743 12.5306 21.4848 12.0005 21.4848C11.4704 21.4848 10.962 21.2743 10.587 20.8997L6.343 16.6567C5.22422 15.5379 4.46234 14.1124 4.15369 12.5606C3.84504 11.0087 4.00349 9.40022 4.60901 7.93844C5.21452 6.47665 6.2399 5.22725 7.55548 4.34821C8.87107 3.46918 10.4178 3 12 3C13.5822 3 15.1289 3.46918 16.4445 4.34821C17.7601 5.22725 18.7855 6.47665 19.391 7.93844C19.9965 9.40022 20.155 11.0087 19.8463 12.5606C19.5377 14.1124 18.7758 15.5379 17.657 16.6567Z" stroke="white" stroke-width="2" stroke-linecap="round" stroke-linejoin="round"/>
</svg>
