<svg width="80" height="80" viewBox="0 0 80 80" fill="none" xmlns="http://www.w3.org/2000/svg">
<path d="M30 33.3333H30.0333M50 33.3333H50.0333M31.6667 50.8341C32.7529 49.7254 34.0495 48.8446 35.4804 48.2434C36.9114 47.6421 38.4479 47.3324 40 47.3324C41.5521 47.3324 43.0886 47.6421 44.5196 48.2434C45.9505 48.8446 47.2471 49.7254 48.3333 50.8341M70 40C70 56.5685 56.5685 70 40 70C23.4315 70 10 56.5685 10 40C10 23.4315 23.4315 10 40 10C56.5685 10 70 23.4315 70 40Z" stroke="#B8C6CF" stroke-width="6" stroke-linecap="round" stroke-linejoin="round"/>
</svg>
