<svg width="24" height="24" viewBox="0 0 24 24" fill="none" xmlns="http://www.w3.org/2000/svg">
<path d="M17 1L11.8122 8.42268L9.70401 6.17732C8.71794 5.2634 7.66872 5.29124 6.77008 5.31443L4.30732 5.41649C4.11218 5.42251 3.96789 5.64102 4.07901 5.81082L8.74709 12.8021L4.41904 19L1 18.9814L1.00486 3.40309C1.00486 2.09021 2.12209 1.0232 3.49676 1.01856L17 1Z" stroke="#F53362" stroke-width="2" stroke-linejoin="round"/>
<path d="M23 20.5978C23 21.9225 21.9532 22.9953 20.6606 22.9953L7 23L11.2679 17.0137L12.1326 18.3991L20.2932 18.4084L14.6131 11.9202L19.7744 4H22.9954L23 20.5978Z" stroke="#F53362" stroke-width="2" stroke-linejoin="round"/>
</svg>
