<svg width="16" height="16" viewBox="0 0 16 16" fill="none"
     xmlns="http://www.w3.org/2000/svg">
    <path
            d="M7.06758 1.40576C7.3976 0.554271 8.6024 0.554272 8.93242 1.40576L10.2944 4.91998C10.4363 5.28606 10.7793 5.53524 11.1713 5.55706L14.9344 5.76647C15.8462 5.81721 16.2185 6.96304 15.5107 7.54003L12.5893 9.92136C12.285 10.1694 12.154 10.5726 12.2544 10.9522L13.2181 14.5958C13.4516 15.4787 12.4769 16.1868 11.7094 15.6919L8.54193 13.6494C8.21197 13.4367 7.78803 13.4367 7.45807 13.6494L4.29056 15.6919C3.52308 16.1868 2.54837 15.4787 2.78188 14.5958L3.74558 10.9522C3.84597 10.5726 3.71496 10.1694 3.41065 9.92136L0.489316 7.54003C-0.218517 6.96304 0.153787 5.81721 1.06558 5.76647L4.8287 5.55706C5.2207 5.53524 5.56367 5.28606 5.70555 4.91998L7.06758 1.40576Z"
            fill="#C7AB73"/>
</svg>