<svg width="116" height="40" viewBox="0 0 116 40" fill="none" xmlns="http://www.w3.org/2000/svg">
<g clip-path="url(#clip0_358_2681)">
<path d="M104.468 0.140381L95.1 14.1703L91.293 9.92625C89.5124 8.19882 87.6177 8.25143 85.9949 8.29528L81.5477 8.48819C81.2757 8.49696 81.0564 8.72494 81.0652 8.99677C81.0652 9.08446 81.0915 9.16338 81.1354 9.23353L89.565 22.448L81.7494 34.163L77.3811 34.1279L77.3899 4.68257C77.3899 2.20103 79.4074 0.184224 81.8898 0.175456L104.468 0.140381Z" fill="white"/>
<path d="M115.415 35.3907C115.415 37.881 113.398 39.8978 110.907 39.8978L88.4334 39.9065L94.7315 30.5328L96.3981 33.1371L112.126 33.1546L101.179 20.9574L101.354 20.7031L111.126 6.06812H115.406L115.415 35.3907Z" fill="white"/>
<path d="M8.03195 12.1797V19.677H6.01446V12.6006L0.102325 2.62183H2.3742L8.03195 12.1797ZM8.80386 11.0661L7.74248 9.2422L11.6985 2.63059H13.9441L8.80386 11.0661Z" fill="white"/>
<path d="M21.2071 14.5298H18.6983C16.9089 14.5298 16.0142 15.1349 16.0142 16.3362C16.0142 16.9938 16.2686 17.4849 16.7773 17.8093C17.2861 18.1338 17.9264 18.3004 18.6983 18.3004C19.5053 18.3004 20.3474 18.0636 21.2071 17.5813V19.2123C20.4176 19.7121 19.4352 19.9577 18.2598 19.9577C17.058 19.9577 16.0405 19.6332 15.2072 18.9931C14.3739 18.353 13.9704 17.4936 13.9704 16.4239C13.9704 15.3716 14.3827 14.5298 15.2072 13.8809C16.0317 13.2321 17.137 12.9164 18.5141 12.9164H21.1983L21.2071 14.5298ZM23.1193 8.12867C24.014 9.00554 24.4614 10.2682 24.4614 11.9255V19.6771H22.4702V11.8291C22.4702 10.7944 22.1983 10.0052 21.6544 9.46151C21.1106 8.91785 20.365 8.64602 19.4176 8.64602C18.0054 8.64602 16.7861 9.32121 15.7511 10.6628L14.4353 9.5755C15.5932 7.73408 17.2949 6.81336 19.5492 6.81336C21.0404 6.80459 22.2246 7.24303 23.1193 8.12867Z" fill="white"/>
<path d="M28.6718 0.298096H30.663V19.6769H28.6718V0.298096ZM31.9261 19.0017V17.0112C32.9436 17.7478 34.005 18.1249 35.1015 18.1249C36.3383 18.1249 37.3821 17.6777 38.2154 16.7657C39.0487 15.8538 39.4698 14.7314 39.4698 13.3722C39.4698 12.0131 39.0487 10.8819 38.2154 9.98752C37.3821 9.09311 36.3383 8.6459 35.1015 8.6459C33.9962 8.6459 32.9436 9.01419 31.9261 9.75953V7.76903C32.9436 7.14645 34.119 6.81324 35.312 6.81324C37.0839 6.81324 38.5663 7.44459 39.7417 8.69852C40.9171 9.95244 41.5136 11.5133 41.5136 13.3722C41.5136 15.2312 40.9259 16.792 39.7417 18.0635C38.5575 19.335 37.0839 19.9575 35.312 19.9575C34.1103 19.9663 32.9349 19.6331 31.9261 19.0017Z" fill="white"/>
<path d="M47.5134 12.2325H54.2238C54.2062 11.1101 53.8378 10.2333 53.1273 9.58437C52.4168 8.93548 51.5308 8.61104 50.4782 8.61104C49.2414 8.61104 48.2064 9.05825 47.3731 9.95265C46.5485 10.8471 46.1362 11.987 46.1362 13.3637C46.1362 14.7754 46.5748 15.9241 47.4432 16.801C48.3116 17.6779 49.4256 18.1163 50.794 18.1163C52.2238 18.1163 53.5045 17.5464 54.6448 16.4152L55.8114 17.7568C54.4343 19.2212 52.7501 19.949 50.7765 19.949C48.8818 19.949 47.2941 19.3176 46.0222 18.0637C44.7503 16.8098 44.11 15.249 44.11 13.39C44.11 11.5486 44.7328 9.98773 45.9696 8.71627C47.2064 7.4448 48.7327 6.80469 50.5396 6.80469C52.18 6.80469 53.5396 7.33958 54.636 8.40936C55.7325 9.47914 56.2763 10.8383 56.2763 12.4868C56.2763 12.9866 56.2237 13.4952 56.1184 13.9863H47.5134V12.2325Z" fill="white"/>
<path d="M61.7675 14.1966L62.8815 15.775L60.1447 19.6771H57.8202L61.7675 14.1966ZM58.2061 7.09399H60.5043L69.6006 19.6771H67.3024L58.2061 7.09399ZM64.513 10.505L66.9427 7.09399H69.2409L65.627 12.0571L64.513 10.505Z" fill="white"/>
<path d="M3.81277 30.2959H3.69874C3.61979 30.2959 3.53208 30.2871 3.45313 30.2696C3.3391 30.2433 3.22507 30.1995 3.12858 30.1381C3.09349 30.4538 2.997 30.7607 2.83911 31.0413C2.67245 31.3306 2.4707 31.6025 2.24263 31.848C1.99703 32.1023 1.7251 32.3303 1.43564 32.5319C1.14617 32.7336 0.83039 32.9178 0.514609 33.0756L0.0935669 32.2163C0.269001 32.1286 0.444435 32.0321 0.619869 31.9269C0.795303 31.8217 0.961966 31.7164 1.11986 31.5937C1.27775 31.4797 1.42687 31.3569 1.56721 31.2254C1.69879 31.1026 1.82159 30.9623 1.92685 30.822C2.02334 30.6905 2.10229 30.5414 2.16369 30.3836C2.22509 30.2345 2.25141 30.0855 2.25141 29.9276C2.25141 29.8049 2.23386 29.6821 2.19878 29.5593C2.16369 29.4278 2.1286 29.2875 2.07597 29.1384C2.02334 28.9894 1.97071 28.8403 1.91808 28.6912C1.85668 28.5422 1.81282 28.3931 1.76019 28.2528L2.65491 27.8845C2.75139 28.1739 2.83911 28.4194 2.91806 28.6036C2.97946 28.7614 3.0584 28.9105 3.15489 29.0508C3.21629 29.1472 3.30401 29.2261 3.4005 29.2787C3.48822 29.3226 3.59348 29.3489 3.68997 29.3401H3.804V30.2959H3.81277Z" fill="white"/>
<path d="M3.66366 29.3401H4.22505C4.3654 29.3401 4.49697 29.3314 4.62855 29.3226C4.56715 29.2787 4.51452 29.2349 4.46189 29.1823C4.40048 29.1121 4.33908 29.042 4.29522 28.9631C4.24259 28.8754 4.19874 28.7789 4.16365 28.6825C4.12856 28.5685 4.10225 28.4545 4.10225 28.3317C4.10225 28.2966 4.10225 28.2703 4.10225 28.2353C4.10225 28.1213 4.11979 28.0073 4.1461 27.8933C4.18119 27.7618 4.22505 27.6302 4.28645 27.5075C4.35663 27.3759 4.43557 27.2532 4.52329 27.1392C4.61101 27.0252 4.71627 26.9287 4.83907 26.841C4.9531 26.7534 5.07591 26.692 5.20748 26.6394C5.32151 26.5955 5.44432 26.578 5.56712 26.578H5.61098C5.80396 26.5868 5.99693 26.6394 6.17237 26.7358C6.33903 26.8323 6.49692 26.955 6.61972 27.1041C6.7513 27.2619 6.84779 27.4285 6.91796 27.6215C6.98814 27.8144 7.02322 28.0073 7.02322 28.209C7.02322 28.4019 6.98814 28.5948 6.91796 28.7702C6.84779 28.9455 6.76007 29.1209 6.64604 29.2787C6.76884 29.2963 6.89165 29.3138 7.03199 29.3226C7.17234 29.3314 7.30392 29.3401 7.43549 29.3401H7.53198V30.2959H7.45304C7.26006 30.2959 7.07585 30.2959 6.90042 30.2871C6.73376 30.2784 6.56709 30.2696 6.40043 30.2433C6.25131 30.2258 6.10219 30.1907 5.96185 30.1468C5.83027 30.1118 5.71624 30.0504 5.60221 29.9802C5.50572 30.0416 5.40046 30.0942 5.28643 30.1205C5.13731 30.1644 4.97942 30.1995 4.82153 30.217C4.65486 30.2433 4.47066 30.2608 4.27768 30.2784C4.0847 30.2871 3.9005 30.2959 3.72506 30.2959H3.64612L3.66366 29.3401ZM6.2864 25.2276L5.57589 25.9466L4.86538 25.2276L5.57589 24.5173L6.2864 25.2276ZM5.60221 27.5162C5.52326 27.5338 5.45309 27.5601 5.38291 27.5952C5.19871 27.6828 5.04959 27.8231 4.96187 28.0073C4.90924 28.1125 4.88293 28.2353 4.88293 28.358C4.8917 28.4194 4.90924 28.4808 4.94433 28.5334C4.98819 28.6123 5.04959 28.6825 5.11099 28.7439C5.18117 28.814 5.26011 28.8842 5.34783 28.9368C5.43555 28.9981 5.52326 29.042 5.61975 29.0683C5.6987 29.0332 5.76887 28.9806 5.83904 28.9192C5.90922 28.8578 5.97062 28.7965 6.02325 28.7263C6.07588 28.6562 6.11974 28.586 6.15482 28.5071C6.18991 28.4369 6.20745 28.3668 6.20745 28.2879C6.20745 28.1914 6.18991 28.095 6.14605 28.0073C6.10219 27.9196 6.05834 27.8407 5.98816 27.7705C5.92676 27.7004 5.86536 27.6478 5.78641 27.5952C5.74255 27.5601 5.67238 27.5338 5.60221 27.5162Z" fill="white"/>
<path d="M7.54075 29.3402C7.67232 29.3402 7.79513 29.3139 7.90916 29.2525C8.02319 29.1911 8.11968 29.1122 8.19863 29.0157C8.28634 28.9105 8.35652 28.7965 8.41792 28.6737C8.47932 28.551 8.54072 28.4195 8.58458 28.2792C8.62844 28.1476 8.6723 28.0161 8.70738 27.8846C8.74247 27.753 8.77756 27.639 8.80387 27.5338L9.73367 27.7355C9.70736 27.8056 9.68104 27.8933 9.64596 27.9986C9.61087 28.1038 9.57578 28.2178 9.5407 28.3405C9.50561 28.4633 9.47929 28.5861 9.45298 28.7001C9.43544 28.7877 9.42666 28.8754 9.43544 28.9631C9.43544 28.9894 9.43544 29.0333 9.44421 29.0946C9.45298 29.1648 9.4793 29.2262 9.52315 29.2788C9.57578 29.3402 9.6635 29.3752 9.75122 29.3665C9.85648 29.3665 9.96174 29.3314 10.0495 29.27C10.1459 29.1999 10.2249 29.1209 10.2863 29.0245C10.3652 28.9105 10.4266 28.7965 10.4705 28.6737C10.5231 28.5422 10.567 28.4107 10.6108 28.2704C10.6459 28.1301 10.681 27.9986 10.7073 27.867C10.7336 27.7355 10.7512 27.6215 10.7687 27.5163L11.6371 27.6829C11.6284 27.7443 11.6196 27.8144 11.602 27.8933C11.5845 27.9722 11.5757 28.0687 11.5582 28.1564C11.5406 28.2441 11.5319 28.3493 11.5143 28.4545C11.4968 28.5598 11.488 28.665 11.4792 28.7702V28.8316C11.4792 28.893 11.488 28.9543 11.4968 29.0157C11.5143 29.0771 11.5406 29.1385 11.5757 29.1911C11.6196 29.2437 11.6722 29.2963 11.7336 29.3226C11.8038 29.3577 11.8915 29.3752 11.9705 29.3752C12.1284 29.384 12.2775 29.3314 12.4003 29.2437C12.5143 29.1385 12.5845 28.9894 12.5669 28.8316C12.5669 28.6825 12.5494 28.5334 12.5143 28.3931C12.4792 28.2353 12.4354 28.0862 12.3827 27.9372C12.3301 27.7881 12.2775 27.6478 12.2161 27.5163C12.1634 27.3847 12.1108 27.2708 12.0669 27.1918L12.8652 26.7446C12.8827 26.7709 12.9003 26.8235 12.9353 26.8937C12.9704 26.9638 13.0055 27.0515 13.0494 27.1568C13.0932 27.262 13.1371 27.376 13.181 27.5075C13.2248 27.639 13.2687 27.7793 13.3038 27.9196C13.3388 28.0687 13.3739 28.2178 13.4003 28.3668C13.4266 28.5159 13.4353 28.665 13.4353 28.814C13.4353 29.0245 13.4002 29.2437 13.3301 29.4366C13.2599 29.6208 13.1546 29.7961 13.0143 29.9277C12.8652 30.068 12.6985 30.1644 12.5055 30.2258C12.295 30.296 12.0669 30.331 11.8389 30.331H11.7863C11.681 30.331 11.567 30.3135 11.4705 30.2872C11.374 30.2609 11.2863 30.217 11.2073 30.1557C11.1284 30.103 11.0582 30.0329 10.988 29.9627C10.9266 29.8926 10.8652 29.8224 10.8126 29.7523C10.76 29.8312 10.6898 29.9101 10.6284 29.9803C10.5582 30.0504 10.4793 30.1118 10.4003 30.1644C10.3038 30.217 10.2073 30.2609 10.1021 30.2872C9.97928 30.3223 9.84771 30.3398 9.71613 30.3398H9.68982C9.58456 30.3398 9.4793 30.3223 9.38281 30.296C9.28632 30.2697 9.1986 30.2258 9.11966 30.1732C9.04071 30.1206 8.96176 30.0592 8.90036 29.9891C8.83896 29.9189 8.77756 29.84 8.71616 29.7611C8.66353 29.8312 8.6109 29.9014 8.54949 29.9627C8.47932 30.0329 8.40037 30.0943 8.30389 30.1381C8.19863 30.1907 8.08459 30.2346 7.96179 30.2609C7.81267 30.296 7.66355 30.3047 7.50566 30.3047H7.37408V29.3402H7.54075V29.3402Z" fill="white"/>
<path d="M21.3562 26.9726C21.4702 26.9462 21.5842 26.9287 21.6983 26.9287C21.7334 26.9287 21.7597 26.9287 21.7948 26.9287C21.8825 26.9287 21.979 26.9375 22.0667 26.9462C22.286 26.9813 22.5053 27.0427 22.6983 27.1479L22.3562 28.0423C22.2246 27.9897 22.093 27.9459 21.9527 27.9283C21.8913 27.9196 21.8386 27.9196 21.7772 27.9196C21.6983 27.9196 21.6106 27.9283 21.5316 27.9371C21.4351 27.9459 21.3474 27.9722 21.2597 28.0073C21.1544 28.0511 21.0579 28.1037 20.9702 28.1651C20.8737 28.2352 20.7773 28.3054 20.6983 28.3931C20.6106 28.472 20.5316 28.5685 20.4615 28.6649C20.4001 28.7526 20.3387 28.8578 20.3036 28.963C20.2685 29.0595 20.2422 29.156 20.2422 29.2524C20.2334 29.3401 20.2597 29.4278 20.3211 29.5067C20.3738 29.5681 20.4439 29.6207 20.5229 29.6558C20.6194 29.6909 20.7158 29.7259 20.8211 29.7435C20.9351 29.7698 21.0492 29.7961 21.172 29.8312C21.3211 29.8662 21.4702 29.9101 21.6193 29.9539C21.7597 29.9978 21.9 30.0591 22.0316 30.1381C22.1544 30.217 22.2509 30.3222 22.3211 30.445C22.3912 30.5765 22.4176 30.7168 22.4176 30.8571C22.4176 30.8834 22.4176 30.9009 22.4176 30.9272C22.4088 31.164 22.3474 31.4007 22.2421 31.62C22.1369 31.8129 22.0053 31.997 21.8386 32.1373C21.672 32.2864 21.479 32.4092 21.2685 32.5056C21.0492 32.6021 20.8299 32.681 20.593 32.7424C20.3562 32.8037 20.1281 32.8476 19.8825 32.8651C19.6545 32.8914 19.4264 32.9002 19.1983 32.9002C18.7948 32.909 18.3913 32.8476 17.9966 32.7248C17.6545 32.6196 17.3475 32.4442 17.0844 32.2075C16.83 31.9707 16.6458 31.6813 16.5405 31.3481C16.4616 31.1114 16.4265 30.8571 16.4265 30.6028C16.4265 30.4537 16.4353 30.3047 16.4528 30.1556C16.4703 29.989 16.4967 29.8224 16.5317 29.6558C16.5668 29.4892 16.6019 29.3226 16.6458 29.1647C16.6896 29.0069 16.7247 28.8578 16.7686 28.7175C16.8124 28.5772 16.8475 28.4545 16.8826 28.3492C16.9177 28.244 16.944 28.1563 16.9703 28.0862C16.9966 28.016 17.0142 27.981 17.0142 27.9722L17.83 28.3054C17.7686 28.4895 17.7159 28.6649 17.6633 28.8315C17.6107 28.9981 17.5668 29.156 17.5229 29.305C17.4879 29.4629 17.4528 29.6207 17.4177 29.7785C17.3914 29.9364 17.3563 30.103 17.3387 30.2784C17.33 30.3573 17.3212 30.4362 17.3212 30.5151C17.3212 30.6993 17.3563 30.8746 17.4265 31.0412C17.4966 31.2254 17.6194 31.3832 17.7773 31.506C17.9615 31.6463 18.1633 31.7515 18.3913 31.8129C18.6457 31.883 18.9089 31.9181 19.172 31.9181C19.479 31.9181 19.786 31.8918 20.0931 31.8392C20.3474 31.7953 20.593 31.7252 20.8387 31.6375C21.0229 31.5674 21.1895 31.4709 21.3386 31.3569C21.4439 31.278 21.5228 31.164 21.5492 31.0325C21.5492 31.0062 21.5228 30.9886 21.479 30.9711C21.4264 30.9448 21.365 30.9272 21.3123 30.9097C21.2422 30.8922 21.172 30.8746 21.093 30.8571C21.0141 30.8396 20.9351 30.822 20.8562 30.7957C20.6632 30.7519 20.4615 30.6905 20.2773 30.6203C20.1106 30.559 19.9527 30.4713 19.8124 30.3573C19.6808 30.252 19.5755 30.1117 19.5054 29.9539C19.4264 29.761 19.3913 29.5506 19.3913 29.3401C19.4089 29.0683 19.4615 28.7964 19.5668 28.5422C19.7685 28.0336 20.1194 27.5951 20.5843 27.2882C20.8387 27.1392 21.093 27.0339 21.3562 26.9726Z" fill="white"/>
<path d="M23.0842 31.9707C23.4263 31.9093 23.7508 31.8128 24.0754 31.6813C24.3473 31.5761 24.6017 31.4358 24.8385 31.278C25.0403 31.1464 25.2157 30.9886 25.3648 30.8044C25.4876 30.6554 25.5841 30.48 25.6368 30.2959C25.435 30.2959 25.242 30.2871 25.0491 30.2783C24.8649 30.2696 24.6894 30.2432 24.5052 30.2082C24.3473 30.1731 24.1894 30.1205 24.0403 30.0591C23.9 29.9977 23.7772 29.91 23.6719 29.796C23.5666 29.682 23.4877 29.5505 23.4351 29.4014C23.3737 29.2261 23.3473 29.0332 23.3473 28.849C23.3473 28.7087 23.3649 28.5597 23.3912 28.4194C23.4175 28.2703 23.4614 28.1212 23.5228 27.9809C23.5754 27.8406 23.6456 27.7003 23.7333 27.5776C23.8122 27.4548 23.9087 27.3408 24.014 27.2356C24.1193 27.1391 24.2333 27.0602 24.3649 26.9988C24.4964 26.9374 24.6368 26.9111 24.7859 26.9111C25.1719 26.9111 25.5227 27.0865 25.8385 27.4285C25.9438 27.5512 26.0403 27.6828 26.1192 27.8231C26.2069 27.9721 26.2771 28.1212 26.3385 28.2878C26.3999 28.4544 26.4525 28.6298 26.4876 28.7964C26.5227 28.9718 26.549 29.1559 26.5578 29.3401H26.8034V30.2959H26.4789C26.3999 30.6466 26.2508 30.9886 26.049 31.2867C25.8473 31.5761 25.6017 31.8392 25.321 32.0584C25.0315 32.2776 24.7157 32.4617 24.3824 32.602C24.0403 32.7423 23.6719 32.8476 23.3035 32.9089L23.0842 31.9707ZM24.7771 27.8757C24.6982 27.8757 24.628 27.9108 24.5666 27.9546C24.4877 28.016 24.4175 28.0861 24.3649 28.1651C24.3035 28.2527 24.2508 28.3492 24.207 28.4457C24.1719 28.5421 24.1456 28.6473 24.1456 28.7526C24.1456 28.849 24.1631 28.9367 24.2157 29.0156C24.2684 29.0858 24.3298 29.1384 24.4 29.1822C24.4789 29.2261 24.5666 29.2611 24.6543 29.2787C24.7508 29.2962 24.8473 29.3138 24.935 29.3225C24.9877 29.3313 25.0403 29.3313 25.1105 29.3313L25.3034 29.3401C25.3736 29.3401 25.435 29.3401 25.4964 29.3401H25.6806C25.6719 29.2348 25.6543 29.1384 25.628 29.0419C25.5666 28.8139 25.4789 28.6035 25.3648 28.4018C25.3122 28.3054 25.2508 28.2177 25.1806 28.13C25.1192 28.0598 25.0578 27.9985 24.9789 27.9371C24.9263 27.902 24.8473 27.8757 24.7771 27.8757Z" fill="white"/>
<path d="M26.6543 29.3403H27.4087C27.7157 29.3403 28.0315 29.314 28.3297 29.2526C28.6367 29.1912 28.9437 29.1123 29.242 29.0158C29.5402 28.9194 29.8384 28.8054 30.1191 28.6826C30.3998 28.5599 30.6717 28.4371 30.9174 28.3143C30.8121 28.2968 30.6981 28.2705 30.6016 28.2354C30.4875 28.2003 30.3735 28.1477 30.2595 28.1039C30.1454 28.06 30.0226 27.9987 29.8998 27.946C29.777 27.8934 29.6542 27.8408 29.5314 27.7882C29.4086 27.7444 29.2858 27.7005 29.163 27.6742C29.049 27.6479 28.9262 27.6304 28.8034 27.6304C28.7157 27.6304 28.6279 27.6479 28.5402 27.683C28.4613 27.7181 28.3823 27.7619 28.3034 27.8145C28.2332 27.8671 28.163 27.9197 28.1104 27.9811C28.0578 28.0337 28.0052 28.0863 27.9613 28.1477C27.9174 28.2003 27.8911 28.2442 27.8648 28.2793L27.8297 28.3319L27.0841 27.9285C27.1718 27.7619 27.2859 27.6041 27.4174 27.455C27.549 27.3059 27.6981 27.1744 27.856 27.0604C28.0052 26.9464 28.163 26.8587 28.3385 26.7886C28.4876 26.7272 28.6543 26.6921 28.8121 26.6833C28.9437 26.6833 29.0665 26.7009 29.1893 26.7272C29.3209 26.7535 29.4525 26.7973 29.5753 26.8412C29.7069 26.885 29.8384 26.9464 29.97 26.999L30.3823 27.1832C30.5226 27.2533 30.6805 27.3235 30.856 27.3936C31.0314 27.4638 31.2068 27.5251 31.3823 27.5778C31.5577 27.6304 31.7419 27.6742 31.9261 27.7093C32.1015 27.7444 32.277 27.7619 32.4524 27.7619L32.2945 28.6738C32.198 28.7177 32.1103 28.7528 32.0226 28.8054C31.9349 28.858 31.8472 28.8931 31.7507 28.9369C31.8033 29.0421 31.8735 29.121 31.97 29.1824C32.0664 29.2438 32.1717 29.2877 32.2857 29.314C32.391 29.3403 32.4963 29.3578 32.6103 29.3666C32.7156 29.3753 32.7945 29.3753 32.8559 29.3753H33.005V30.3311H32.8559C32.4261 30.3399 32.005 30.261 31.6191 30.0768C31.3033 29.9278 31.0402 29.6735 30.891 29.3578C30.6367 29.4806 30.3823 29.6033 30.1104 29.7173C29.8384 29.8313 29.5577 29.9365 29.277 30.0242C28.9788 30.1119 28.6806 30.1908 28.3736 30.2434C28.049 30.2961 27.7245 30.3224 27.3999 30.3224H26.6455L26.6543 29.3403ZM30.4437 31.5061L29.7244 32.2252L29.0139 31.5061L29.7244 30.7959L30.4437 31.5061Z" fill="white"/>
<path d="M36.1892 29.3402V30.296H36.1102C35.8997 30.3048 35.6892 30.2609 35.4962 30.182C35.3383 30.1118 35.1892 30.0066 35.0752 29.8839C34.9787 29.9979 34.8559 30.0768 34.7155 30.1206C34.5401 30.182 34.3646 30.2171 34.1804 30.2434C33.9787 30.2697 33.7769 30.2872 33.5752 30.2872C33.3647 30.2872 33.1805 30.296 33.005 30.296H32.8647V29.3402H33.005C33.2506 29.3402 33.4962 29.3227 33.7419 29.2876C33.9085 29.2613 34.0752 29.2174 34.2243 29.1385C34.3383 29.0859 34.426 28.9982 34.4874 28.893C34.5401 28.7878 34.5752 28.6738 34.5664 28.551C34.5664 28.437 34.5488 28.323 34.5138 28.2178C34.4787 28.0775 34.4348 27.8934 34.3646 27.6741L35.2857 27.4199C35.3208 27.5251 35.3471 27.6215 35.3646 27.7092C35.3822 27.7969 35.3997 27.8758 35.4085 27.9547C35.4172 28.0337 35.426 28.1301 35.4348 28.2266C35.4436 28.323 35.4523 28.437 35.4611 28.5686C35.4699 28.6562 35.4874 28.7439 35.5137 28.8228C35.5401 28.9105 35.5839 28.9982 35.6365 29.0684C35.6892 29.1473 35.7593 29.2087 35.8295 29.2613C35.9085 29.3139 36.005 29.3402 36.1014 29.3402H36.1892ZM34.5313 26.0432L33.8997 26.6745L33.2594 26.0344L33.891 25.3943L34.5313 26.0432ZM35.9435 26.0432L35.312 26.6833L34.6717 26.0432L35.3032 25.4118L35.9435 26.0432Z" fill="white"/>
<path d="M36.1979 29.3401C36.3208 29.3401 36.4436 29.3138 36.5576 29.2611C36.6892 29.1998 36.7944 29.1033 36.8821 28.9893C37.0049 28.8227 37.1014 28.6386 37.1716 28.4457C37.2769 28.1563 37.3646 27.8582 37.4348 27.56L38.347 27.8143C38.2856 28.016 38.233 28.2177 38.1891 28.4106C38.1453 28.5684 38.1189 28.735 38.1102 28.9016V28.9367C38.1102 28.9805 38.1189 29.0332 38.1277 29.077C38.1365 29.1208 38.154 29.1735 38.1716 29.2173C38.1891 29.2611 38.2242 29.2962 38.2593 29.3225C38.2944 29.3488 38.3382 29.3576 38.3733 29.3576H38.3909C38.4874 29.3576 38.5838 29.3225 38.654 29.2611C38.7417 29.191 38.8207 29.1033 38.8821 29.0156C38.961 28.9016 39.0224 28.7876 39.0751 28.6649C39.1365 28.5333 39.1891 28.4018 39.233 28.2703C39.2768 28.1388 39.3207 28.0072 39.347 27.8845C39.3733 27.7617 39.4084 27.6477 39.4172 27.5512L40.2943 27.7266C40.2592 27.8757 40.2329 28.016 40.2154 28.1388C40.1978 28.2615 40.1803 28.393 40.1803 28.5158C40.1803 28.5509 40.1803 28.5772 40.1803 28.6123C40.1803 28.6824 40.1891 28.7613 40.1978 28.8315C40.2066 28.9192 40.2242 28.9981 40.2592 29.077C40.2856 29.1559 40.3382 29.2173 40.3908 29.2699C40.4522 29.3225 40.5399 29.3488 40.6189 29.3488C40.7241 29.3488 40.8206 29.305 40.882 29.2261C40.9522 29.1296 41.0048 29.0244 41.0312 28.9104C41.0662 28.7701 41.0926 28.621 41.1013 28.4807C41.1101 28.3229 41.1189 28.1738 41.1189 28.0248C41.1189 27.9809 41.1189 27.9371 41.1189 27.9108C41.1189 27.8845 41.1189 27.8582 41.1189 27.8318C41.1189 27.8055 41.1189 27.7792 41.1189 27.7442C41.1189 27.7091 41.1189 27.674 41.1189 27.6126L42.0574 27.5425C42.0662 27.6214 42.075 27.7003 42.0838 27.7792C42.0925 27.8582 42.1013 27.9371 42.1013 28.0248C42.1013 28.1124 42.1188 28.2001 42.1276 28.2878C42.1364 28.3755 42.1539 28.4807 42.1715 28.5947C42.189 28.7175 42.2241 28.8315 42.2767 28.9367C42.3294 29.0244 42.3908 29.1121 42.4697 29.1822C42.5399 29.2436 42.6188 29.2962 42.7065 29.3313C42.7855 29.3664 42.8644 29.3751 42.9522 29.3751H43.0925V30.3309H42.9609C42.8381 30.3309 42.7153 30.3222 42.6013 30.2959C42.4873 30.2695 42.3732 30.2345 42.268 30.1819C42.1627 30.1292 42.0574 30.0591 41.9697 29.9802C41.8732 29.8925 41.7943 29.796 41.7241 29.6908C41.6101 29.8837 41.4434 30.0416 41.2592 30.1556C40.8645 30.3835 40.382 30.3923 39.9873 30.1643C39.8031 30.0591 39.6452 29.9013 39.5312 29.7171C39.461 29.8048 39.3821 29.8925 39.2944 29.9714C39.2154 30.0503 39.1277 30.1117 39.0312 30.1643C38.9347 30.2169 38.8295 30.2608 38.7242 30.2959C38.6189 30.3309 38.5049 30.3397 38.3909 30.3397C38.2856 30.3397 38.1716 30.3222 38.0663 30.2959C37.8646 30.2432 37.6804 30.1292 37.5312 29.9714C37.4611 29.8925 37.3997 29.8048 37.3558 29.7083C37.2506 29.91 37.0927 30.0679 36.8997 30.1819C36.6804 30.2871 36.4436 30.3397 36.2067 30.3309H36.0488V29.3927H36.1979V29.3401Z" fill="white"/>
<path d="M42.9346 29.3402H43.7416C44.0574 29.3402 44.3732 29.3139 44.6802 29.2525C45.0047 29.1911 45.3205 29.121 45.6275 29.0245C45.9433 28.9281 46.2503 28.8228 46.5485 28.6913C46.8468 28.5598 47.1362 28.437 47.3994 28.3055C47.1977 28.2616 46.9959 28.2003 46.8029 28.1126C46.6187 28.0336 46.4433 27.9547 46.2854 27.8846C46.1187 27.8057 45.9608 27.7443 45.8117 27.6917C45.6714 27.6391 45.5135 27.6128 45.3644 27.6128C45.2766 27.6128 45.1977 27.6303 45.1188 27.6566C45.0486 27.6829 44.9696 27.7267 44.9082 27.7706C44.8468 27.8144 44.7854 27.867 44.7328 27.9284C44.6889 27.981 44.6363 28.0336 44.6012 28.095C44.5661 28.1476 44.531 28.2003 44.5047 28.2353L44.4521 28.323L43.6802 27.8232C43.7679 27.6654 43.8644 27.5251 43.9784 27.3848C44.0925 27.2445 44.224 27.1217 44.3644 27.0077C44.5047 26.9025 44.6626 26.806 44.8293 26.7446C44.996 26.6745 45.1714 26.6482 45.3556 26.6482C45.5486 26.6482 45.7415 26.6745 45.9258 26.7271C46.1187 26.7797 46.3029 26.8411 46.4871 26.92C46.6713 26.9989 46.8556 27.0866 47.0398 27.1743C47.224 27.262 47.4169 27.3497 47.6011 27.4286C47.7854 27.5075 47.9783 27.5689 48.1801 27.6215C48.3731 27.6741 48.5748 27.7092 48.7766 27.7092L48.6976 28.6738C48.3467 28.8404 47.9871 29.0157 47.6099 29.1999C47.2327 29.384 46.838 29.5594 46.4257 29.7172C46.0047 29.8751 45.5749 30.0154 45.1363 30.1118C44.6714 30.2171 44.1977 30.2784 43.724 30.2872H42.9171L42.9346 29.3402ZM46.724 31.4973L46.0047 32.2075L45.2942 31.4973L46.0047 30.787L46.724 31.4973Z" fill="white"/>
<path d="M53.5922 27.8145L53.7501 28.3055C53.8027 28.4721 53.8554 28.6475 53.8992 28.8229C53.9431 28.9982 53.9782 29.1736 54.0045 29.3402C54.0308 29.5068 54.0484 29.6734 54.0484 29.8488C54.0484 30.068 54.0133 30.2872 53.9431 30.5064C53.8729 30.7257 53.7764 30.9273 53.6624 31.1203C53.5396 31.3219 53.3905 31.5148 53.2326 31.6815C53.0659 31.8656 52.8817 32.0322 52.6975 32.19C52.5045 32.3479 52.294 32.4969 52.0835 32.6372C51.873 32.7688 51.6537 32.8915 51.4256 33.0055L51.0046 32.155C51.18 32.0673 51.3554 31.9708 51.5309 31.8656C51.6975 31.7604 51.8642 31.6464 52.0221 31.5324C52.1712 31.4184 52.3203 31.2869 52.4519 31.1553C52.5835 31.0326 52.6975 30.8923 52.794 30.7432C52.8905 30.6029 52.9607 30.4626 53.0221 30.3048C53.0747 30.1645 53.101 30.0066 53.101 29.8576C53.101 29.7085 53.0835 29.5594 53.0572 29.4104C53.0221 29.2525 52.987 29.1035 52.9431 28.9456C52.8993 28.7878 52.8466 28.6475 52.8028 28.5072C52.7589 28.3669 52.7151 28.2441 52.68 28.1301L53.5922 27.8145Z" fill="white"/>
<path d="M54.5132 31.9707C54.8553 31.9093 55.1799 31.8128 55.5044 31.6813C55.7764 31.5761 56.0307 31.4358 56.2676 31.278C56.4693 31.1464 56.6448 30.9886 56.7939 30.8044C56.9167 30.6554 57.0132 30.48 57.0658 30.2959C56.8641 30.2959 56.6711 30.2871 56.4781 30.2783C56.2939 30.2696 56.1185 30.2432 55.9343 30.2082C55.7764 30.1731 55.6185 30.1205 55.4694 30.0591C55.329 29.9977 55.2062 29.91 55.1009 29.796C54.9957 29.682 54.9167 29.5505 54.8641 29.4014C54.8027 29.2261 54.7764 29.0332 54.7764 28.849C54.7764 28.7087 54.7939 28.5597 54.8203 28.4194C54.8466 28.2703 54.8904 28.1212 54.9518 27.9809C55.0045 27.8406 55.0746 27.7003 55.1624 27.5776C55.2413 27.4548 55.3378 27.3408 55.443 27.2356C55.5483 27.1391 55.6623 27.0602 55.7939 26.9988C55.9255 26.9374 56.0658 26.9111 56.215 26.9111C56.6009 26.9111 56.9518 27.0865 57.2676 27.4285C57.3728 27.5512 57.4693 27.6828 57.5483 27.8231C57.636 27.9721 57.7061 28.1212 57.7675 28.2878C57.8289 28.4544 57.8816 28.6298 57.9167 28.7964C57.9517 28.9718 57.9781 29.1559 57.9868 29.3401H58.2324V30.2959H57.9079C57.8289 30.6466 57.6798 30.9886 57.4781 31.2867C57.2763 31.5761 57.0307 31.8392 56.75 32.0584C56.4606 32.2776 56.1448 32.4617 55.8115 32.602C55.4694 32.7423 55.1009 32.8476 54.7325 32.9089L54.5132 31.9707ZM56.1974 27.8757C56.1185 27.8845 56.0483 27.9108 55.9869 27.9546C55.9079 28.016 55.8378 28.0861 55.7851 28.1651C55.7237 28.2527 55.6711 28.3492 55.6272 28.4457C55.5922 28.5421 55.5658 28.6473 55.5658 28.7526C55.5658 28.849 55.5834 28.9367 55.636 29.0156C55.6886 29.0858 55.7501 29.1384 55.8202 29.1822C55.8992 29.2261 55.9869 29.2611 56.0746 29.2787C56.1711 29.2962 56.2676 29.3138 56.3553 29.3225C56.4079 29.3313 56.4606 29.3313 56.5307 29.3313L56.7237 29.3401C56.7939 29.3401 56.8553 29.3401 56.9167 29.3401H57.1009C57.0921 29.2348 57.0746 29.1384 57.0483 29.0419C57.0219 28.9279 56.9781 28.8227 56.943 28.7175C56.8991 28.6123 56.8465 28.507 56.7939 28.4018C56.7413 28.3054 56.6799 28.2177 56.6097 28.13C56.5483 28.0598 56.4781 27.9985 56.4079 27.9371C56.3465 27.902 56.2764 27.8757 56.1974 27.8757Z" fill="white"/>
<path d="M58.0834 29.3401H58.8728C58.9868 29.3401 59.1184 29.3313 59.25 29.3226C59.3816 29.3138 59.5044 29.2787 59.6272 29.2349C59.7324 29.1998 59.8377 29.1296 59.9166 29.0507C59.9956 28.963 60.0394 28.8403 60.0307 28.7263C60.0307 28.6386 60.0131 28.5421 59.9868 28.4545C59.9605 28.3405 59.9254 28.2089 59.8815 28.0686C59.8377 27.9283 59.7851 27.7793 59.7237 27.6302C59.6623 27.4811 59.6009 27.3408 59.5307 27.2093L60.3903 26.7884C60.4517 26.9287 60.5131 27.0778 60.5745 27.2356C60.6359 27.3934 60.6885 27.5601 60.7412 27.7267C60.785 27.8933 60.8289 28.0599 60.8552 28.2352C60.8815 28.4018 60.8991 28.5685 60.8991 28.7351C60.9078 28.9894 60.8552 29.2436 60.7412 29.4716C60.6359 29.6645 60.4868 29.8399 60.3026 29.9627C60.1096 30.0942 59.8815 30.1819 59.6535 30.2345C59.3903 30.2959 59.1272 30.3222 58.864 30.3222H58.0746L58.0834 29.3401ZM59.75 25.4643L59.1184 26.0957L58.4781 25.4643L59.1096 24.8242L59.75 25.4643ZM61.1534 25.4643L60.5219 26.1044L59.8815 25.4643L60.5131 24.833L61.1534 25.4643Z" fill="white"/>
<path d="M61.5394 31.9707C61.8815 31.9093 62.206 31.8128 62.5306 31.6813C62.8025 31.5761 63.0569 31.4358 63.2937 31.278C63.4955 31.1464 63.6709 30.9886 63.82 30.8044C63.9428 30.6554 64.0393 30.48 64.0919 30.2959C63.8902 30.2959 63.6972 30.2871 63.5042 30.2783C63.32 30.2696 63.1446 30.2432 62.9604 30.2082C62.8025 30.1731 62.6446 30.1205 62.4955 30.0591C62.3551 29.9977 62.2323 29.91 62.1271 29.796C62.0218 29.682 61.9429 29.5505 61.8902 29.4014C61.8288 29.2261 61.8025 29.0332 61.8025 28.849C61.8025 28.7087 61.8201 28.5597 61.8464 28.4194C61.8727 28.2703 61.9165 28.1212 61.978 27.9809C62.0306 27.8406 62.1008 27.7003 62.1885 27.5776C62.2674 27.4548 62.3639 27.3408 62.4692 27.2356C62.5744 27.1391 62.6885 27.0602 62.82 26.9988C62.9516 26.9374 63.092 26.9111 63.2411 26.9111C63.627 26.9111 63.9779 27.0865 64.2937 27.4285C64.3989 27.5512 64.4954 27.6828 64.5744 27.8231C64.6621 27.9721 64.7323 28.1212 64.7937 28.2878C64.8551 28.4544 64.9077 28.6298 64.9428 28.7964C64.9779 28.9718 65.0042 29.1559 65.013 29.3401H65.2586V30.2959H64.934C64.8551 30.6466 64.7059 30.9886 64.5042 31.2867C64.3024 31.5761 64.0568 31.8392 63.7761 32.0584C63.4867 32.2776 63.1709 32.4617 62.8376 32.602C62.4955 32.7423 62.1271 32.8476 61.7587 32.9089L61.5394 31.9707ZM63.2235 27.8757C63.1446 27.8757 63.0744 27.9108 63.013 27.9546C62.9341 28.016 62.8639 28.0861 62.8113 28.1651C62.7499 28.2527 62.6972 28.3492 62.6534 28.4457C62.6183 28.5421 62.592 28.6473 62.592 28.7526C62.592 28.849 62.6095 28.9367 62.6621 29.0156C62.7148 29.0858 62.7762 29.1384 62.8463 29.1822C62.9253 29.2261 63.013 29.2611 63.1007 29.2787C63.1972 29.2962 63.2937 29.3138 63.3814 29.3225C63.4341 29.3313 63.4867 29.3313 63.5569 29.3313L63.7498 29.3401C63.82 29.3401 63.8814 29.3401 63.9428 29.3401H64.127C64.1182 29.2348 64.1007 29.1384 64.0744 29.0419C64.013 28.8139 63.9253 28.6035 63.8112 28.4018C63.7586 28.3054 63.6972 28.2177 63.627 28.13C63.5656 28.0598 63.5042 27.9985 63.4253 27.9371C63.3726 27.902 63.3025 27.8757 63.2235 27.8757Z" fill="white"/>
<path d="M65.1797 29.3402C65.3463 29.3402 65.5042 29.3051 65.6533 29.235C65.7849 29.1648 65.9077 29.0771 66.013 28.9719C66.1182 28.8579 66.2059 28.7351 66.2849 28.6036C66.3638 28.4633 66.434 28.3318 66.5042 28.1915C66.5744 28.0512 66.6533 27.9021 66.7322 27.7618C66.8112 27.6215 66.9077 27.4988 67.0129 27.3848C67.1182 27.2708 67.2322 27.1831 67.3726 27.1129C67.5129 27.0428 67.6796 26.9989 67.8375 27.0077C67.9866 27.0077 68.1357 27.034 68.2761 27.0779C68.4076 27.1217 68.5304 27.1918 68.6357 27.2795C68.741 27.3672 68.8375 27.4637 68.9164 27.5777C68.9953 27.6917 69.0655 27.8144 69.1182 27.946C69.1708 28.0775 69.2059 28.209 69.2322 28.3493C69.2585 28.4896 69.2673 28.6212 69.2673 28.7615C69.2673 28.8842 69.2585 29.007 69.2322 29.1297C69.2146 29.2437 69.1796 29.3665 69.1357 29.4805C69.0918 29.5945 69.0304 29.7085 68.9515 29.8049C68.8725 29.9014 68.7848 29.9803 68.6883 30.0505C68.5919 30.1206 68.4866 30.1732 68.3726 30.2083C68.2585 30.2434 68.1445 30.2609 68.0217 30.2609C67.9077 30.2609 67.8024 30.2434 67.6884 30.2171C67.5656 30.1908 67.4515 30.1557 67.3375 30.1118C67.2849 30.0943 67.2235 30.0592 67.1621 30.0329C67.1007 30.0066 67.0305 29.9715 66.9691 29.9277C66.9077 29.8838 66.8375 29.8488 66.7673 29.8137C66.6972 29.7786 66.6445 29.7348 66.5831 29.6909C66.3989 29.8751 66.1884 30.0241 65.9516 30.1381C65.706 30.2434 65.4428 30.296 65.1709 30.296H65.1007V29.3402H65.1797V29.3402ZM67.1533 28.9018C67.2235 28.9456 67.3024 28.9982 67.4077 29.0508C67.5129 29.1034 67.6182 29.156 67.7235 29.1999C67.8287 29.2437 67.934 29.2788 68.048 29.3051C68.1006 29.3227 68.1533 29.3226 68.2147 29.3226C68.2498 29.3226 68.2848 29.3139 68.3199 29.3051C68.3462 29.2963 68.3813 29.2788 68.3989 29.2613C68.434 29.235 68.4603 29.1911 68.4778 29.156C68.5041 29.1034 68.5217 29.0508 68.5392 28.9982C68.548 28.9456 68.5568 28.893 68.5568 28.8316V28.7965C68.5568 28.5685 68.4778 28.3406 68.3375 28.1564C68.2761 28.0687 68.1884 28.0073 68.1006 27.9547C68.0392 27.9284 67.9691 27.9109 67.8989 27.9109C67.8638 27.9109 67.8287 27.9109 67.7936 27.9197C67.7585 27.9284 67.7235 27.946 67.6884 27.981C67.6445 28.0249 67.6006 28.0775 67.5656 28.1389C67.5217 28.209 67.4603 28.3142 67.3989 28.4282C67.3375 28.5422 67.241 28.7176 67.1533 28.9018Z" fill="white"/>
</g>
<defs>
<clipPath id="clip0_358_2681">
<rect width="115.556" height="40" fill="white"/>
</clipPath>
</defs>
</svg>
