<svg width="116" height="40" viewBox="0 0 116 40" fill="none" xmlns="http://www.w3.org/2000/svg">
<g clip-path="url(#clip0_1614_1671)">
<path d="M104.468 0.140625L95.1002 14.1706L91.2933 9.9265C89.5126 8.19906 87.6179 8.25168 85.9952 8.29552L81.5479 8.48843C81.276 8.4972 81.0567 8.72519 81.0655 8.99702C81.0655 9.0847 81.0918 9.16362 81.1356 9.23377L89.5653 22.4482L81.7497 34.1632L77.3813 34.1281L77.3901 4.68281C77.3901 2.20127 79.4076 0.184469 81.89 0.1757L104.468 0.140625Z" fill="#088EDA"/>
<path d="M115.415 35.3909C115.415 37.8812 113.398 39.898 110.907 39.898L88.4336 39.9068L94.7317 30.533L96.3983 33.1373L112.126 33.1549L101.179 20.9576L101.354 20.7033L111.126 6.06836H115.407L115.415 35.3909Z" fill="#F53362"/>
<path d="M8.03216 12.18V19.6772H6.01467V12.6009L0.102539 2.62207H2.37441L8.03216 12.18ZM8.80407 11.0663L7.7427 9.24244L11.6987 2.63084H13.9443L8.80407 11.0663Z" fill="#1C2328"/>
<path d="M21.2074 14.5301H18.6987C16.9092 14.5301 16.0145 15.1351 16.0145 16.3364C16.0145 16.9941 16.2689 17.4851 16.7776 17.8096C17.2864 18.134 17.9267 18.3006 18.6987 18.3006C19.5056 18.3006 20.3477 18.0639 21.2074 17.5816V19.2126C20.4179 19.7124 19.4355 19.9579 18.2601 19.9579C17.0583 19.9579 16.0408 19.6335 15.2075 18.9933C14.3742 18.3532 13.9707 17.4939 13.9707 16.4241C13.9707 15.3719 14.383 14.5301 15.2075 13.8812C16.0321 13.2323 17.1373 12.9166 18.5144 12.9166H21.1986L21.2074 14.5301ZM23.1196 8.12891C24.0143 9.00578 24.4617 10.2685 24.4617 11.9258V19.6773H22.4705V11.8293C22.4705 10.7946 22.1986 10.0054 21.6547 9.46176C21.1109 8.9181 20.3653 8.64627 19.4179 8.64627C18.0057 8.64627 16.7864 9.32146 15.7514 10.6631L14.4356 9.57575C15.5935 7.73432 17.2952 6.81361 19.5495 6.81361C21.0407 6.80484 22.2249 7.24327 23.1196 8.12891Z" fill="#1C2328"/>
<path d="M28.6719 0.298828H30.663V19.6777H28.6719V0.298828ZM31.9262 19.0025V17.012C32.9437 17.7486 34.0051 18.1256 35.1015 18.1256C36.3383 18.1256 37.3822 17.6784 38.2155 16.7665C39.0488 15.8545 39.4698 14.7321 39.4698 13.373C39.4698 12.0138 39.0488 10.8827 38.2155 9.98825C37.3822 9.09384 36.3383 8.64664 35.1015 8.64664C33.9963 8.64664 32.9437 9.01492 31.9262 9.76026V7.76977C32.9437 7.14719 34.1191 6.81398 35.3121 6.81398C37.0839 6.81398 38.5664 7.44532 39.7418 8.69925C40.9172 9.95317 41.5136 11.514 41.5136 13.373C41.5136 15.2319 40.9259 16.7928 39.7418 18.0642C38.5576 19.3357 37.0839 19.9583 35.3121 19.9583C34.1103 19.967 32.9349 19.6338 31.9262 19.0025Z" fill="#1C2328"/>
<path d="M47.5138 12.2325H54.2241C54.2066 11.1101 53.8382 10.2333 53.1277 9.58437C52.4172 8.93548 51.5312 8.61104 50.4786 8.61104C49.2418 8.61104 48.2067 9.05825 47.3734 9.95265C46.5489 10.8471 46.1366 11.987 46.1366 13.3637C46.1366 14.7754 46.5752 15.9241 47.4436 16.801C48.312 17.6779 49.426 18.1163 50.7944 18.1163C52.2242 18.1163 53.5048 17.5464 54.6452 16.4152L55.8118 17.7568C54.4346 19.2212 52.7505 19.949 50.7768 19.949C48.8822 19.949 47.2945 19.3176 46.0226 18.0637C44.7507 16.8098 44.1104 15.249 44.1104 13.39C44.1104 11.5486 44.7331 9.98773 45.97 8.71627C47.2068 7.4448 48.733 6.80469 50.54 6.80469C52.1803 6.80469 53.5399 7.33958 54.6364 8.40936C55.7329 9.47914 56.2767 10.8383 56.2767 12.4868C56.2767 12.9866 56.2241 13.4952 56.1188 13.9863H47.5138V12.2325Z" fill="#1C2328"/>
<path d="M61.7676 14.1964L62.8816 15.7748L60.1448 19.6768H57.8203L61.7676 14.1964ZM58.2063 7.09375H60.5044L69.6007 19.6768H67.3025L58.2063 7.09375ZM64.5131 10.5048L66.9429 7.09375H69.2411L65.6271 12.0568L64.5131 10.5048Z" fill="#1C2328"/>
<path d="M3.81295 30.2962H3.69892C3.61998 30.2962 3.53226 30.2874 3.45331 30.2699C3.33928 30.2435 3.22525 30.1997 3.12876 30.1383C3.09367 30.454 2.99718 30.7609 2.83929 31.0415C2.67263 31.3309 2.47088 31.6027 2.24282 31.8482C1.99721 32.1025 1.72529 32.3305 1.43582 32.5322C1.14635 32.7339 0.830573 32.918 0.514792 33.0758L0.09375 32.2165C0.269184 32.1288 0.444618 32.0324 0.620052 31.9271C0.795486 31.8219 0.962149 31.7167 1.12004 31.5939C1.27793 31.4799 1.42705 31.3572 1.5674 31.2256C1.69897 31.1029 1.82178 30.9626 1.92704 30.8223C2.02353 30.6908 2.10247 30.5417 2.16387 30.3838C2.22527 30.2348 2.25159 30.0857 2.25159 29.9279C2.25159 29.8051 2.23405 29.6824 2.19896 29.5596C2.16387 29.4281 2.12879 29.2878 2.07616 29.1387C2.02353 28.9896 1.9709 28.8406 1.91827 28.6915C1.85686 28.5424 1.813 28.3934 1.76037 28.2531L2.65509 27.8848C2.75158 28.1741 2.83929 28.4197 2.91824 28.6038C2.97964 28.7616 3.05859 28.9107 3.15508 29.051C3.21648 29.1475 3.30419 29.2264 3.40068 29.279C3.4884 29.3228 3.59366 29.3491 3.69015 29.3404H3.80418V30.2962H3.81295Z" fill="#1C2328"/>
<path d="M3.66403 29.3404H4.22542C4.36576 29.3404 4.49734 29.3316 4.62891 29.3228C4.56751 29.279 4.51488 29.2351 4.46225 29.1825C4.40085 29.1124 4.33945 29.0422 4.29559 28.9633C4.24296 28.8756 4.1991 28.7792 4.16401 28.6827C4.12893 28.5687 4.10261 28.4547 4.10261 28.332C4.10261 28.2969 4.10261 28.2706 4.10261 28.2355C4.10261 28.1215 4.12016 28.0075 4.14647 27.8935C4.18156 27.762 4.22542 27.6305 4.28682 27.5077C4.35699 27.3762 4.43594 27.2534 4.52365 27.1394C4.61137 27.0254 4.71663 26.929 4.83944 26.8413C4.95347 26.7536 5.07627 26.6922 5.20785 26.6396C5.32188 26.5958 5.44468 26.5782 5.56749 26.5782H5.61135C5.80432 26.587 5.9973 26.6396 6.17273 26.7361C6.3394 26.8325 6.49729 26.9553 6.62009 27.1043C6.75167 27.2622 6.84815 27.4288 6.91833 27.6217C6.9885 27.8146 7.02359 28.0075 7.02359 28.2092C7.02359 28.4021 6.9885 28.595 6.91833 28.7704C6.84815 28.9458 6.76044 29.1212 6.64641 29.279C6.76921 29.2965 6.89201 29.3141 7.03236 29.3228C7.17271 29.3316 7.30428 29.3404 7.43586 29.3404H7.53235V30.2962H7.4534C7.26043 30.2962 7.07622 30.2962 6.90079 30.2874C6.73412 30.2786 6.56746 30.2699 6.4008 30.2435C6.25168 30.226 6.10256 30.1909 5.96221 30.1471C5.83064 30.112 5.71661 30.0506 5.60257 29.9805C5.50608 30.0419 5.40082 30.0945 5.28679 30.1208C5.13767 30.1646 4.97978 30.1997 4.82189 30.2172C4.65523 30.2435 4.47102 30.2611 4.27805 30.2786C4.08507 30.2874 3.90086 30.2962 3.72543 30.2962H3.64648L3.66403 29.3404ZM6.28677 25.2278L5.57626 25.9469L4.86575 25.2278L5.57626 24.5176L6.28677 25.2278ZM5.60257 27.5165C5.52363 27.534 5.45345 27.5603 5.38328 27.5954C5.19907 27.6831 5.04996 27.8234 4.96224 28.0075C4.90961 28.1127 4.88329 28.2355 4.88329 28.3583C4.89207 28.4197 4.90961 28.481 4.9447 28.5336C4.98855 28.6126 5.04996 28.6827 5.11136 28.7441C5.18153 28.8142 5.26048 28.8844 5.34819 28.937C5.43591 28.9984 5.52363 29.0422 5.62012 29.0685C5.69906 29.0335 5.76924 28.9809 5.83941 28.9195C5.90958 28.8581 5.97098 28.7967 6.02362 28.7266C6.07625 28.6564 6.1201 28.5863 6.15519 28.5073C6.19028 28.4372 6.20782 28.367 6.20782 28.2881C6.20782 28.1917 6.19028 28.0952 6.14642 28.0075C6.10256 27.9198 6.0587 27.8409 5.98853 27.7708C5.92713 27.7006 5.86572 27.648 5.78678 27.5954C5.74292 27.5603 5.67275 27.534 5.60257 27.5165Z" fill="#1C2328"/>
<path d="M7.54069 29.3407C7.67226 29.3407 7.79507 29.3143 7.9091 29.253C8.02313 29.1916 8.11962 29.1127 8.19856 29.0162C8.28628 28.911 8.35646 28.797 8.41786 28.6742C8.47926 28.5515 8.54066 28.4199 8.58452 28.2796C8.62838 28.1481 8.67224 28.0166 8.70732 27.885C8.74241 27.7535 8.7775 27.6395 8.80381 27.5343L9.73361 27.736C9.7073 27.8061 9.68098 27.8938 9.6459 27.999C9.61081 28.1043 9.57572 28.2183 9.54064 28.341C9.50555 28.4638 9.47923 28.5865 9.45292 28.7005C9.43538 28.7882 9.4266 28.8759 9.43538 28.9636C9.43538 28.9899 9.43538 29.0337 9.44415 29.0951C9.45292 29.1653 9.47923 29.2267 9.52309 29.2793C9.57572 29.3407 9.66344 29.3757 9.75116 29.367C9.85642 29.367 9.96168 29.3319 10.0494 29.2705C10.1459 29.2004 10.2248 29.1214 10.2862 29.025C10.3652 28.911 10.4266 28.797 10.4704 28.6742C10.5231 28.5427 10.5669 28.4112 10.6108 28.2709C10.6459 28.1306 10.681 27.999 10.7073 27.8675C10.7336 27.736 10.7511 27.622 10.7687 27.5168L11.6371 27.6834C11.6283 27.7448 11.6195 27.8149 11.602 27.8938C11.5844 27.9727 11.5757 28.0692 11.5581 28.1569C11.5406 28.2446 11.5318 28.3498 11.5143 28.455C11.4967 28.5602 11.488 28.6655 11.4792 28.7707V28.8321C11.4792 28.8935 11.488 28.9548 11.4967 29.0162C11.5143 29.0776 11.5406 29.139 11.5757 29.1916C11.6195 29.2442 11.6722 29.2968 11.7336 29.3231C11.8037 29.3582 11.8915 29.3757 11.9704 29.3757C12.1283 29.3845 12.2774 29.3319 12.4002 29.2442C12.5142 29.139 12.5844 28.9899 12.5669 28.8321C12.5669 28.683 12.5493 28.5339 12.5142 28.3936C12.4792 28.2358 12.4353 28.0867 12.3827 27.9377C12.33 27.7886 12.2774 27.6483 12.216 27.5168C12.1634 27.3852 12.1107 27.2712 12.0669 27.1923L12.8651 26.7451C12.8827 26.7714 12.9002 26.824 12.9353 26.8942C12.9704 26.9643 13.0055 27.052 13.0493 27.1572C13.0932 27.2625 13.137 27.3765 13.1809 27.508C13.2248 27.6395 13.2686 27.7798 13.3037 27.9201C13.3388 28.0692 13.3739 28.2183 13.4002 28.3673C13.4265 28.5164 13.4353 28.6655 13.4353 28.8145C13.4353 29.025 13.4002 29.2442 13.33 29.4371C13.2598 29.6213 13.1546 29.7966 13.0142 29.9282C12.8651 30.0685 12.6985 30.1649 12.5055 30.2263C12.295 30.2964 12.0669 30.3315 11.8388 30.3315H11.7862C11.6809 30.3315 11.5669 30.314 11.4704 30.2877C11.3739 30.2614 11.2862 30.2175 11.2073 30.1561C11.1283 30.1035 11.0581 30.0334 10.988 29.9632C10.9266 29.8931 10.8652 29.8229 10.8125 29.7528C10.7599 29.8317 10.6897 29.9106 10.6283 29.9808C10.5582 30.0509 10.4792 30.1123 10.4003 30.1649C10.3038 30.2175 10.2073 30.2614 10.102 30.2877C9.97922 30.3228 9.84765 30.3403 9.71607 30.3403H9.68976C9.58449 30.3403 9.47923 30.3228 9.38275 30.2964C9.28626 30.2701 9.19854 30.2263 9.11959 30.1737C9.04065 30.1211 8.9617 30.0597 8.9003 29.9895C8.8389 29.9194 8.7775 29.8405 8.71609 29.7616C8.66346 29.8317 8.61083 29.9019 8.54943 29.9632C8.47926 30.0334 8.40031 30.0948 8.30382 30.1386C8.19856 30.1912 8.08453 30.2351 7.96173 30.2614C7.81261 30.2964 7.66349 30.3052 7.5056 30.3052H7.37402V29.3407H7.54069V29.3407Z" fill="#1C2328"/>
<path d="M21.3565 26.9726C21.4705 26.9462 21.5845 26.9287 21.6986 26.9287C21.7336 26.9287 21.76 26.9287 21.795 26.9287C21.8828 26.9287 21.9792 26.9375 22.067 26.9462C22.2863 26.9813 22.5056 27.0427 22.6985 27.1479L22.3564 28.0423C22.2249 27.9897 22.0933 27.9459 21.9529 27.9283C21.8915 27.9196 21.8389 27.9196 21.7775 27.9196C21.6986 27.9196 21.6108 27.9283 21.5319 27.9371C21.4354 27.9459 21.3477 27.9722 21.26 28.0073C21.1547 28.0511 21.0582 28.1037 20.9705 28.1651C20.874 28.2352 20.7775 28.3054 20.6986 28.3931C20.6109 28.472 20.5319 28.5685 20.4617 28.6649C20.4003 28.7526 20.3389 28.8578 20.3039 28.963C20.2688 29.0595 20.2425 29.156 20.2425 29.2524C20.2337 29.3401 20.26 29.4278 20.3214 29.5067C20.374 29.5681 20.4442 29.6207 20.5231 29.6558C20.6196 29.6909 20.7161 29.7259 20.8214 29.7435C20.9354 29.7698 21.0494 29.7961 21.1723 29.8312C21.3214 29.8662 21.4705 29.9101 21.6196 29.9539C21.76 29.9978 21.9003 30.0591 22.0319 30.1381C22.1547 30.217 22.2512 30.3222 22.3213 30.445C22.3915 30.5765 22.4178 30.7168 22.4178 30.8571C22.4178 30.8834 22.4178 30.9009 22.4178 30.9272C22.4091 31.164 22.3477 31.4007 22.2424 31.62C22.1371 31.8129 22.0056 31.997 21.8389 32.1373C21.6722 32.2864 21.4793 32.4092 21.2687 32.5056C21.0494 32.6021 20.8302 32.681 20.5933 32.7424C20.3565 32.8037 20.1284 32.8476 19.8828 32.8651C19.6547 32.8914 19.4267 32.9002 19.1986 32.9002C18.7951 32.909 18.3916 32.8476 17.9969 32.7248C17.6548 32.6196 17.3478 32.4442 17.0846 32.2075C16.8303 31.9707 16.646 31.6813 16.5408 31.3481C16.4618 31.1114 16.4268 30.8571 16.4268 30.6028C16.4268 30.4537 16.4355 30.3047 16.4531 30.1556C16.4706 29.989 16.4969 29.8224 16.532 29.6558C16.5671 29.4892 16.6022 29.3226 16.6461 29.1647C16.6899 29.0069 16.725 28.8578 16.7689 28.7175C16.8127 28.5772 16.8478 28.4545 16.8829 28.3492C16.918 28.244 16.9443 28.1563 16.9706 28.0862C16.9969 28.016 17.0145 27.981 17.0145 27.9722L17.8302 28.3054C17.7688 28.4895 17.7162 28.6649 17.6636 28.8315C17.6109 28.9981 17.5671 29.156 17.5232 29.305C17.4881 29.4629 17.453 29.6207 17.418 29.7785C17.3916 29.9364 17.3566 30.103 17.339 30.2784C17.3302 30.3573 17.3215 30.4362 17.3215 30.5151C17.3215 30.6993 17.3566 30.8746 17.4267 31.0412C17.4969 31.2254 17.6197 31.3832 17.7776 31.506C17.9618 31.6463 18.1636 31.7515 18.3916 31.8129C18.646 31.883 18.9092 31.9181 19.1723 31.9181C19.4793 31.9181 19.7863 31.8918 20.0933 31.8392C20.3477 31.7953 20.5933 31.7252 20.8389 31.6375C21.0231 31.5674 21.1898 31.4709 21.3389 31.3569C21.4442 31.278 21.5231 31.164 21.5494 31.0325C21.5494 31.0062 21.5231 30.9886 21.4793 30.9711C21.4266 30.9448 21.3652 30.9272 21.3126 30.9097C21.2424 30.8922 21.1723 30.8746 21.0933 30.8571C21.0144 30.8396 20.9354 30.822 20.8565 30.7957C20.6635 30.7519 20.4617 30.6905 20.2775 30.6203C20.1109 30.559 19.953 30.4713 19.8126 30.3573C19.6811 30.252 19.5758 30.1117 19.5056 29.9539C19.4267 29.761 19.3916 29.5506 19.3916 29.3401C19.4091 29.0683 19.4618 28.7964 19.567 28.5422C19.7688 28.0336 20.1196 27.5951 20.5845 27.2882C20.8389 27.1392 21.0933 27.0339 21.3565 26.9726Z" fill="#1C2328"/>
<path d="M23.0845 31.9707C23.4266 31.9093 23.7511 31.8128 24.0757 31.6813C24.3476 31.5761 24.602 31.4358 24.8388 31.278C25.0406 31.1464 25.216 30.9886 25.3651 30.8044C25.4879 30.6554 25.5844 30.48 25.637 30.2959C25.4353 30.2959 25.2423 30.2871 25.0493 30.2783C24.8651 30.2696 24.6897 30.2432 24.5055 30.2082C24.3476 30.1731 24.1897 30.1205 24.0406 30.0591C23.9002 29.9977 23.7774 29.91 23.6722 29.796C23.5669 29.682 23.488 29.5505 23.4353 29.4014C23.3739 29.2261 23.3476 29.0332 23.3476 28.849C23.3476 28.7087 23.3652 28.5597 23.3915 28.4194C23.4178 28.2703 23.4617 28.1212 23.5231 27.9809C23.5757 27.8406 23.6459 27.7003 23.7336 27.5776C23.8125 27.4548 23.909 27.3408 24.0143 27.2356C24.1195 27.1391 24.2336 27.0602 24.3651 26.9988C24.4967 26.9374 24.6371 26.9111 24.7862 26.9111C25.1721 26.9111 25.523 27.0865 25.8388 27.4285C25.944 27.5512 26.0405 27.6828 26.1195 27.8231C26.2072 27.9721 26.2774 28.1212 26.3388 28.2878C26.4002 28.4544 26.4528 28.6298 26.4879 28.7964C26.523 28.9718 26.5493 29.1559 26.5581 29.3401H26.8037V30.2959H26.4791C26.4002 30.6466 26.2511 30.9886 26.0493 31.2867C25.8476 31.5761 25.602 31.8392 25.3213 32.0584C25.0318 32.2776 24.716 32.4617 24.3827 32.602C24.0406 32.7423 23.6722 32.8476 23.3038 32.9089L23.0845 31.9707ZM24.7774 27.8757C24.6985 27.8757 24.6283 27.9108 24.5669 27.9546C24.4879 28.016 24.4178 28.0861 24.3651 28.1651C24.3037 28.2527 24.2511 28.3492 24.2073 28.4457C24.1722 28.5421 24.1458 28.6473 24.1458 28.7526C24.1458 28.849 24.1634 28.9367 24.216 29.0156C24.2687 29.0858 24.3301 29.1384 24.4002 29.1822C24.4792 29.2261 24.5669 29.2611 24.6546 29.2787C24.7511 29.2962 24.8476 29.3138 24.9353 29.3225C24.9879 29.3313 25.0406 29.3313 25.1107 29.3313L25.3037 29.3401C25.3739 29.3401 25.4353 29.3401 25.4967 29.3401H25.6809C25.6721 29.2348 25.6546 29.1384 25.6283 29.0419C25.5669 28.8139 25.4791 28.6035 25.3651 28.4018C25.3125 28.3054 25.2511 28.2177 25.1809 28.13C25.1195 28.0598 25.0581 27.9985 24.9792 27.9371C24.9265 27.902 24.8476 27.8757 24.7774 27.8757Z" fill="#1C2328"/>
<path d="M26.6543 29.3405H27.4086C27.7157 29.3405 28.0314 29.3142 28.3297 29.2528C28.6367 29.1914 28.9437 29.1125 29.2419 29.0161C29.5402 28.9196 29.8384 28.8056 30.1191 28.6829C30.3998 28.5601 30.6717 28.4373 30.9173 28.3146C30.8121 28.297 30.698 28.2707 30.6015 28.2357C30.4875 28.2006 30.3735 28.148 30.2594 28.1041C30.1454 28.0603 30.0226 27.9989 29.8998 27.9463C29.777 27.8937 29.6542 27.8411 29.5314 27.7884C29.4086 27.7446 29.2858 27.7008 29.163 27.6745C29.049 27.6482 28.9261 27.6306 28.8033 27.6306C28.7156 27.6306 28.6279 27.6482 28.5402 27.6832C28.4612 27.7183 28.3823 27.7621 28.3034 27.8148C28.2332 27.8674 28.163 27.92 28.1104 27.9814C28.0577 28.034 28.0051 28.0866 27.9613 28.148C27.9174 28.2006 27.8911 28.2444 27.8648 28.2795L27.8297 28.3321L27.0841 27.9287C27.1718 27.7621 27.2858 27.6043 27.4174 27.4552C27.549 27.3062 27.6981 27.1746 27.856 27.0606C28.0051 26.9467 28.163 26.859 28.3384 26.7888C28.4876 26.7274 28.6542 26.6924 28.8121 26.6836C28.9437 26.6836 29.0665 26.7011 29.1893 26.7274C29.3209 26.7537 29.4525 26.7976 29.5753 26.8414C29.7068 26.8853 29.8384 26.9467 29.97 26.9993L30.3823 27.1834C30.5226 27.2536 30.6805 27.3237 30.8559 27.3939C31.0314 27.464 31.2068 27.5254 31.3822 27.578C31.5577 27.6306 31.7419 27.6745 31.9261 27.7095C32.1015 27.7446 32.2769 27.7621 32.4524 27.7621L32.2945 28.6741C32.198 28.7179 32.1103 28.753 32.0226 28.8056C31.9348 28.8582 31.8471 28.8933 31.7506 28.9371C31.8033 29.0424 31.8734 29.1213 31.9699 29.1827C32.0664 29.2441 32.1717 29.2879 32.2857 29.3142C32.391 29.3405 32.4962 29.358 32.6103 29.3668C32.7155 29.3756 32.7945 29.3756 32.8559 29.3756H33.005V30.3314H32.8559C32.4261 30.3401 32.005 30.2612 31.6191 30.0771C31.3033 29.928 31.0401 29.6737 30.891 29.358C30.6366 29.4808 30.3823 29.6036 30.1103 29.7176C29.8384 29.8316 29.5577 29.9368 29.277 30.0245C28.9788 30.1122 28.6805 30.1911 28.3735 30.2437C28.049 30.2963 27.7244 30.3226 27.3999 30.3226H26.6455L26.6543 29.3405ZM30.4437 31.5064L29.7244 32.2254L29.0139 31.5064L29.7244 30.7961L30.4437 31.5064Z" fill="#1C2328"/>
<path d="M36.1892 29.3404V30.2962H36.1103C35.8998 30.305 35.6892 30.2612 35.4963 30.1822C35.3384 30.1121 35.1892 30.0069 35.0752 29.8841C34.9787 29.9981 34.8559 30.077 34.7156 30.1209C34.5401 30.1822 34.3647 30.2173 34.1805 30.2436C33.9788 30.2699 33.777 30.2875 33.5753 30.2875C33.3647 30.2875 33.1805 30.2962 33.0051 30.2962H32.8647V29.3404H33.0051C33.2507 29.3404 33.4963 29.3229 33.7419 29.2878C33.9086 29.2615 34.0752 29.2177 34.2244 29.1388C34.3384 29.0862 34.4261 28.9985 34.4875 28.8932C34.5401 28.788 34.5752 28.674 34.5665 28.5513C34.5665 28.4373 34.5489 28.3233 34.5138 28.2181C34.4787 28.0778 34.4349 27.8936 34.3647 27.6744L35.2857 27.4201C35.3208 27.5253 35.3471 27.6218 35.3647 27.7095C35.3822 27.7972 35.3998 27.8761 35.4085 27.955C35.4173 28.0339 35.4261 28.1304 35.4349 28.2268C35.4436 28.3233 35.4524 28.4373 35.4612 28.5688C35.4699 28.6565 35.4875 28.7442 35.5138 28.8231C35.5401 28.9108 35.584 28.9985 35.6366 29.0686C35.6892 29.1475 35.7594 29.2089 35.8296 29.2615C35.9085 29.3141 36.005 29.3404 36.1015 29.3404H36.1892ZM34.5314 26.0434L33.8998 26.6748L33.2595 26.0346L33.891 25.3945L34.5314 26.0434ZM35.9436 26.0434L35.312 26.6835L34.6717 26.0434L35.3033 25.4121L35.9436 26.0434Z" fill="#1C2328"/>
<path d="M36.1979 29.3406C36.3208 29.3406 36.4436 29.3142 36.5576 29.2616C36.6892 29.2003 36.7944 29.1038 36.8821 28.9898C37.0049 28.8232 37.1014 28.6391 37.1716 28.4461C37.2769 28.1568 37.3646 27.8586 37.4348 27.5605L38.347 27.8148C38.2856 28.0165 38.233 28.2182 38.1891 28.4111C38.1453 28.5689 38.1189 28.7355 38.1102 28.9021V28.9372C38.1102 28.981 38.1189 29.0336 38.1277 29.0775C38.1365 29.1213 38.154 29.1739 38.1716 29.2178C38.1891 29.2616 38.2242 29.2967 38.2593 29.323C38.2944 29.3493 38.3382 29.3581 38.3733 29.3581H38.3909C38.4874 29.3581 38.5838 29.323 38.654 29.2616C38.7417 29.1915 38.8207 29.1038 38.8821 29.0161C38.961 28.9021 39.0224 28.7881 39.0751 28.6654C39.1365 28.5338 39.1891 28.4023 39.233 28.2708C39.2768 28.1392 39.3207 28.0077 39.347 27.8849C39.3733 27.7622 39.4084 27.6482 39.4172 27.5517L40.2943 27.7271C40.2592 27.8762 40.2329 28.0165 40.2154 28.1392C40.1978 28.262 40.1803 28.3935 40.1803 28.5163C40.1803 28.5514 40.1803 28.5777 40.1803 28.6127C40.1803 28.6829 40.1891 28.7618 40.1978 28.832C40.2066 28.9197 40.2242 28.9986 40.2592 29.0775C40.2856 29.1564 40.3382 29.2178 40.3908 29.2704C40.4522 29.323 40.5399 29.3493 40.6189 29.3493C40.7241 29.3493 40.8206 29.3055 40.882 29.2266C40.9522 29.1301 41.0048 29.0249 41.0312 28.9109C41.0662 28.7706 41.0926 28.6215 41.1013 28.4812C41.1101 28.3234 41.1189 28.1743 41.1189 28.0252C41.1189 27.9814 41.1189 27.9376 41.1189 27.9113C41.1189 27.8849 41.1189 27.8586 41.1189 27.8323C41.1189 27.806 41.1189 27.7797 41.1189 27.7446C41.1189 27.7096 41.1189 27.6745 41.1189 27.6131L42.0574 27.543C42.0662 27.6219 42.075 27.7008 42.0838 27.7797C42.0925 27.8586 42.1013 27.9376 42.1013 28.0252C42.1013 28.1129 42.1188 28.2006 42.1276 28.2883C42.1364 28.376 42.1539 28.4812 42.1715 28.5952C42.189 28.718 42.2241 28.832 42.2767 28.9372C42.3294 29.0249 42.3908 29.1126 42.4697 29.1827C42.5399 29.2441 42.6188 29.2967 42.7065 29.3318C42.7855 29.3669 42.8644 29.3756 42.9522 29.3756H43.0925V30.3314H42.9609C42.8381 30.3314 42.7153 30.3226 42.6013 30.2963C42.4873 30.27 42.3732 30.235 42.268 30.1823C42.1627 30.1297 42.0574 30.0596 41.9697 29.9807C41.8732 29.893 41.7943 29.7965 41.7241 29.6913C41.6101 29.8842 41.4434 30.042 41.2592 30.156C40.8645 30.384 40.382 30.3928 39.9873 30.1648C39.8031 30.0596 39.6452 29.9017 39.5312 29.7176C39.461 29.8053 39.3821 29.893 39.2944 29.9719C39.2154 30.0508 39.1277 30.1122 39.0312 30.1648C38.9347 30.2174 38.8295 30.2613 38.7242 30.2963C38.6189 30.3314 38.5049 30.3402 38.3909 30.3402C38.2856 30.3402 38.1716 30.3226 38.0663 30.2963C37.8646 30.2437 37.6804 30.1297 37.5312 29.9719C37.4611 29.893 37.3997 29.8053 37.3558 29.7088C37.2506 29.9105 37.0927 30.0684 36.8997 30.1823C36.6804 30.2876 36.4436 30.3402 36.2067 30.3314H36.0488V29.3932H36.1979V29.3406Z" fill="#1C2328"/>
<path d="M42.9345 29.3404H43.7415C44.0573 29.3404 44.3731 29.3141 44.6801 29.2527C45.0047 29.1914 45.3204 29.1212 45.6275 29.0248C45.9432 28.9283 46.2502 28.8231 46.5485 28.6915C46.8467 28.56 47.1362 28.4373 47.3993 28.3057C47.1976 28.2619 46.9958 28.2005 46.8029 28.1128C46.6187 28.0339 46.4432 27.955 46.2853 27.8848C46.1187 27.8059 45.9608 27.7445 45.8117 27.6919C45.6713 27.6393 45.5134 27.613 45.3643 27.613C45.2766 27.613 45.1976 27.6305 45.1187 27.6568C45.0485 27.6831 44.9696 27.727 44.9082 27.7708C44.8468 27.8147 44.7854 27.8673 44.7327 27.9287C44.6889 27.9813 44.6362 28.0339 44.6012 28.0953C44.5661 28.1479 44.531 28.2005 44.5047 28.2356L44.452 28.3233L43.6801 27.8234C43.7678 27.6656 43.8643 27.5253 43.9784 27.385C44.0924 27.2447 44.224 27.1219 44.3643 27.008C44.5047 26.9027 44.6626 26.8063 44.8292 26.7449C44.9959 26.6747 45.1713 26.6484 45.3555 26.6484C45.5485 26.6484 45.7415 26.6747 45.9257 26.7274C46.1187 26.78 46.3029 26.8413 46.4871 26.9203C46.6713 26.9992 46.8555 27.0869 47.0397 27.1746C47.2239 27.2622 47.4169 27.3499 47.6011 27.4289C47.7853 27.5078 47.9783 27.5692 48.18 27.6218C48.373 27.6744 48.5748 27.7095 48.7765 27.7095L48.6976 28.674C48.3467 28.8406 47.987 29.016 47.6099 29.2001C47.2327 29.3843 46.8379 29.5596 46.4257 29.7175C46.0046 29.8753 45.5748 30.0156 45.1362 30.1121C44.6713 30.2173 44.1977 30.2787 43.724 30.2874H42.917L42.9345 29.3404ZM46.7239 31.4975L46.0046 32.2078L45.2941 31.4975L46.0046 30.7873L46.7239 31.4975Z" fill="#1C2328"/>
<path d="M53.5925 27.8145L53.7504 28.3055C53.8031 28.4721 53.8557 28.6475 53.8995 28.8229C53.9434 28.9982 53.9785 29.1736 54.0048 29.3402C54.0311 29.5068 54.0487 29.6734 54.0487 29.8488C54.0487 30.068 54.0136 30.2872 53.9434 30.5064C53.8732 30.7257 53.7767 30.9273 53.6627 31.1203C53.5399 31.3219 53.3908 31.5148 53.2329 31.6815C53.0662 31.8656 52.882 32.0322 52.6978 32.19C52.5048 32.3479 52.2943 32.4969 52.0838 32.6372C51.8733 32.7688 51.654 32.8915 51.4259 33.0055L51.0049 32.155C51.1803 32.0673 51.3558 31.9708 51.5312 31.8656C51.6978 31.7604 51.8645 31.6464 52.0224 31.5324C52.1715 31.4184 52.3206 31.2869 52.4522 31.1553C52.5838 31.0326 52.6978 30.8923 52.7943 30.7432C52.8908 30.6029 52.961 30.4626 53.0224 30.3048C53.075 30.1645 53.1013 30.0066 53.1013 29.8576C53.1013 29.7085 53.0838 29.5594 53.0575 29.4104C53.0224 29.2525 52.9873 29.1035 52.9434 28.9456C52.8996 28.7878 52.8469 28.6475 52.8031 28.5072C52.7592 28.3669 52.7154 28.2441 52.6803 28.1301L53.5925 27.8145Z" fill="#1C2328"/>
<path d="M54.5137 31.9707C54.8558 31.9093 55.1803 31.8128 55.5049 31.6813C55.7768 31.5761 56.0312 31.4358 56.268 31.278C56.4698 31.1464 56.6452 30.9886 56.7943 30.8044C56.9171 30.6554 57.0136 30.48 57.0662 30.2959C56.8645 30.2959 56.6715 30.2871 56.4785 30.2783C56.2943 30.2696 56.1189 30.2432 55.9347 30.2082C55.7768 30.1731 55.6189 30.1205 55.4698 30.0591C55.3294 29.9977 55.2066 29.91 55.1014 29.796C54.9961 29.682 54.9172 29.5505 54.8645 29.4014C54.8031 29.2261 54.7768 29.0332 54.7768 28.849C54.7768 28.7087 54.7944 28.5597 54.8207 28.4194C54.847 28.2703 54.8909 28.1212 54.9523 27.9809C55.0049 27.8406 55.0751 27.7003 55.1628 27.5776C55.2417 27.4548 55.3382 27.3408 55.4435 27.2356C55.5487 27.1391 55.6628 27.0602 55.7943 26.9988C55.9259 26.9374 56.0663 26.9111 56.2154 26.9111C56.6013 26.9111 56.9522 27.0865 57.268 27.4285C57.3732 27.5512 57.4697 27.6828 57.5487 27.8231C57.6364 27.9721 57.7066 28.1212 57.768 28.2878C57.8294 28.4544 57.882 28.6298 57.9171 28.7964C57.9522 28.9718 57.9785 29.1559 57.9873 29.3401H58.2329V30.2959H57.9083C57.8294 30.6466 57.6802 30.9886 57.4785 31.2867C57.2768 31.5761 57.0311 31.8392 56.7505 32.0584C56.461 32.2776 56.1452 32.4617 55.8119 32.602C55.4698 32.7423 55.1014 32.8476 54.733 32.9089L54.5137 31.9707ZM56.1978 27.8757C56.1189 27.8845 56.0487 27.9108 55.9873 27.9546C55.9084 28.016 55.8382 28.0861 55.7856 28.1651C55.7242 28.2527 55.6715 28.3492 55.6277 28.4457C55.5926 28.5421 55.5663 28.6473 55.5663 28.7526C55.5663 28.849 55.5838 28.9367 55.6364 29.0156C55.6891 29.0858 55.7505 29.1384 55.8207 29.1822C55.8996 29.2261 55.9873 29.2611 56.075 29.2787C56.1715 29.2962 56.268 29.3138 56.3557 29.3225C56.4084 29.3313 56.461 29.3313 56.5312 29.3313L56.7241 29.3401C56.7943 29.3401 56.8557 29.3401 56.9171 29.3401H57.1013C57.0925 29.2348 57.075 29.1384 57.0487 29.0419C57.0224 28.9279 56.9785 28.8227 56.9434 28.7175C56.8996 28.6123 56.8469 28.507 56.7943 28.4018C56.7417 28.3054 56.6803 28.2177 56.6101 28.13C56.5487 28.0598 56.4785 27.9985 56.4084 27.9371C56.347 27.902 56.2768 27.8757 56.1978 27.8757Z" fill="#1C2328"/>
<path d="M58.0835 29.3401H58.8729C58.987 29.3401 59.1185 29.3313 59.2501 29.3226C59.3817 29.3138 59.5045 29.2787 59.6273 29.2349C59.7325 29.1998 59.8378 29.1296 59.9168 29.0507C59.9957 28.963 60.0396 28.8403 60.0308 28.7263C60.0308 28.6386 60.0132 28.5421 59.9869 28.4545C59.9606 28.3405 59.9255 28.2089 59.8817 28.0686C59.8378 27.9283 59.7852 27.7793 59.7238 27.6302C59.6624 27.4811 59.601 27.3408 59.5308 27.2093L60.3904 26.7884C60.4518 26.9287 60.5132 27.0778 60.5746 27.2356C60.636 27.3934 60.6887 27.5601 60.7413 27.7267C60.7851 27.8933 60.829 28.0599 60.8553 28.2352C60.8816 28.4018 60.8992 28.5685 60.8992 28.7351C60.908 28.9894 60.8553 29.2436 60.7413 29.4716C60.636 29.6645 60.4869 29.8399 60.3027 29.9627C60.1097 30.0942 59.8817 30.1819 59.6536 30.2345C59.3905 30.2959 59.1273 30.3222 58.8642 30.3222H58.0747L58.0835 29.3401ZM59.7501 25.4643L59.1185 26.0957L58.4782 25.4643L59.1098 24.8242L59.7501 25.4643ZM61.1536 25.4643L60.522 26.1044L59.8817 25.4643L60.5132 24.833L61.1536 25.4643Z" fill="#1C2328"/>
<path d="M61.5396 31.9707C61.8816 31.9093 62.2062 31.8128 62.5307 31.6813C62.8027 31.5761 63.0571 31.4358 63.2939 31.278C63.4956 31.1464 63.6711 30.9886 63.8202 30.8044C63.943 30.6554 64.0395 30.48 64.0921 30.2959C63.8904 30.2959 63.6974 30.2871 63.5044 30.2783C63.3202 30.2696 63.1448 30.2432 62.9606 30.2082C62.8027 30.1731 62.6448 30.1205 62.4957 30.0591C62.3553 29.9977 62.2325 29.91 62.1272 29.796C62.022 29.682 61.943 29.5505 61.8904 29.4014C61.829 29.2261 61.8027 29.0332 61.8027 28.849C61.8027 28.7087 61.8202 28.5597 61.8466 28.4194C61.8729 28.2703 61.9167 28.1212 61.9781 27.9809C62.0308 27.8406 62.1009 27.7003 62.1887 27.5776C62.2676 27.4548 62.3641 27.3408 62.4693 27.2356C62.5746 27.1391 62.6886 27.0602 62.8202 26.9988C62.9518 26.9374 63.0921 26.9111 63.2413 26.9111C63.6272 26.9111 63.9781 27.0865 64.2939 27.4285C64.3991 27.5512 64.4956 27.6828 64.5745 27.8231C64.6623 27.9721 64.7324 28.1212 64.7938 28.2878C64.8552 28.4544 64.9079 28.6298 64.943 28.7964C64.978 28.9718 65.0044 29.1559 65.0131 29.3401H65.2587V30.2959H64.9342C64.8552 30.6466 64.7061 30.9886 64.5044 31.2867C64.3026 31.5761 64.057 31.8392 63.7763 32.0584C63.4869 32.2776 63.1711 32.4617 62.8378 32.602C62.4957 32.7423 62.1273 32.8476 61.7588 32.9089L61.5396 31.9707ZM63.2237 27.8757C63.1448 27.8757 63.0746 27.9108 63.0132 27.9546C62.9342 28.016 62.8641 28.0861 62.8114 28.1651C62.75 28.2527 62.6974 28.3492 62.6535 28.4457C62.6185 28.5421 62.5922 28.6473 62.5922 28.7526C62.5922 28.849 62.6097 28.9367 62.6623 29.0156C62.715 29.0858 62.7764 29.1384 62.8465 29.1822C62.9255 29.2261 63.0132 29.2611 63.1009 29.2787C63.1974 29.2962 63.2939 29.3138 63.3816 29.3225C63.4342 29.3313 63.4869 29.3313 63.557 29.3313L63.75 29.3401C63.8202 29.3401 63.8816 29.3401 63.943 29.3401H64.1272C64.1184 29.2348 64.1009 29.1384 64.0746 29.0419C64.0132 28.8139 63.9254 28.6035 63.8114 28.4018C63.7588 28.3054 63.6974 28.2177 63.6272 28.13C63.5658 28.0598 63.5044 27.9985 63.4255 27.9371C63.3728 27.902 63.3027 27.8757 63.2237 27.8757Z" fill="#1C2328"/>
<path d="M65.18 29.3404C65.3467 29.3404 65.5046 29.3054 65.6537 29.2352C65.7853 29.1651 65.9081 29.0774 66.0133 28.9721C66.1186 28.8581 66.2063 28.7354 66.2853 28.6039C66.3642 28.4636 66.4344 28.332 66.5045 28.1917C66.5747 28.0514 66.6537 27.9024 66.7326 27.7621C66.8116 27.6218 66.908 27.499 67.0133 27.385C67.1186 27.271 67.2326 27.1833 67.373 27.1132C67.5133 27.043 67.68 26.9992 67.8379 27.0079C67.987 27.0079 68.1361 27.0343 68.2764 27.0781C68.408 27.1219 68.5308 27.1921 68.6361 27.2798C68.7413 27.3675 68.8378 27.4639 68.9168 27.5779C68.9957 27.6919 69.0659 27.8147 69.1185 27.9462C69.1711 28.0777 69.2062 28.2093 69.2325 28.3496C69.2589 28.4899 69.2676 28.6214 69.2676 28.7617C69.2676 28.8845 69.2589 29.0072 69.2325 29.13C69.215 29.244 69.1799 29.3667 69.1361 29.4807C69.0922 29.5947 69.0308 29.7087 68.9519 29.8052C68.8729 29.9016 68.7852 29.9805 68.6887 30.0507C68.5922 30.1208 68.487 30.1735 68.3729 30.2085C68.2589 30.2436 68.1449 30.2611 68.0221 30.2611C67.908 30.2611 67.8028 30.2436 67.6887 30.2173C67.5659 30.191 67.4519 30.1559 67.3379 30.1121C67.2852 30.0945 67.2238 30.0595 67.1624 30.0332C67.101 30.0069 67.0309 29.9718 66.9694 29.9279C66.908 29.8841 66.8379 29.849 66.7677 29.8139C66.6975 29.7789 66.6449 29.735 66.5835 29.6912C66.3993 29.8753 66.1888 30.0244 65.9519 30.1384C65.7063 30.2436 65.4432 30.2962 65.1712 30.2962H65.1011V29.3404H65.18V29.3404ZM67.1537 28.902C67.2238 28.9458 67.3028 28.9984 67.408 29.0511C67.5133 29.1037 67.6186 29.1563 67.7238 29.2001C67.8291 29.244 67.9343 29.2791 68.0484 29.3054C68.101 29.3229 68.1536 29.3229 68.215 29.3229C68.2501 29.3229 68.2852 29.3141 68.3203 29.3054C68.3466 29.2966 68.3817 29.2791 68.3992 29.2615C68.4343 29.2352 68.4606 29.1914 68.4782 29.1563C68.5045 29.1037 68.522 29.0511 68.5396 28.9985C68.5484 28.9458 68.5571 28.8932 68.5571 28.8318V28.7968C68.5571 28.5688 68.4782 28.3408 68.3378 28.1567C68.2764 28.069 68.1887 28.0076 68.101 27.955C68.0396 27.9287 67.9694 27.9111 67.8993 27.9111C67.8642 27.9111 67.8291 27.9111 67.794 27.9199C67.7589 27.9287 67.7238 27.9462 67.6887 27.9813C67.6449 28.0251 67.601 28.0777 67.5659 28.1391C67.5221 28.2093 67.4607 28.3145 67.3993 28.4285C67.3379 28.5425 67.2414 28.7179 67.1537 28.902Z" fill="#1C2328"/>
</g>
<defs>
<clipPath id="clip0_1614_1671">
<rect width="115.556" height="40" fill="white"/>
</clipPath>
</defs>
</svg>
