<svg width="115" height="40" viewBox="0 0 115 40" fill="none" xmlns="http://www.w3.org/2000/svg">
<g clip-path="url(#clip0_1261_8062)">
<path d="M103.966 0.140137L94.6429 14.1701L90.8543 9.92601C89.0822 8.19858 87.1966 8.25119 85.5817 8.29503L81.1558 8.48794C80.8852 8.49671 80.667 8.7247 80.6757 8.99653C80.6757 9.08421 80.7019 9.16313 80.7455 9.23328L89.1346 22.4477L81.3566 34.1627L77.0093 34.1276L77.018 4.68233C77.018 2.20078 79.0258 0.18398 81.4963 0.175212L103.966 0.140137Z" fill="#1C2328"/>
<path d="M114.86 35.3904C114.86 37.8807 112.853 39.8975 110.373 39.8975L88.0083 39.9063L94.2761 30.5326L95.9347 33.1369L111.587 33.1544L100.692 20.9571L100.867 20.7028L110.592 6.06787H114.852L114.86 35.3904Z" fill="#1C2328"/>
<path d="M7.99355 12.1795V19.6767H5.98576V12.6004L0.102051 2.62158H2.363L7.99355 12.1795ZM8.76175 11.0658L7.70548 9.24196L11.6425 2.63035H13.8773L8.76175 11.0658Z" fill="#1C2328"/>
<path d="M21.1052 14.5296H18.6085C16.8277 14.5296 15.9373 15.1346 15.9373 16.3359C15.9373 16.9936 16.1905 17.4846 16.6968 17.8091C17.2031 18.1335 17.8403 18.3001 18.6085 18.3001C19.4117 18.3001 20.2497 18.0634 21.1052 17.5811V19.2121C20.3195 19.7119 19.3418 19.9574 18.1721 19.9574C16.9761 19.9574 15.9635 19.633 15.1342 18.9929C14.3049 18.3527 13.9033 17.4934 13.9033 16.4236C13.9033 15.3714 14.3136 14.5296 15.1342 13.8807C15.9548 13.2318 17.0547 12.9161 18.4252 12.9161H21.0965L21.1052 14.5296ZM23.0082 8.12842C23.8986 9.00529 24.3438 10.268 24.3438 11.9253V19.6768H22.3622V11.8288C22.3622 10.7941 22.0916 10.0049 21.5504 9.46127C21.0092 8.91761 20.2671 8.64578 19.3244 8.64578C17.9189 8.64578 16.7055 9.32097 15.6754 10.6626L14.366 9.57526C15.5183 7.73383 17.2118 6.81312 19.4553 6.81312C20.9393 6.80435 22.1178 7.24278 23.0082 8.12842Z" fill="#1C2328"/>
<path d="M28.5342 0.297852H30.5158V19.6767H28.5342V0.297852ZM31.7728 19.0015V17.011C32.7855 17.7476 33.8417 18.1246 34.9329 18.1246C36.1638 18.1246 37.2026 17.6774 38.0319 16.7655C38.8612 15.8535 39.2802 14.7311 39.2802 13.372C39.2802 12.0128 38.8612 10.8817 38.0319 9.98727C37.2026 9.09286 36.1638 8.64566 34.9329 8.64566C33.833 8.64566 32.7855 9.01395 31.7728 9.75929V7.76879C32.7855 7.14621 33.9552 6.813 35.1424 6.813C36.9058 6.813 38.3811 7.44435 39.5508 8.69827C40.7206 9.9522 41.3142 11.513 41.3142 13.372C41.3142 15.231 40.7293 16.7918 39.5508 18.0632C38.3724 19.3347 36.9058 19.9573 35.1424 19.9573C33.9465 19.9661 32.7767 19.6328 31.7728 19.0015Z" fill="#1C2328"/>
<path d="M47.285 12.232H53.9631C53.9456 11.1096 53.579 10.2328 52.8719 9.58388C52.1648 8.935 51.2831 8.61055 50.2356 8.61055C49.0047 8.61055 47.9746 9.05776 47.1453 9.95217C46.3248 10.8466 45.9145 11.9865 45.9145 13.3632C45.9145 14.775 46.3509 15.9237 47.2152 16.8005C48.0794 17.6774 49.188 18.1158 50.5499 18.1158C51.9728 18.1158 53.2473 17.5459 54.3821 16.4147L55.5431 17.7563C54.1726 19.2207 52.4965 19.9485 50.5324 19.9485C48.6468 19.9485 47.0668 19.3171 45.801 18.0632C44.5352 16.8093 43.8979 15.2485 43.8979 13.3895C43.8979 11.5481 44.5177 9.98724 45.7486 8.71578C46.9795 7.44432 48.4984 6.8042 50.2967 6.8042C51.9291 6.8042 53.2822 7.33909 54.3734 8.40887C55.4646 9.47866 56.0058 10.8378 56.0058 12.4863C56.0058 12.9861 55.9534 13.4947 55.8487 13.9858H47.285V12.232Z" fill="#1C2328"/>
<path d="M61.4708 14.1964L62.5794 15.7748L59.8558 19.6768H57.5425L61.4708 14.1964ZM57.9266 7.09375H60.2137L69.2662 19.6768H66.9791L57.9266 7.09375ZM64.2031 10.5048L66.6212 7.09375H68.9083L65.3118 12.0568L64.2031 10.5048Z" fill="#1C2328"/>
<path d="M3.79458 30.2957H3.6811C3.60253 30.2957 3.51524 30.2869 3.43667 30.2694C3.32319 30.2431 3.20971 30.1992 3.11368 30.1378C3.07876 30.4535 2.98274 30.7604 2.82561 31.041C2.65974 31.3304 2.45897 31.6022 2.232 31.8477C1.98757 32.102 1.71696 32.33 1.42888 32.5317C1.14081 32.7334 0.826543 32.9175 0.512279 33.0754L0.0932617 32.216C0.267852 32.1283 0.442443 32.0319 0.617034 31.9267C0.791624 31.8214 0.957486 31.7162 1.11462 31.5934C1.27175 31.4794 1.42015 31.3567 1.55982 31.2252C1.69077 31.1024 1.81298 30.9621 1.91773 30.8218C2.01376 30.6903 2.09233 30.5412 2.15343 30.3834C2.21454 30.2343 2.24073 30.0852 2.24073 29.9274C2.24073 29.8046 2.22327 29.6819 2.18835 29.5591C2.15343 29.4276 2.11851 29.2873 2.06614 29.1382C2.01376 28.9891 1.96138 28.8401 1.90901 28.691C1.8479 28.5419 1.80425 28.3929 1.75187 28.2526L2.64229 27.8843C2.73831 28.1736 2.82561 28.4192 2.90417 28.6033C2.96528 28.7611 3.04384 28.9102 3.13987 29.0505C3.20098 29.147 3.28827 29.2259 3.3843 29.2785C3.47159 29.3223 3.57635 29.3487 3.67237 29.3399H3.78585V30.2957H3.79458Z" fill="#1C2328"/>
<path d="M3.64637 29.3399H4.20506C4.34473 29.3399 4.47567 29.3311 4.60661 29.3223C4.54551 29.2785 4.49313 29.2347 4.44075 29.182C4.37965 29.1119 4.31854 29.0417 4.27489 28.9628C4.22251 28.8751 4.17887 28.7787 4.14395 28.6822C4.10903 28.5682 4.08284 28.4542 4.08284 28.3315C4.08284 28.2964 4.08284 28.2701 4.08284 28.235C4.08284 28.121 4.1003 28.007 4.12649 27.893C4.16141 27.7615 4.20506 27.63 4.26616 27.5072C4.336 27.3757 4.41456 27.2529 4.50186 27.1389C4.58915 27.0249 4.69391 26.9285 4.81612 26.8408C4.92961 26.7531 5.05182 26.6917 5.18276 26.6391C5.29625 26.5953 5.41846 26.5777 5.54067 26.5777H5.58432C5.77637 26.5865 5.96842 26.6391 6.14301 26.7356C6.30887 26.832 6.466 26.9548 6.58822 27.1039C6.71916 27.2617 6.81518 27.4283 6.88502 27.6212C6.95486 27.8141 6.98978 28.007 6.98978 28.2087C6.98978 28.4016 6.95486 28.5945 6.88502 28.7699C6.81518 28.9453 6.72789 29.1207 6.6144 29.2785C6.73662 29.296 6.85883 29.3136 6.9985 29.3223C7.13818 29.3311 7.26912 29.3399 7.40006 29.3399H7.49609V30.2957H7.41752C7.22547 30.2957 7.04215 30.2957 6.86756 30.2869C6.7017 30.2781 6.53584 30.2694 6.36998 30.2431C6.22158 30.2255 6.07317 30.1904 5.9335 30.1466C5.80256 30.1115 5.68907 30.0501 5.57559 29.98C5.47957 30.0414 5.37481 30.094 5.26133 30.1203C5.11293 30.1641 4.95579 30.1992 4.79866 30.2168C4.6328 30.2431 4.44948 30.2606 4.25743 30.2781C4.06538 30.2869 3.88206 30.2957 3.70747 30.2957H3.62891L3.64637 29.3399ZM6.25649 25.2274L5.5494 25.9464L4.84231 25.2274L5.5494 24.5171L6.25649 25.2274ZM5.57559 27.516C5.49703 27.5335 5.42719 27.5598 5.35735 27.5949C5.17403 27.6826 5.02563 27.8229 4.93834 28.007C4.88596 28.1123 4.85977 28.235 4.85977 28.3578C4.8685 28.4192 4.88596 28.4805 4.92088 28.5332C4.96452 28.6121 5.02563 28.6822 5.08674 28.7436C5.15657 28.8138 5.23514 28.8839 5.32244 28.9365C5.40973 28.9979 5.49703 29.0417 5.59305 29.0681C5.67162 29.033 5.74145 28.9804 5.81129 28.919C5.88112 28.8576 5.94223 28.7962 5.99461 28.7261C6.04699 28.6559 6.09063 28.5858 6.12555 28.5069C6.16047 28.4367 6.17793 28.3666 6.17793 28.2876C6.17793 28.1912 6.16047 28.0947 6.11682 28.007C6.07317 27.9193 6.02953 27.8404 5.95969 27.7703C5.89858 27.7001 5.83748 27.6475 5.75891 27.5949C5.71526 27.5598 5.64543 27.5335 5.57559 27.516Z" fill="#1C2328"/>
<path d="M7.50473 29.3402C7.63567 29.3402 7.75788 29.3139 7.87137 29.2525C7.98485 29.1911 8.08088 29.1122 8.15944 29.0157C8.24674 28.9105 8.31658 28.7965 8.37768 28.6737C8.43879 28.551 8.4999 28.4195 8.54354 28.2792C8.58719 28.1476 8.63084 28.0161 8.66576 27.8846C8.70068 27.753 8.73559 27.639 8.76178 27.5338L9.68711 27.7355C9.66092 27.8056 9.63474 27.8933 9.59982 27.9986C9.5649 28.1038 9.52998 28.2178 9.49506 28.3405C9.46014 28.4633 9.43396 28.5861 9.40777 28.7001C9.39031 28.7877 9.38158 28.8754 9.39031 28.9631C9.39031 28.9894 9.39031 29.0333 9.39904 29.0946C9.40777 29.1648 9.43396 29.2262 9.4776 29.2788C9.52998 29.3402 9.61728 29.3752 9.70457 29.3665C9.80933 29.3665 9.91408 29.3314 10.0014 29.27C10.0974 29.1999 10.176 29.1209 10.2371 29.0245C10.3156 28.9105 10.3767 28.7965 10.4204 28.6737C10.4728 28.5422 10.5164 28.4107 10.5601 28.2704C10.595 28.1301 10.6299 27.9986 10.6561 27.867C10.6823 27.7355 10.6997 27.6215 10.7172 27.5163L11.5814 27.6829C11.5727 27.7443 11.564 27.8144 11.5465 27.8933C11.529 27.9722 11.5203 28.0687 11.5029 28.1564C11.4854 28.2441 11.4767 28.3493 11.4592 28.4545C11.4418 28.5598 11.433 28.665 11.4243 28.7702V28.8316C11.4243 28.893 11.433 28.9543 11.4418 29.0157C11.4592 29.0771 11.4854 29.1385 11.5203 29.1911C11.564 29.2437 11.6163 29.2963 11.6774 29.3226C11.7473 29.3577 11.8346 29.3752 11.9131 29.3752C12.0703 29.384 12.2187 29.3314 12.3409 29.2437C12.4544 29.1385 12.5242 28.9894 12.5068 28.8316C12.5068 28.6825 12.4893 28.5334 12.4544 28.3931C12.4195 28.2353 12.3758 28.0862 12.3234 27.9372C12.2711 27.7881 12.2187 27.6478 12.1576 27.5163C12.1052 27.3847 12.0528 27.2708 12.0092 27.1918L12.8036 26.7446C12.821 26.7709 12.8385 26.8235 12.8734 26.8937C12.9083 26.9638 12.9432 27.0515 12.9869 27.1568C13.0305 27.262 13.0742 27.376 13.1178 27.5075C13.1615 27.639 13.2051 27.7793 13.24 27.9196C13.275 28.0687 13.3099 28.2178 13.3361 28.3668C13.3622 28.5159 13.371 28.665 13.371 28.814C13.371 29.0245 13.3361 29.2437 13.2662 29.4366C13.1964 29.6208 13.0916 29.7961 12.952 29.9277C12.8036 30.068 12.6377 30.1644 12.4456 30.2258C12.2361 30.296 12.0092 30.331 11.7822 30.331H11.7298C11.6251 30.331 11.5116 30.3135 11.4156 30.2872C11.3195 30.2609 11.2322 30.217 11.1537 30.1557C11.0751 30.103 11.0053 30.0329 10.9354 29.9627C10.8743 29.8926 10.8132 29.8224 10.7608 29.7523C10.7085 29.8312 10.6386 29.9101 10.5775 29.9803C10.5077 30.0504 10.4291 30.1118 10.3506 30.1644C10.2545 30.217 10.1585 30.2609 10.0538 30.2872C9.93154 30.3223 9.8006 30.3398 9.66965 30.3398H9.64347C9.53871 30.3398 9.43396 30.3223 9.33793 30.296C9.24191 30.2697 9.15461 30.2258 9.07605 30.1732C8.99748 30.1206 8.91891 30.0592 8.85781 29.9891C8.7967 29.9189 8.73559 29.84 8.67449 29.7611C8.62211 29.8312 8.56973 29.9014 8.50863 29.9627C8.43879 30.0329 8.36022 30.0943 8.2642 30.1381C8.15944 30.1907 8.04596 30.2346 7.92375 30.2609C7.77534 30.296 7.62694 30.3047 7.46981 30.3047H7.33887V29.3402H7.50473Z" fill="#1C2328"/>
<path d="M21.2537 26.9726C21.3671 26.9462 21.4806 26.9287 21.5941 26.9287C21.629 26.9287 21.6552 26.9287 21.6901 26.9287C21.7774 26.9287 21.8735 26.9375 21.9607 26.9462C22.179 26.9813 22.3972 27.0427 22.5893 27.1479L22.2488 28.0423C22.1179 27.9897 21.9869 27.9459 21.8473 27.9283C21.7862 27.9196 21.7338 27.9196 21.6727 27.9196C21.5941 27.9196 21.5068 27.9283 21.4282 27.9371C21.3322 27.9459 21.2449 27.9722 21.1576 28.0073C21.0529 28.0511 20.9569 28.1037 20.8696 28.1651C20.7735 28.2352 20.6775 28.3054 20.5989 28.3931C20.5116 28.472 20.4331 28.5685 20.3632 28.6649C20.3021 28.7526 20.241 28.8578 20.2061 28.963C20.1712 29.0595 20.145 29.156 20.145 29.2524C20.1363 29.3401 20.1625 29.4278 20.2236 29.5067C20.2759 29.5681 20.3458 29.6207 20.4244 29.6558C20.5204 29.6909 20.6164 29.7259 20.7212 29.7435C20.8346 29.7698 20.9481 29.7961 21.0703 29.8312C21.2187 29.8662 21.3671 29.9101 21.5155 29.9539C21.6552 29.9978 21.7949 30.0591 21.9258 30.1381C22.048 30.217 22.1441 30.3222 22.2139 30.445C22.2837 30.5765 22.3099 30.7168 22.3099 30.8571C22.3099 30.8834 22.3099 30.9009 22.3099 30.9272C22.3012 31.164 22.2401 31.4007 22.1353 31.62C22.0306 31.8129 21.8996 31.997 21.7338 32.1373C21.5679 32.2864 21.3759 32.4092 21.1664 32.5056C20.9481 32.6021 20.7299 32.681 20.4942 32.7424C20.2585 32.8037 20.0315 32.8476 19.7871 32.8651C19.5601 32.8914 19.3332 32.9002 19.1062 32.9002C18.7046 32.909 18.3031 32.8476 17.9102 32.7248C17.5698 32.6196 17.2643 32.4442 17.0024 32.2075C16.7492 31.9707 16.5659 31.6813 16.4611 31.3481C16.3826 31.1114 16.3477 30.8571 16.3477 30.6028C16.3477 30.4537 16.3564 30.3047 16.3738 30.1556C16.3913 29.989 16.4175 29.8224 16.4524 29.6558C16.4873 29.4892 16.5222 29.3226 16.5659 29.1647C16.6095 29.0069 16.6445 28.8578 16.6881 28.7175C16.7318 28.5772 16.7667 28.4545 16.8016 28.3492C16.8365 28.244 16.8627 28.1563 16.8889 28.0862C16.9151 28.016 16.9325 27.981 16.9325 27.9722L17.7444 28.3054C17.6833 28.4895 17.6309 28.6649 17.5785 28.8315C17.5261 28.9981 17.4825 29.156 17.4388 29.305C17.4039 29.4629 17.369 29.6207 17.3341 29.7785C17.3079 29.9364 17.273 30.103 17.2555 30.2784C17.2468 30.3573 17.2381 30.4362 17.2381 30.5151C17.2381 30.6993 17.273 30.8746 17.3428 31.0412C17.4127 31.2254 17.5349 31.3832 17.692 31.506C17.8753 31.6463 18.0761 31.7515 18.3031 31.8129C18.5562 31.883 18.8181 31.9181 19.08 31.9181C19.3855 31.9181 19.6911 31.8918 19.9966 31.8392C20.2498 31.7953 20.4942 31.7252 20.7386 31.6375C20.9219 31.5674 21.0878 31.4709 21.2362 31.3569C21.341 31.278 21.4195 31.164 21.4457 31.0325C21.4457 31.0062 21.4195 30.9886 21.3759 30.9711C21.3235 30.9448 21.2624 30.9272 21.21 30.9097C21.1402 30.8922 21.0703 30.8746 20.9918 30.8571C20.9132 30.8396 20.8346 30.822 20.7561 30.7957C20.564 30.7519 20.3632 30.6905 20.1799 30.6203C20.0141 30.559 19.8569 30.4713 19.7173 30.3573C19.5863 30.252 19.4816 30.1117 19.4117 29.9539C19.3332 29.761 19.2982 29.5506 19.2982 29.3401C19.3157 29.0683 19.3681 28.7964 19.4728 28.5422C19.6736 28.0336 20.0228 27.5951 20.4855 27.2882C20.7386 27.1392 20.9918 27.0339 21.2537 26.9726Z" fill="#1C2328"/>
<path d="M22.9731 31.9707C23.3136 31.9093 23.6366 31.8128 23.9596 31.6813C24.2302 31.5761 24.4834 31.4358 24.7191 31.278C24.9198 31.1464 25.0944 30.9886 25.2428 30.8044C25.365 30.6554 25.4611 30.48 25.5134 30.2959C25.3127 30.2959 25.1206 30.2871 24.9286 30.2783C24.7452 30.2696 24.5707 30.2432 24.3873 30.2082C24.2302 30.1731 24.0731 30.1205 23.9247 30.0591C23.785 29.9977 23.6628 29.91 23.558 29.796C23.4533 29.682 23.3747 29.5505 23.3223 29.4014C23.2612 29.2261 23.235 29.0332 23.235 28.849C23.235 28.7087 23.2525 28.5597 23.2787 28.4194C23.3049 28.2703 23.3485 28.1212 23.4096 27.9809C23.462 27.8406 23.5318 27.7003 23.6191 27.5776C23.6977 27.4548 23.7937 27.3408 23.8985 27.2356C24.0032 27.1391 24.1167 27.0602 24.2477 26.9988C24.3786 26.9374 24.5183 26.9111 24.6667 26.9111C25.0508 26.9111 25.4 27.0865 25.7142 27.4285C25.819 27.5512 25.915 27.6828 25.9936 27.8231C26.0809 27.9721 26.1507 28.1212 26.2118 28.2878C26.2729 28.4544 26.3253 28.6298 26.3602 28.7964C26.3951 28.9718 26.4213 29.1559 26.43 29.3401H26.6745V30.2959H26.3515C26.2729 30.6466 26.1245 30.9886 25.9237 31.2867C25.7229 31.5761 25.4785 31.8392 25.1992 32.0584C24.9111 32.2776 24.5968 32.4617 24.2651 32.602C23.9247 32.7423 23.558 32.8476 23.1914 32.9089L22.9731 31.9707ZM24.6579 27.8757C24.5794 27.8757 24.5095 27.9108 24.4484 27.9546C24.3699 28.016 24.3 28.0861 24.2477 28.1651C24.1866 28.2527 24.1342 28.3492 24.0905 28.4457C24.0556 28.5421 24.0294 28.6473 24.0294 28.7526C24.0294 28.849 24.0469 28.9367 24.0993 29.0156C24.1516 29.0858 24.2127 29.1384 24.2826 29.1822C24.3611 29.2261 24.4484 29.2611 24.5357 29.2787C24.6318 29.2962 24.7278 29.3138 24.8151 29.3225C24.8675 29.3313 24.9198 29.3313 24.9897 29.3313L25.1817 29.3401C25.2516 29.3401 25.3127 29.3401 25.3738 29.3401H25.5571C25.5484 29.2348 25.5309 29.1384 25.5047 29.0419C25.4436 28.8139 25.3563 28.6035 25.2428 28.4018C25.1904 28.3054 25.1293 28.2177 25.0595 28.13C24.9984 28.0598 24.9373 27.9985 24.8587 27.9371C24.8063 27.902 24.7278 27.8757 24.6579 27.8757Z" fill="#1C2328"/>
<path d="M26.5263 29.34H27.277C27.5826 29.34 27.8968 29.3137 28.1936 29.2523C28.4992 29.191 28.8047 29.112 29.1015 29.0156C29.3983 28.9191 29.6951 28.8051 29.9745 28.6824C30.2538 28.5596 30.5244 28.4368 30.7689 28.3141C30.6641 28.2965 30.5506 28.2702 30.4546 28.2352C30.3411 28.2001 30.2276 28.1475 30.1141 28.1036C30.0007 28.0598 29.8784 27.9984 29.7562 27.9458C29.634 27.8932 29.5118 27.8406 29.3896 27.788C29.2674 27.7441 29.1452 27.7003 29.0229 27.674C28.9095 27.6477 28.7873 27.6301 28.665 27.6301C28.5777 27.6301 28.4905 27.6477 28.4032 27.6827C28.3246 27.7178 28.246 27.7617 28.1675 27.8143C28.0976 27.8669 28.0278 27.9195 27.9754 27.9809C27.923 28.0335 27.8707 28.0861 27.827 28.1475C27.7834 28.2001 27.7572 28.2439 27.731 28.279L27.6961 28.3316L26.9541 27.9283C27.0413 27.7617 27.1548 27.6038 27.2858 27.4548C27.4167 27.3057 27.5651 27.1742 27.7223 27.0602C27.8707 26.9462 28.0278 26.8585 28.2024 26.7883C28.3508 26.7269 28.5166 26.6919 28.6738 26.6831C28.8047 26.6831 28.9269 26.7006 29.0491 26.7269C29.1801 26.7533 29.311 26.7971 29.4332 26.8409C29.5642 26.8848 29.6951 26.9462 29.8261 26.9988L30.2364 27.1829C30.376 27.2531 30.5332 27.3232 30.7077 27.3934C30.8823 27.4635 31.0569 27.5249 31.2315 27.5775C31.4061 27.6301 31.5894 27.674 31.7727 27.709C31.9473 27.7441 32.1219 27.7617 32.2965 27.7617L32.1394 28.6736C32.0434 28.7174 31.9561 28.7525 31.8688 28.8051C31.7815 28.8577 31.6942 28.8928 31.5982 28.9367C31.6505 29.0419 31.7204 29.1208 31.8164 29.1822C31.9124 29.2436 32.0172 29.2874 32.1307 29.3137C32.2354 29.34 32.3402 29.3576 32.4537 29.3663C32.5584 29.3751 32.637 29.3751 32.6981 29.3751H32.8465V30.3309H32.6981C32.2703 30.3396 31.8513 30.2607 31.4672 30.0766C31.153 29.9275 30.8911 29.6732 30.7427 29.3576C30.4895 29.4803 30.2364 29.6031 29.9657 29.7171C29.6951 29.8311 29.4158 29.9363 29.1364 30.024C28.8396 30.1117 28.5428 30.1906 28.2373 30.2432C27.9143 30.2958 27.5913 30.3221 27.2683 30.3221H26.5176L26.5263 29.34ZM30.2975 31.5059L29.5816 32.2249L28.8745 31.5059L29.5816 30.7956L30.2975 31.5059Z" fill="#1C2328"/>
<path d="M36.0155 29.34V30.2957H35.937C35.7274 30.3045 35.5179 30.2607 35.3259 30.1818C35.1688 30.1116 35.0204 30.0064 34.9069 29.8836C34.8108 29.9976 34.6886 30.0765 34.549 30.1204C34.3744 30.1818 34.1998 30.2168 34.0165 30.2431C33.8157 30.2694 33.6149 30.287 33.4141 30.287C33.2046 30.287 33.0213 30.2957 32.8467 30.2957H32.707V29.34H32.8467C33.0911 29.34 33.3356 29.3224 33.58 29.2873C33.7458 29.261 33.9117 29.2172 34.0601 29.1383C34.1736 29.0857 34.2609 28.998 34.322 28.8928C34.3744 28.7875 34.4093 28.6735 34.4006 28.5508C34.4006 28.4368 34.3831 28.3228 34.3482 28.2176C34.3133 28.0773 34.2696 27.8931 34.1998 27.6739L35.1164 27.4196C35.1513 27.5248 35.1775 27.6213 35.1949 27.709C35.2124 27.7967 35.2299 27.8756 35.2386 27.9545C35.2473 28.0334 35.256 28.1299 35.2648 28.2263C35.2735 28.3228 35.2822 28.4368 35.291 28.5683C35.2997 28.656 35.3172 28.7437 35.3433 28.8226C35.3695 28.9103 35.4132 28.998 35.4656 29.0681C35.5179 29.147 35.5878 29.2084 35.6576 29.261C35.7362 29.3137 35.8322 29.34 35.9282 29.34H36.0155ZM34.3656 26.0429L33.7371 26.6743L33.0999 26.0342L33.7284 25.394L34.3656 26.0429ZM35.7711 26.0429L35.1426 26.683L34.5053 26.0429L35.1338 25.4116L35.7711 26.0429Z" fill="#1C2328"/>
<path d="M36.0239 29.3401C36.1461 29.3401 36.2683 29.3138 36.3818 29.2611C36.5127 29.1998 36.6175 29.1033 36.7048 28.9893C36.827 28.8227 36.923 28.6386 36.9929 28.4457C37.0976 28.1563 37.1849 27.8582 37.2548 27.56L38.1626 27.8143C38.1015 28.016 38.0491 28.2177 38.0055 28.4106C37.9618 28.5684 37.9357 28.735 37.9269 28.9016V28.9367C37.9269 28.9805 37.9357 29.0332 37.9444 29.077C37.9531 29.1208 37.9706 29.1735 37.988 29.2173C38.0055 29.2611 38.0404 29.2962 38.0753 29.3225C38.1102 29.3488 38.1539 29.3576 38.1888 29.3576H38.2063C38.3023 29.3576 38.3983 29.3225 38.4682 29.2611C38.5555 29.191 38.634 29.1033 38.6951 29.0156C38.7737 28.9016 38.8348 28.7876 38.8872 28.6649C38.9483 28.5333 39.0007 28.4018 39.0443 28.2703C39.088 28.1388 39.1316 28.0072 39.1578 27.8845C39.184 27.7617 39.2189 27.6477 39.2276 27.5512L40.1006 27.7266C40.0657 27.8757 40.0395 28.016 40.022 28.1388C40.0046 28.2615 39.9871 28.393 39.9871 28.5158C39.9871 28.5509 39.9871 28.5772 39.9871 28.6123C39.9871 28.6824 39.9958 28.7613 40.0046 28.8315C40.0133 28.9192 40.0307 28.9981 40.0657 29.077C40.0918 29.1559 40.1442 29.2173 40.1966 29.2699C40.2577 29.3225 40.345 29.3488 40.4236 29.3488C40.5283 29.3488 40.6244 29.305 40.6855 29.2261C40.7553 29.1296 40.8077 29.0244 40.8339 28.9104C40.8688 28.7701 40.895 28.621 40.9037 28.4807C40.9124 28.3229 40.9212 28.1738 40.9212 28.0248C40.9212 27.9809 40.9212 27.9371 40.9212 27.9108C40.9212 27.8845 40.9212 27.8582 40.9212 27.8318C40.9212 27.8055 40.9212 27.7792 40.9212 27.7442C40.9212 27.7091 40.9212 27.674 40.9212 27.6126L41.8552 27.5425C41.8639 27.6214 41.8727 27.7003 41.8814 27.7792C41.8901 27.8582 41.8989 27.9371 41.8989 28.0248C41.8989 28.1124 41.9163 28.2001 41.9251 28.2878C41.9338 28.3755 41.9512 28.4807 41.9687 28.5947C41.9862 28.7175 42.0211 28.8315 42.0735 28.9367C42.1258 29.0244 42.1869 29.1121 42.2655 29.1822C42.3353 29.2436 42.4139 29.2962 42.5012 29.3313C42.5798 29.3664 42.6583 29.3751 42.7456 29.3751H42.8853V30.3309H42.7544C42.6321 30.3309 42.5099 30.3222 42.3964 30.2959C42.283 30.2695 42.1695 30.2345 42.0647 30.1819C41.96 30.1292 41.8552 30.0591 41.7679 29.9802C41.6719 29.8925 41.5933 29.796 41.5235 29.6908C41.41 29.8837 41.2441 30.0416 41.0608 30.1556C40.668 30.3835 40.1879 30.3923 39.795 30.1643C39.6117 30.0591 39.4546 29.9013 39.3411 29.7171C39.2713 29.8048 39.1927 29.8925 39.1054 29.9714C39.0268 30.0503 38.9396 30.1117 38.8435 30.1643C38.7475 30.2169 38.6427 30.2608 38.538 30.2959C38.4332 30.3309 38.3198 30.3397 38.2063 30.3397C38.1015 30.3397 37.988 30.3222 37.8833 30.2959C37.6825 30.2432 37.4992 30.1292 37.3508 29.9714C37.2809 29.8925 37.2198 29.8048 37.1762 29.7083C37.0714 29.91 36.9143 30.0679 36.7223 30.1819C36.504 30.2871 36.2683 30.3397 36.0326 30.3309H35.8755V29.3927H36.0239V29.3401Z" fill="#1C2328"/>
<path d="M42.7284 29.3399H43.5315C43.8458 29.3399 44.16 29.3136 44.4656 29.2523C44.7886 29.1909 45.1028 29.1207 45.4084 29.0243C45.7226 28.9278 46.0282 28.8226 46.325 28.6911C46.6218 28.5595 46.9098 28.4368 47.1717 28.3052C46.971 28.2614 46.7702 28.2 46.5781 28.1123C46.3948 28.0334 46.2202 27.9545 46.0631 27.8843C45.8972 27.8054 45.7401 27.744 45.5917 27.6914C45.452 27.6388 45.2949 27.6125 45.1465 27.6125C45.0592 27.6125 44.9806 27.63 44.9021 27.6563C44.8322 27.6827 44.7536 27.7265 44.6925 27.7703C44.6314 27.8142 44.5703 27.8668 44.518 27.9282C44.4743 27.9808 44.4219 28.0334 44.387 28.0948C44.3521 28.1474 44.3172 28.2 44.291 28.2351L44.2386 28.3228L43.4704 27.823C43.5577 27.6651 43.6537 27.5248 43.7672 27.3845C43.8807 27.2442 44.0116 27.1215 44.1513 27.0075C44.291 26.9022 44.4481 26.8058 44.614 26.7444C44.7798 26.6743 44.9544 26.6479 45.1378 26.6479C45.3298 26.6479 45.5219 26.6743 45.7052 26.7269C45.8972 26.7795 46.0805 26.8409 46.2639 26.9198C46.4472 26.9987 46.6305 27.0864 46.8138 27.1741C46.9971 27.2618 47.1892 27.3494 47.3725 27.4284C47.5558 27.5073 47.7479 27.5687 47.9487 27.6213C48.1407 27.6739 48.3415 27.709 48.5423 27.709L48.4637 28.6735C48.1145 28.8401 47.7566 29.0155 47.3812 29.1996C47.0059 29.3838 46.613 29.5592 46.2028 29.717C45.7837 29.8748 45.356 30.0151 44.9195 30.1116C44.4568 30.2168 43.9854 30.2782 43.5141 30.287H42.7109L42.7284 29.3399ZM46.4996 31.497L45.7837 32.2073L45.0766 31.497L45.7837 30.7868L46.4996 31.497Z" fill="#1C2328"/>
<path d="M53.3345 27.814L53.4916 28.305C53.544 28.4716 53.5964 28.647 53.64 28.8224C53.6837 28.9977 53.7186 29.1731 53.7448 29.3397C53.771 29.5063 53.7884 29.6729 53.7884 29.8483C53.7884 30.0675 53.7535 30.2867 53.6837 30.506C53.6138 30.7252 53.5178 30.9269 53.4043 31.1198C53.2821 31.3214 53.1337 31.5144 52.9766 31.681C52.8107 31.8651 52.6274 32.0317 52.4441 32.1896C52.252 32.3474 52.0425 32.4965 51.833 32.6368C51.6235 32.7683 51.4053 32.891 51.1783 33.005L50.7593 32.1545C50.9339 32.0668 51.1085 31.9703 51.283 31.8651C51.4489 31.7599 51.6148 31.6459 51.7719 31.5319C51.9203 31.4179 52.0687 31.2864 52.1996 31.1548C52.3306 31.0321 52.4441 30.8918 52.5401 30.7427C52.6361 30.6024 52.706 30.4621 52.7671 30.3043C52.8194 30.164 52.8456 30.0061 52.8456 29.8571C52.8456 29.708 52.8282 29.5589 52.802 29.4099C52.7671 29.252 52.7322 29.103 52.6885 28.9451C52.6449 28.7873 52.5925 28.647 52.5488 28.5067C52.5052 28.3664 52.4615 28.2436 52.4266 28.1296L53.3345 27.814Z" fill="#1C2328"/>
<path d="M54.2515 31.9707C54.5919 31.9093 54.9149 31.8128 55.2379 31.6813C55.5085 31.5761 55.7617 31.4358 55.9974 31.278C56.1981 31.1464 56.3727 30.9886 56.5211 30.8044C56.6434 30.6554 56.7394 30.48 56.7918 30.2959C56.591 30.2959 56.3989 30.2871 56.2069 30.2783C56.0236 30.2696 55.849 30.2432 55.6656 30.2082C55.5085 30.1731 55.3514 30.1205 55.203 30.0591C55.0633 29.9977 54.9411 29.91 54.8363 29.796C54.7316 29.682 54.653 29.5505 54.6006 29.4014C54.5395 29.2261 54.5134 29.0332 54.5134 28.849C54.5134 28.7087 54.5308 28.5597 54.557 28.4194C54.5832 28.2703 54.6268 28.1212 54.6879 27.9809C54.7403 27.8406 54.8102 27.7003 54.8975 27.5776C54.976 27.4548 55.072 27.3408 55.1768 27.2356C55.2816 27.1391 55.395 27.0602 55.526 26.9988C55.6569 26.9374 55.7966 26.9111 55.945 26.9111C56.3291 26.9111 56.6783 27.0865 56.9925 27.4285C57.0973 27.5512 57.1933 27.6828 57.2719 27.8231C57.3592 27.9721 57.429 28.1212 57.4901 28.2878C57.5512 28.4544 57.6036 28.6298 57.6385 28.7964C57.6734 28.9718 57.6996 29.1559 57.7084 29.3401H57.9528V30.2959H57.6298C57.5512 30.6466 57.4028 30.9886 57.202 31.2867C57.0013 31.5761 56.7568 31.8392 56.4775 32.0584C56.1894 32.2776 55.8752 32.4617 55.5434 32.602C55.203 32.7423 54.8363 32.8476 54.4697 32.9089L54.2515 31.9707ZM55.9275 27.8757C55.849 27.8845 55.7791 27.9108 55.718 27.9546C55.6395 28.016 55.5696 28.0861 55.5172 28.1651C55.4561 28.2527 55.4038 28.3492 55.3601 28.4457C55.3252 28.5421 55.299 28.6473 55.299 28.7526C55.299 28.849 55.3165 28.9367 55.3688 29.0156C55.4212 29.0858 55.4823 29.1384 55.5522 29.1822C55.6307 29.2261 55.718 29.2611 55.8053 29.2787C55.9013 29.2962 55.9974 29.3138 56.0847 29.3225C56.137 29.3313 56.1894 29.3313 56.2593 29.3313L56.4513 29.3401C56.5211 29.3401 56.5822 29.3401 56.6434 29.3401H56.8267C56.8179 29.2348 56.8005 29.1384 56.7743 29.0419C56.7481 28.9279 56.7045 28.8227 56.6695 28.7175C56.6259 28.6123 56.5735 28.507 56.5211 28.4018C56.4688 28.3054 56.4077 28.2177 56.3378 28.13C56.2767 28.0598 56.2069 27.9985 56.137 27.9371C56.0759 27.902 56.0061 27.8757 55.9275 27.8757Z" fill="#1C2328"/>
<path d="M57.8041 29.3401H58.5898C58.7033 29.3401 58.8342 29.3313 58.9652 29.3226C59.0961 29.3138 59.2183 29.2787 59.3405 29.2349C59.4453 29.1998 59.55 29.1296 59.6286 29.0507C59.7072 28.963 59.7508 28.8403 59.7421 28.7263C59.7421 28.6386 59.7246 28.5421 59.6984 28.4545C59.6723 28.3405 59.6373 28.2089 59.5937 28.0686C59.55 27.9283 59.4977 27.7793 59.4366 27.6302C59.3754 27.4811 59.3143 27.3408 59.2445 27.2093L60.1 26.7884C60.1611 26.9287 60.2222 27.0778 60.2833 27.2356C60.3444 27.3934 60.3968 27.5601 60.4492 27.7267C60.4928 27.8933 60.5365 28.0599 60.5627 28.2352C60.5888 28.4018 60.6063 28.5685 60.6063 28.7351C60.615 28.9894 60.5627 29.2436 60.4492 29.4716C60.3444 29.6645 60.196 29.8399 60.0127 29.9627C59.8207 30.0942 59.5937 30.1819 59.3667 30.2345C59.1048 30.2959 58.8429 30.3222 58.5811 30.3222H57.7954L57.8041 29.3401ZM59.4627 25.4643L58.8342 26.0957L58.197 25.4643L58.8255 24.8242L59.4627 25.4643ZM60.8595 25.4643L60.2309 26.1044L59.5937 25.4643L60.2222 24.833L60.8595 25.4643Z" fill="#1C2328"/>
<path d="M61.2437 31.9707C61.5841 31.9093 61.9071 31.8128 62.2301 31.6813C62.5007 31.5761 62.7539 31.4358 62.9896 31.278C63.1903 31.1464 63.3649 30.9886 63.5133 30.8044C63.6355 30.6554 63.7316 30.48 63.7839 30.2959C63.5832 30.2959 63.3911 30.2871 63.1991 30.2783C63.0157 30.2696 62.8411 30.2432 62.6578 30.2082C62.5007 30.1731 62.3436 30.1205 62.1952 30.0591C62.0555 29.9977 61.9333 29.91 61.8285 29.796C61.7238 29.682 61.6452 29.5505 61.5928 29.4014C61.5317 29.2261 61.5055 29.0332 61.5055 28.849C61.5055 28.7087 61.523 28.5597 61.5492 28.4194C61.5754 28.2703 61.619 28.1212 61.6801 27.9809C61.7325 27.8406 61.8023 27.7003 61.8896 27.5776C61.9682 27.4548 62.0642 27.3408 62.169 27.2356C62.2737 27.1391 62.3872 27.0602 62.5182 26.9988C62.6491 26.9374 62.7888 26.9111 62.9372 26.9111C63.3213 26.9111 63.6705 27.0865 63.9847 27.4285C64.0895 27.5512 64.1855 27.6828 64.2641 27.8231C64.3514 27.9721 64.4212 28.1212 64.4823 28.2878C64.5434 28.4544 64.5958 28.6298 64.6307 28.7964C64.6656 28.9718 64.6918 29.1559 64.7005 29.3401H64.945V30.2959H64.622C64.5434 30.6466 64.395 30.9886 64.1942 31.2867C63.9934 31.5761 63.749 31.8392 63.4697 32.0584C63.1816 32.2776 62.8673 32.4617 62.5356 32.602C62.1952 32.7423 61.8285 32.8476 61.4619 32.9089L61.2437 31.9707ZM62.9197 27.8757C62.8411 27.8757 62.7713 27.9108 62.7102 27.9546C62.6316 28.016 62.5618 28.0861 62.5094 28.1651C62.4483 28.2527 62.3959 28.3492 62.3523 28.4457C62.3174 28.5421 62.2912 28.6473 62.2912 28.7526C62.2912 28.849 62.3087 28.9367 62.361 29.0156C62.4134 29.0858 62.4745 29.1384 62.5443 29.1822C62.6229 29.2261 62.7102 29.2611 62.7975 29.2787C62.8935 29.2962 62.9896 29.3138 63.0768 29.3225C63.1292 29.3313 63.1816 29.3313 63.2514 29.3313L63.4435 29.3401C63.5133 29.3401 63.5744 29.3401 63.6355 29.3401H63.8189C63.8101 29.2348 63.7927 29.1384 63.7665 29.0419C63.7054 28.8139 63.6181 28.6035 63.5046 28.4018C63.4522 28.3054 63.3911 28.2177 63.3213 28.13C63.2602 28.0598 63.1991 27.9985 63.1205 27.9371C63.0681 27.902 62.9983 27.8757 62.9197 27.8757Z" fill="#1C2328"/>
<path d="M64.8667 29.3399C65.0325 29.3399 65.1896 29.3049 65.338 29.2347C65.469 29.1646 65.5912 29.0769 65.696 28.9717C65.8007 28.8577 65.888 28.7349 65.9666 28.6034C66.0451 28.4631 66.115 28.3315 66.1848 28.1912C66.2546 28.0509 66.3332 27.9019 66.4118 27.7616C66.4903 27.6213 66.5864 27.4985 66.6911 27.3845C66.7959 27.2705 66.9094 27.1828 67.049 27.1127C67.1887 27.0425 67.3546 26.9987 67.5117 27.0075C67.6601 27.0075 67.8085 27.0338 67.9482 27.0776C68.0791 27.1215 68.2013 27.1916 68.3061 27.2793C68.4108 27.367 68.5069 27.4634 68.5854 27.5774C68.664 27.6914 68.7338 27.8142 68.7862 27.9457C68.8386 28.0772 68.8735 28.2088 68.8997 28.3491C68.9259 28.4894 68.9346 28.6209 68.9346 28.7612C68.9346 28.884 68.9259 29.0067 68.8997 29.1295C68.8822 29.2435 68.8473 29.3662 68.8037 29.4802C68.76 29.5942 68.6989 29.7082 68.6204 29.8047C68.5418 29.9011 68.4545 29.9801 68.3585 30.0502C68.2624 30.1204 68.1577 30.173 68.0442 30.208C67.9307 30.2431 67.8172 30.2607 67.695 30.2607C67.5815 30.2607 67.4768 30.2431 67.3633 30.2168C67.2411 30.1905 67.1276 30.1554 67.0141 30.1116C66.9617 30.0941 66.9006 30.059 66.8395 30.0327C66.7784 30.0064 66.7086 29.9713 66.6475 29.9274C66.5864 29.8836 66.5165 29.8485 66.4467 29.8135C66.3769 29.7784 66.3245 29.7345 66.2634 29.6907C66.0801 29.8748 65.8706 30.0239 65.6349 30.1379C65.3904 30.2431 65.1285 30.2957 64.8579 30.2957H64.7881V29.3399H64.8667ZM66.8308 28.9015C66.9006 28.9453 66.9792 28.998 67.084 29.0506C67.1887 29.1032 67.2935 29.1558 67.3982 29.1996C67.503 29.2435 67.6077 29.2786 67.7212 29.3049C67.7736 29.3224 67.826 29.3224 67.8871 29.3224C67.922 29.3224 67.9569 29.3136 67.9918 29.3049C68.018 29.2961 68.0529 29.2786 68.0704 29.261C68.1053 29.2347 68.1315 29.1909 68.149 29.1558C68.1751 29.1032 68.1926 29.0506 68.2101 28.998C68.2188 28.9454 68.2275 28.8927 68.2275 28.8314V28.7963C68.2275 28.5683 68.149 28.3403 68.0093 28.1562C67.9482 28.0685 67.8609 28.0071 67.7736 27.9545C67.7125 27.9282 67.6426 27.9106 67.5728 27.9106C67.5379 27.9106 67.503 27.9106 67.4681 27.9194C67.4331 27.9282 67.3982 27.9457 67.3633 27.9808C67.3197 28.0246 67.276 28.0772 67.2411 28.1386C67.1974 28.2088 67.1363 28.314 67.0752 28.428C67.0141 28.542 66.9181 28.7174 66.8308 28.9015Z" fill="#1C2328"/>
</g>
<defs>
<clipPath id="clip0_1261_8062">
<rect width="115" height="40" fill="white"/>
</clipPath>
</defs>
</svg>
