<svg xmlns="http://www.w3.org/2000/svg" width="122.12" height="34" viewBox="0 0 122.12 34">
  <defs>
    <style>
      .cls-1 {
        opacity: 0.767;
        mix-blend-mode: luminosity;
        isolation: isolate;
      }

      .cls-2 {
        fill: #040404;
      }

      .cls-3 {
        fill: #010101;
      }

      .cls-4 {
        fill: #fbb714;
      }

      .cls-5 {
        fill: #fefefe;
      }

      .cls-6 {
        fill: #080808;
      }
    </style>
  </defs>
  <g id="alibaba.e8b6a1d" class="cls-1" transform="translate(-0.929)">
    <path id="Path_95747" data-name="Path 95747" class="cls-2" d="M49.564,16.017a3.373,3.373,0,0,0-3.9-.452c-.122.068-.227.127-.227.3.011.348,0,.7,0,1.11a3.341,3.341,0,0,1,1.169-.425,2.4,2.4,0,0,1,2.525,1.758,6.653,6.653,0,0,1,.125,2.859,3.805,3.805,0,0,1-.494,1.408,2.086,2.086,0,0,1-1.916,1.094A2.118,2.118,0,0,1,44.9,22.494a4.122,4.122,0,0,1-.453-1.957c-.011-.854-.011-1.709-.011-2.561V12.286a1.044,1.044,0,0,0-.041-.466H42.978c-.131,0-.208.036-.2.183V24.81c-.011.149.043.226.2.226H44c.147,0,.179-.063.179-.194v-.976c0-.081-.061-.194.093-.249.113.14.227.289.353.429A2.645,2.645,0,0,0,46.421,25a3.808,3.808,0,0,0,4.02-2.292,6.6,6.6,0,0,0,.383-4.407A4.459,4.459,0,0,0,49.564,16.017Z" transform="translate(-3.393 -0.958)"/>
    <path id="Path_95748" data-name="Path 95748" class="cls-2" d="M27.988,16.28a3.357,3.357,0,0,0-4.149-.725c-.12.068-.226.127-.226.3.011.348,0,.7,0,1.107a3.144,3.144,0,0,1,1.169-.416,2.427,2.427,0,0,1,2.539,1.808,6.964,6.964,0,0,1,.113,2.78,3.557,3.557,0,0,1-.616,1.614,2.009,2.009,0,0,1-1.4.888,2.193,2.193,0,0,1-2.478-1.4,4.377,4.377,0,0,1-.324-1.76V12.312a1.436,1.436,0,0,1,0-.242c.036-.226-.082-.271-.279-.264-.313.011-.625,0-.938,0-.5,0-.421-.057-.421.438V24.151c0,.269-.116.617.045.787s.537.059.818.063c.525.011.514,0,.525-.542a3.357,3.357,0,0,1,.036-.875c.163.07.211.206.294.307a2.766,2.766,0,0,0,1.844,1.087,4.085,4.085,0,0,0,1.585-.106,3.836,3.836,0,0,0,2.586-2.4,6.638,6.638,0,0,0,.4-3.668A5.027,5.027,0,0,0,27.988,16.28Z" transform="translate(-1.622 -0.957)"/>
    <path id="Path_95749" data-name="Path 95749" class="cls-2" d="M9.86,23.961c-.12-.12-.308,0-.464,0-.5,0-.7-.158-.75-.646,0-.122-.011-.244,0-.366V18.237a3.123,3.123,0,0,0-.082-.845,2.388,2.388,0,0,0-1.4-1.546A5.089,5.089,0,0,0,4.3,15.488a4,4,0,0,0-1.579.536A2.551,2.551,0,0,0,1.442,17.99c-.072.583-.066.583.51.583h.2c.226,0,.505.086.679-.045.131-.1.138-.364.2-.556.016-.05.032-.1.052-.154a1.4,1.4,0,0,1,1.094-.927,4.558,4.558,0,0,1,1.977.047A1.262,1.262,0,0,1,7.14,18.1c0,.12.014.242.014.364v3.29a1.759,1.759,0,0,1-.582,1.376,3.175,3.175,0,0,1-2.976.789,1.242,1.242,0,0,1-1-1.144,1.325,1.325,0,0,1,.6-1.44,3.089,3.089,0,0,1,.906-.35,12.028,12.028,0,0,1,1.526-.226c.163-.02.247-.061.226-.242a8.84,8.84,0,0,0-.034-1.06,18.157,18.157,0,0,0-2.747.393A2.659,2.659,0,0,0,.958,22.32a2.584,2.584,0,0,0,2.063,2.92,5.3,5.3,0,0,0,1.336.068,3.5,3.5,0,0,0,2.206-.82c.208-.17.412-.346.639-.538.109.122.084.237.113.332a1.256,1.256,0,0,0,.951.9,2.472,2.472,0,0,0,1.092.02c.476-.1.539-.185.539-.678v-.081C9.894,24.271,9.98,24.078,9.86,23.961Z" transform="translate(0 -1.25)"/>
    <path id="Path_95750" data-name="Path 95750" class="cls-2" d="M40.332,23.945a.811.811,0,0,0-.369,0c-.6.05-.831-.149-.849-.743V18.058a2.259,2.259,0,0,0-1.18-2.034,3.4,3.4,0,0,0-.655-.328,5.369,5.369,0,0,0-2.45-.226,3.949,3.949,0,0,0-1.68.572,2.559,2.559,0,0,0-1.23,2.289c0,.179.061.226.227.226h.611c.2,0,.4.072.553-.043s.1-.325.17-.486a1.949,1.949,0,0,0,.073-.19,1.394,1.394,0,0,1,1.148-.972,4.59,4.59,0,0,1,1.9.061,1.262,1.262,0,0,1,.99,1.017,2.39,2.39,0,0,1,.054.522V21.76a1.754,1.754,0,0,1-.51,1.29,3.159,3.159,0,0,1-3.141.852,1.169,1.169,0,0,1-.888-.963,1.393,1.393,0,0,1,.938-1.783,5.954,5.954,0,0,1,1.343-.314,4.093,4.093,0,0,0,.949-.154,8.844,8.844,0,0,0,.023-1.01V19.64c0-.138-.039-.2-.19-.176-.765.1-1.538.149-2.3.312a3.31,3.31,0,0,0-1.508.678,2.75,2.75,0,0,0-.926,2.289,2.465,2.465,0,0,0,2.007,2.472,4.08,4.08,0,0,0,3.8-.9c.143-.129.294-.253.453-.4.043.167.07.285.109.4a1.278,1.278,0,0,0,.428.63,2.145,2.145,0,0,0,1.945.129c.1-.057.181-.115.174-.246A5.419,5.419,0,0,0,40.332,23.945Z" transform="translate(-2.474 -1.25)"/>
    <path id="Path_95751" data-name="Path 95751" class="cls-2" d="M62.148,23.935h-.226c-.831.086-1.01-.079-1.01-.924V18.265a3.436,3.436,0,0,0-.032-.658A2.4,2.4,0,0,0,59.295,15.8a5.162,5.162,0,0,0-2.718-.294,3.951,3.951,0,0,0-1.608.542,2.559,2.559,0,0,0-1.259,2.26c0,.226.073.282.279.264a5.166,5.166,0,0,1,.53,0c.177,0,.43.075.593-.045s.1-.328.168-.488c.027-.061.048-.127.07-.19a1.423,1.423,0,0,1,1.191-.981,4.94,4.94,0,0,1,1.622,0,1.379,1.379,0,0,1,1.277,1.516c.016,1.13,0,2.276,0,3.412a1.734,1.734,0,0,1-.539,1.277,3.157,3.157,0,0,1-3.035.838,1.2,1.2,0,0,1-.978-1.064,1.332,1.332,0,0,1,.593-1.519,3.084,3.084,0,0,1,.906-.348,14.738,14.738,0,0,1,1.567-.237c.1-.014.2,0,.2-.142,0-.384.014-.771,0-1.155-.3.029-.544.047-.786.077a14.25,14.25,0,0,0-1.927.3,2.687,2.687,0,0,0-2.192,2.863,2.47,2.47,0,0,0,2.038,2.522,4.085,4.085,0,0,0,3.764-.9c.143-.131.294-.253.453-.4.045.167.072.285.113.4a1.272,1.272,0,0,0,.426.628,2.15,2.15,0,0,0,1.948.129c.1-.057.179-.118.172-.249A5.331,5.331,0,0,0,62.148,23.935Z" transform="translate(-4.242 -1.252)"/>
    <path id="Path_95752" data-name="Path 95752" class="cls-2" d="M12.754,11.808c-.5,0-.43-.045-.43.434V24.789c-.016.16.054.215.211.215H13.8c.165,0,.227-.07.2-.226V12.2a.823.823,0,0,0-.041-.389Z" transform="translate(-0.924 -0.957)"/>
    <path id="Path_95753" data-name="Path 95753" class="cls-2" d="M79.026,15.388c0-.3-.086-.371-.405-.371a2.645,2.645,0,0,0-1.628.542,4.132,4.132,0,0,0-.885.945c-.07.095-.1.226-.285.3V15.63c0-.181-.063-.226-.226-.226h-.938c-.453,0-.385-.041-.385.393v9.135c0,.332,0,.337.319.337h.731c.616,0,.616,0,.616-.615V19.375a2.429,2.429,0,0,1,2-2.542,3.7,3.7,0,0,1,.852-.043c.17,0,.245-.045.24-.226C79.026,16.172,79.04,15.781,79.026,15.388Z" transform="translate(-5.947 -1.218)"/>
    <path id="Path_95754" data-name="Path 95754" class="cls-2" d="M18.308,15.463H16.664v9.826h1.644Z" transform="translate(-1.276 -1.254)"/>
    <path id="Path_95755" data-name="Path 95755" class="cls-2" d="M71.456,15.438H70.113c-.118,0-.174.048-.168.167s0,.19,0,.285v9.053c0,.389-.043.364.376.364H71.3c.326,0,.331,0,.331-.332v-9.3C71.633,15.553,71.655,15.438,71.456,15.438Z" transform="translate(-5.596 -1.252)"/>
    <path id="Path_95756" data-name="Path 95756" class="cls-2" d="M67.09,24.208H65.667c-.143,0-.193.052-.188.19V25.8c0,.124.018.2.172.2h1.465c.118,0,.17-.041.17-.165V24.38C67.289,24.246,67.216,24.208,67.09,24.208Z" transform="translate(-5.234 -1.963)"/>
    <path id="Path_95757" data-name="Path 95757" class="cls-2" d="M71.449,12h-1.33c-.133,0-.18.049-.176.179V13.5c0,.117.017.189.161.189h1.371c.11,0,.159-.038.159-.155V12.162C71.636,12.036,71.568,12,71.449,12Z" transform="translate(-5.596 -0.973)"/>
    <path id="Path_95758" data-name="Path 95758" class="cls-3" d="M121.355,7.976c0,.167.018.332.018.5V27.55a1.2,1.2,0,0,0,.04.488,15.085,15.085,0,0,1,2.657-.7,11.116,11.116,0,0,1,2.794-.1,9.709,9.709,0,0,1,2.7.662,8.079,8.079,0,0,1-2.337,2.818l-.5-.291a14.514,14.514,0,0,0-4.724-1.645c-.195-.036-.435-.179-.584-.043s-.045.389-.05.59c-.029,1.277.056,2.556-.054,3.842-.055.115-.1.226-.161.346a1.983,1.983,0,0,1-1.71,1.13h-26.2a2.447,2.447,0,0,1-.944-.138,2.054,2.054,0,0,1-1.291-1.957v-7.72c-.127-.057-.2.034-.288.075a11.782,11.782,0,0,1-2.038.768.44.44,0,0,1-.3.032c-.059-.163.1-.208.172-.291a18.259,18.259,0,0,0,2.195-3.092,8.127,8.127,0,0,0,.972-2.606c.016-.09.029-.179.036-.267a1.007,1.007,0,0,0-.018-.172,9.438,9.438,0,0,1-3.293,2.438,9.756,9.756,0,0,1-4,.845c.143-.165.226-.278.333-.393a24.087,24.087,0,0,0,5.143-10.69,19.481,19.481,0,0,0,.394-3.116,3.086,3.086,0,0,1,.05-.377h12.635A1.787,1.787,0,0,1,103.2,8a27.277,27.277,0,0,1-.179,3.675A24.239,24.239,0,0,1,101.851,17a13.834,13.834,0,0,1-2.824,4.922,8.988,8.988,0,0,1-4.061,2.6l-.052-.059a4.832,4.832,0,0,0,.906-2.8,7.77,7.77,0,0,0-.467-2.979.856.856,0,0,0-.048.088l-.02.113a8.053,8.053,0,0,1-3.513,5.4.429.429,0,0,0-.2.416v3.225c0,.545-.054.452.476.452h28.27c.494,0,.494,0,.494-.479V7.994Z" transform="translate(-6.772 -0.647)"/>
    <path id="Path_95759" data-name="Path 95759" class="cls-4" d="M103.721,7.348a1.785,1.785,0,0,0-.19-.014H90.9a1.891,1.891,0,0,1-.014-.608V2.353a2.335,2.335,0,0,1,1.8-2.3A2.7,2.7,0,0,1,93.36,0H119.4a2.8,2.8,0,0,1,.679.056,2.33,2.33,0,0,1,1.812,2.21c.028,1.636.011,3.275.011,4.911a1.18,1.18,0,0,1-.029.149l-.537.018c-.127,0-.254-.016-.382-.016H104.1C103.977,7.332,103.843,7.341,103.721,7.348Z" transform="translate(-7.292 0)"/>
    <path id="Path_95760" data-name="Path 95760" class="cls-4" d="M124.58,34.984c.11-1.277.027-2.556.056-3.842,0-.2-.093-.452.05-.59s.388,0,.584.043a14.482,14.482,0,0,1,4.724,1.648l.5.289a10.123,10.123,0,0,1,1.622,1.455,6.645,6.645,0,0,1,.869,1.3c.142.285.141.3-.142.425a8.573,8.573,0,0,1-7.064-.054A11.529,11.529,0,0,1,124.58,34.984Z" transform="translate(-10.026 -2.472)"/>
    <path id="Path_95761" data-name="Path 95761" class="cls-5" d="M103.829,7.995c.13,0,.256-.016.385-.016h16.85a3.141,3.141,0,0,1,.385.016V27.918c0,.477,0,.477-.494.477H92.683c-.532,0-.476.084-.476-.452V24.718a.431.431,0,0,1,.2-.418,8.006,8.006,0,0,0,3.528-5.4l.02-.113A.682.682,0,0,1,96,18.7a7.824,7.824,0,0,1,.467,2.981,4.845,4.845,0,0,1-.906,2.793c-.032.014-.079.027-.048.068s.068.014.1,0a9.013,9.013,0,0,0,4.061-2.59,13.736,13.736,0,0,0,2.824-4.922,24.332,24.332,0,0,0,1.158-5.356A27.269,27.269,0,0,0,103.829,7.995Zm6.024,7.426a.637.637,0,0,0,.048.325,3.105,3.105,0,0,0,6.054-1.229c-.032-.355-.034-.357-.39-.282l-4.328.884C110.766,15.22,110.307,15.321,109.854,15.421ZM118.007,13a.332.332,0,0,0-.193-.167,2.6,2.6,0,0,0-1.76-.167c-1.664.357-3.331.7-5,1.049a.659.659,0,0,1-.6-.133c-.39-.31-.8-.592-1.207-.886-.063-.045-.13-.086-.188-.133-.127-.1-.254-.029-.362.02s-.037.176-.02.267a1.051,1.051,0,0,0,.226.481c.15.192.283.4.43.59a.643.643,0,0,1,.09.25.662.662,0,0,1-.015.265c-.014.138-.227.029-.277.147.107.5.065.484.634.452a1.123,1.123,0,0,0,.152-.036l7.1-1.336a1.38,1.38,0,0,0,1-.664ZM112.345,23.52a4.258,4.258,0,0,1-.226-.364c-.088-.172-.186-.165-.335-.068a6.734,6.734,0,0,1-1.164.581,7.034,7.034,0,0,1-2.944.594c-1.112-.043-2.228,0-3.342,0h-.768c-.19,0-.26.061-.226.242q0,.058,0,.115c0,.348-.037.334.325.334h4.8a1.963,1.963,0,0,0,.38-.029,10.419,10.419,0,0,0,2.853-.983,2.87,2.87,0,0,0,.654-.411Z" transform="translate(-7.401 -0.647)"/>
    <path id="Path_95762" data-name="Path 95762" class="cls-2" d="M111.411,15.97c.453-.1.906-.2,1.373-.294q2.164-.452,4.327-.884c.36-.072.36-.072.39.282a3.106,3.106,0,0,1-6.04,1.22A.61.61,0,0,1,111.411,15.97Z" transform="translate(-8.958 -1.196)"/>
    <path id="Path_95763" data-name="Path 95763" class="cls-6" d="M119.46,13.394a1.392,1.392,0,0,1-1,.653q-3.548.662-7.1,1.336a1.394,1.394,0,0,1-.149.036c-.569.043-.527.059-.634-.452.059-.12.263,0,.276-.147a.662.662,0,0,0,.015-.265.677.677,0,0,0-.089-.25c-.147-.194-.281-.4-.43-.59a1.052,1.052,0,0,1-.227-.481c-.016-.093-.107-.208.021-.267s.226-.12.362-.02c.059.048.124.088.187.133.4.294.816.576,1.207.886a.665.665,0,0,0,.6.133c1.664-.355,3.333-.694,5-1.049a2.6,2.6,0,0,1,1.76.167.317.317,0,0,1,.118.067A.307.307,0,0,1,119.46,13.394Z" transform="translate(-8.85 -1.045)"/>
    <path id="Path_95764" data-name="Path 95764" class="cls-6" d="M113.326,24.845a2.91,2.91,0,0,1-.652.409,10.483,10.483,0,0,1-2.856.985,1.951,1.951,0,0,1-.38.032h-4.8c-.363,0-.322.011-.326-.337q0-.058,0-.115c-.023-.181.045-.253.226-.242.256.014.512,0,.768,0,1.114,0,2.23-.036,3.342.011a7.1,7.1,0,0,0,2.944-.594,6.98,6.98,0,0,0,1.167-.583c.149-.1.244-.1.333.068C113.16,24.6,113.244,24.716,113.326,24.845Z" transform="translate(-8.382 -1.974)"/>
    <path id="Path_95765" data-name="Path 95765" class="cls-3" d="M95.887,25.975c-.032.023-.075.041-.1,0s.016-.057.048-.068Z" transform="translate(-7.691 -2.101)"/>
  </g>
</svg>
