<?xml version="1.0" standalone="no"?>
<!DOCTYPE svg PUBLIC "-//W3C//DTD SVG 20010904//EN"
 "http://www.w3.org/TR/2001/REC-SVG-20010904/DTD/svg10.dtd">
<svg version="1.0" xmlns="http://www.w3.org/2000/svg"
 width="298.000000pt" height="124.000000pt" viewBox="0 0 298.000000 124.000000"
 preserveAspectRatio="xMidYMid meet">

<g transform="translate(0.000000,124.000000) scale(0.100000,-0.100000)"
fill="#000000" stroke="none">
<path d="M2401 1225 c-77 -24 -140 -107 -141 -182 0 -49 26 -43 33 8 22 162
234 203 307 59 20 -39 25 -77 14 -115 -5 -19 -12 -20 -119 -16 -230 7 -360
-31 -449 -130 -76 -84 -107 -200 -109 -404 -2 -182 33 -270 140 -351 112 -85
370 -115 594 -69 83 17 138 44 196 98 94 87 123 202 105 415 -16 175 -48 262
-126 335 -43 40 -154 93 -168 79 -14 -14 -3 -29 29 -36 50 -12 133 -75 164
-124 62 -97 86 -264 53 -368 -25 -79 -105 -163 -185 -192 -148 -54 -421 -55
-564 -1 -99 37 -173 123 -196 227 -13 61 2 197 28 266 38 96 113 165 215 198
52 17 93 20 237 22 198 1 189 -3 190 92 1 69 -32 131 -90 166 -56 34 -102 41
-158 23z m-368 -942 c44 -50 151 -99 250 -113 125 -19 353 -9 437 19 78 26
149 76 190 133 34 47 39 33 16 -46 -30 -99 -101 -167 -217 -206 -80 -28 -283
-38 -408 -21 -185 25 -301 123 -325 276 l-6 40 17 -25 c10 -13 31 -39 46 -57z"/>
<path d="M843 954 c-22 -15 -22 -16 40 -101 58 -81 60 -86 42 -99 -23 -17 -39
-17 -105 -3 -58 12 -55 13 -64 -23 -5 -23 -2 -27 26 -37 47 -17 149 -14 176 5
20 14 24 14 44 0 26 -19 110 -21 136 -5 14 9 25 8 50 -5 38 -20 116 -21 134
-2 10 10 20 11 41 3 15 -5 69 -7 120 -5 98 5 161 24 253 77 46 27 50 32 46 59
-4 28 -11 32 -95 63 -51 18 -112 34 -138 37 -41 4 -48 1 -72 -28 -15 -17 -27
-36 -27 -41 0 -16 51 -22 77 -8 21 11 34 11 91 -4 37 -10 71 -22 76 -27 17
-17 -149 -60 -233 -60 -87 0 -95 4 -105 64 -13 72 -52 106 -121 106 -46 0 -86
-42 -108 -113 -17 -55 -19 -57 -52 -57 -41 0 -55 14 -132 132 -32 48 -62 88
-68 87 -5 0 -20 -7 -32 -15z m441 -126 c20 -28 20 -72 1 -88 -12 -10 -24 -9
-59 4 -44 17 -44 17 -34 49 6 18 15 38 21 45 15 19 54 14 71 -10z"/>
<path d="M212 917 l-22 -23 25 -24 25 -23 25 23 25 24 -22 23 c-12 13 -24 23
-28 23 -4 0 -16 -10 -28 -23z"/>
<path d="M512 890 c-38 -38 -49 -94 -28 -143 17 -43 60 -67 116 -67 22 0 40
-4 40 -9 0 -39 -47 -71 -105 -71 -33 0 -35 -2 -35 -35 0 -34 1 -35 42 -35 23
0 62 10 86 21 59 29 81 77 82 179 0 141 -30 190 -116 190 -45 0 -57 -4 -82
-30z m108 -50 c12 -12 20 -33 20 -55 0 -34 -1 -35 -38 -35 -43 0 -62 14 -62
47 0 23 32 63 50 63 6 0 19 -9 30 -20z"/>
<path d="M2434 872 c-23 -15 -35 -51 -24 -72 11 -20 40 -40 59 -40 18 0 51 39
51 60 0 40 -55 73 -86 52z"/>
<path d="M2577 862 c-21 -23 -22 -66 -2 -82 22 -18 66 -15 82 6 42 57 -33 128
-80 76z"/>
<path d="M350 761 c0 -94 -3 -112 -21 -135 -19 -24 -26 -26 -98 -26 -68 0 -81
3 -104 24 -36 33 -44 86 -23 153 10 30 16 56 14 58 -6 5 -47 25 -52 25 -13 0
-41 -102 -41 -150 1 -69 33 -129 85 -159 48 -27 181 -30 233 -5 58 28 71 63
75 202 l4 122 -36 0 -36 0 0 -109z"/>
<path d="M2256 854 c-20 -20 -20 -43 0 -72 19 -28 57 -29 84 -2 24 24 25 38 4
68 -18 26 -65 30 -88 6z"/>
<path d="M1512 607 l-22 -23 25 -24 25 -23 25 23 25 24 -22 23 c-12 13 -24 23
-28 23 -4 0 -16 -10 -28 -23z"/>
<path d="M1632 607 l-22 -23 25 -24 25 -24 22 22 22 22 -25 25 -25 26 -22 -24z"/>
<path d="M1577 532 c-22 -24 -21 -35 1 -55 17 -16 20 -15 40 6 l22 23 -23 22
c-23 22 -24 22 -40 4z"/>
<path d="M20 313 c0 -32 4 -64 9 -71 8 -13 16 -14 166 -11 173 3 160 -1 162
39 1 34 1 34 -5 5 -9 -39 -42 -47 -42 -11 0 14 -4 26 -10 26 -5 0 -10 -11 -10
-25 0 -18 -5 -25 -20 -25 -15 0 -20 7 -20 25 0 14 -4 25 -10 25 -5 0 -10 -11
-10 -25 0 -21 -5 -25 -29 -25 -23 0 -30 5 -36 27 -13 53 -50 57 -71 8 -9 -23
-21 -35 -34 -35 -18 0 -20 7 -20 65 0 37 -4 65 -10 65 -6 0 -10 -26 -10 -57z
m130 -48 c0 -30 -12 -38 -35 -21 -14 10 -15 16 -6 34 14 27 41 18 41 -13z"/>
<path d="M630 313 c0 -32 4 -63 8 -69 4 -6 42 -14 84 -17 83 -6 105 4 94 41
-8 23 -56 70 -56 54 0 -7 -8 -12 -19 -12 -26 0 -44 -25 -36 -50 5 -17 2 -20
-24 -20 l-31 0 0 65 c0 37 -4 65 -10 65 -6 0 -10 -26 -10 -57z m177 -67 c-2
-6 -12 -12 -23 -14 -17 -2 -20 3 -20 38 l1 41 23 -27 c13 -14 21 -31 19 -38z
m-49 31 c4 -21 -27 -35 -38 -17 -12 19 0 42 19 38 9 -2 17 -11 19 -21z"/>
<path d="M1403 300 c0 -41 2 -58 4 -37 2 20 2 54 0 75 -2 20 -4 3 -4 -38z"/>
<path d="M270 340 c0 -5 5 -10 10 -10 6 0 10 5 10 10 0 6 -4 10 -10 10 -5 0
-10 -4 -10 -10z"/>
<path d="M310 340 c0 -5 5 -10 10 -10 6 0 10 5 10 10 0 6 -4 10 -10 10 -5 0
-10 -4 -10 -10z"/>
<path d="M1303 325 c4 -5 0 -16 -9 -26 -8 -9 -14 -28 -12 -41 4 -33 63 -39 73
-7 8 23 -20 69 -46 77 -8 3 -11 1 -6 -3z m44 -69 c-5 -15 -37 -20 -50 -7 -8 8
-7 18 3 37 l14 26 19 -23 c9 -12 16 -27 14 -33z"/>
<path d="M1710 322 c0 -5 9 -17 20 -27 24 -22 23 -58 -2 -63 -15 -3 -17 2 -12
25 7 33 -14 57 -43 51 -13 -3 -18 -12 -17 -36 2 -29 -1 -32 -26 -32 -22 0 -29
6 -35 27 -13 54 -50 57 -71 7 -17 -41 -44 -43 -55 -4 -6 21 -7 19 -8 -13 -1
-50 -17 -77 -43 -77 -12 0 -19 -3 -15 -6 14 -14 57 7 63 31 6 23 32 33 69 25
6 -1 56 -3 113 -4 92 -2 104 0 113 17 8 14 5 26 -16 53 -26 34 -35 41 -35 26z
m-130 -57 c0 -30 -12 -38 -35 -21 -14 10 -15 16 -6 34 14 27 41 18 41 -13z
m128 12 c4 -20 -25 -34 -40 -19 -15 15 -1 44 19 40 10 -2 19 -11 21 -21z"/>
<path d="M524 285 c-20 -30 -13 -52 18 -57 15 -2 23 -10 23 -23 0 -16 -8 -21
-38 -23 -52 -4 -70 12 -65 60 2 21 0 38 -4 38 -13 0 -9 -85 4 -98 14 -14 86
-16 106 -3 22 13 11 56 -15 59 -42 6 -25 53 22 65 15 4 14 5 -7 6 -19 1 -33
-7 -44 -24z"/>
<path d="M934 296 c-4 -9 -4 -25 -1 -37 5 -17 1 -20 -21 -17 -18 2 -28 11 -33
28 -5 19 -7 14 -8 -21 -1 -48 -11 -63 -46 -72 -16 -4 -15 -5 5 -6 30 -1 50 15
50 41 0 16 11 18 98 19 53 1 123 1 154 0 48 -1 58 2 63 19 3 11 2 28 -4 37 -9
15 -10 13 -11 -14 0 -26 -4 -33 -20 -33 -15 0 -20 7 -21 28 l-1 27 -10 -28
c-12 -34 -39 -32 -49 3 l-6 25 -4 -25 c-3 -20 -10 -26 -39 -28 -34 -3 -35 -2
-35 30 0 29 -4 33 -28 36 -18 2 -29 -2 -33 -12z m54 -19 c4 -20 -25 -34 -40
-19 -15 15 -1 44 19 40 10 -2 19 -11 21 -21z"/>
</g>
</svg>
