<?xml version="1.0" encoding="utf-8"?>
<!-- Generator: Adobe Illustrator 23.0.1, SVG Export Plug-In . SVG Version: 6.00 Build 0)  -->
<svg version="1.1" id="Layer_1" xmlns="http://www.w3.org/2000/svg" xmlns:xlink="http://www.w3.org/1999/xlink" x="0px" y="0px"
	 viewBox="0 0 371.4 137" style="enable-background:new 0 0 371.4 137;" xml:space="preserve">
<style type="text/css">
	.st0{fill:#034FA6;}
	.st1{fill:#004BA8;}
	.st2{fill:#CFA72E;}
</style>
<g>
	<path class="st0" d="M100.1,67.9h20.7V53.8H63.2v14.2h22v23.6c5.1-0.5,10-1.1,14.9-1.8V67.9z"/>
	<path class="st0" d="M85.2,125.4h14.9v-22.8c-6,0.8-10.9,1.3-14.9,1.6V125.4z"/>
	<path class="st0" d="M162.1,68.7c5.4,0,10.4,2,14.2,5.3c5.1-1.4,9.8-2.8,14.1-4.1c-6.4-8.8-16.7-14.5-28.3-14.5
		c-17.6,0-32.1,13-34.6,29.9c4.9-0.9,9.7-1.9,14.4-2.9C145.1,74.4,152.9,68.7,162.1,68.7z"/>
	<path class="st0" d="M183.8,90.4c0,12-9.7,21.7-21.7,21.7c-10.2,0-18.8-7.1-21.1-16.6c-4.6,0.9-8.9,1.8-13,2.6
		c3.5,15.6,17.4,27.3,34.1,27.3c19.3,0,34.9-15.6,34.9-34.9c0-2.7-0.3-5.4-0.9-8c-4.4,1.2-8.7,2.3-12.8,3.3
		C183.6,87.3,183.8,88.8,183.8,90.4z"/>
	<path class="st1" d="M252.3,66.6v27.5c0,0.2,0,0.3,0,0.5c0,8.3-6.7,15-14.9,15s-14.9-6.7-14.9-15c0-0.2,0-0.3,0-0.5V75.3
		c-3.1,0.9-6,1.7-8.7,2.4c-2.4,0.7-4.8,1.3-7.1,1.9v14.5c0,0.2,0,0.3,0,0.5c0,17,13.7,30.8,30.6,30.8S268,111.6,268,94.6
		c0-0.2,0-0.3,0-0.5V61.8C262.5,63.5,257.3,65.1,252.3,66.6z"/>
	<path class="st1" d="M222.5,53.8h-15.7v11.1c5-1.6,10.3-3.3,15.7-5.2V53.8z"/>
	<path class="st1" d="M281.3,88.9L281.3,88.9v36.5H297V88.9l0,0c0-11.1,9-20.1,20.1-20.1V53.1C297.4,53.1,281.4,69.1,281.3,88.9z"/>
	<path class="st1" d="M18.8,103.2v22.2h14.8v-20.8C30.5,104.6,25.3,104.6,18.8,103.2z"/>
	<path class="st1" d="M33.5,78.8H18.8v12.4c4.4,1,9.5,1.6,14.8,2V78.8z"/>
	<path class="st1" d="M350.9,67.5h20.5v-14h-20.5c-11.3,0-20.5,9.2-20.5,20.5c0,1,0.1,2.3,0.4,3.8c0.1,0.7,0.3,1.5,0.5,2.3
		c0.1,0.4,0.9,3.2,2.1,5.4c2.9,5,8.6,7.4,13,9.2c1.1,0.5,2.9,1.1,4.6,2c1.5,0.8,3.1,1.7,4.2,2.7c0,0,0,0,0,0c0,0,0,0,0.1,0.1
		c0,0,0,0,0,0c1.1,1,1.9,2.3,2.2,3.8c0,0,0,0,0,0s0,0,0,0c0,0.2,0,0.3,0.1,0.5c0,0.2,0,0.4,0,0.6c0,3.6-2.9,6.6-6.6,6.6h-21.5v14
		h21.5c11.3,0,20.5-9.2,20.5-20.5c0.1-1.8,0-4.9-1.5-8.4c-1.8-4.1-4.5-6.5-6.5-7.9c-4.2-3.2-9-4.3-12.5-5.7
		c-1.7-0.7-3.1-1.4-4.1-2.5c-1.2-1.4-1.9-2.9-2.1-3.7c0-0.1-0.1-0.3-0.1-0.4c0-0.1,0-0.1,0-0.1c-0.1-0.4-0.2-0.8-0.2-1.3
		c0-0.1,0-0.2,0-0.3C344.3,70.4,347.3,67.5,350.9,67.5z"/>
	<path id="path_1_" class="st2" d="M327,20.9c-47.9,19.6-89.3,34-121,44.2c-23.6,7.6-72.9,23-135.2,27.8c0,0-61.8,4.8-65.4-9.8
		c-0.2-0.8-0.7-3.9,0.3-7.6c1.7-6.3,6.8-10.1,9.4-11.8c2.7,3.5,6.9,5.8,11.7,5.8c8.2,0,14.8-6.6,14.8-14.8c0-2.5-0.6-4.8-1.7-6.9
		c8.8-4.7,16.5-8.2,18.2-9c-0.1-0.2-0.1-0.4-0.2-0.6c-6.8,2.8-13,5.6-18.6,8.5c-2.6-4.1-7.2-6.8-12.4-6.8c-8.2,0-14.8,6.6-14.8,14.8
		c0,2.6,0.7,5,1.9,7.2C11.6,63.3-0.1,71.1,0,82.6c0,0,0,3.2,1.1,6c6,14.9,52.9,13,52.9,13c80.9-3.3,159-28.6,159-28.6
		c30.6-9.9,70.7-23.7,117.4-42.2C329.3,27.6,328.1,24.2,327,20.9z"/>
	<g>
		<path class="st0" d="M364.5,15.6c2.4-1.4,4.2-3.2,4.9-4.7c0.2-0.5,0.3-0.9,0.2-1.3c0,0,0-0.2-0.1-0.3s-0.1-0.2-0.1-0.2
			c-0.2-0.3-0.6-0.6-1.1-0.8c-1.5-0.6-4-0.6-6.8,0.1c-2.2,0.5-4.6,1.6-7.9,3.1c-0.6,0.3-1.2,0.5-1.8,0.8L348,8.9l0,0
			c0.3-0.1,0.5-0.3,0.6-0.6c0.1-0.3,0.1-0.6,0-0.8l-0.5-1.2c-0.1-0.3-0.3-0.5-0.6-0.6c-0.3-0.1-0.6-0.1-0.8,0L345,6.5L344.5,6
			c0.2-0.1,0.4-0.3,0.5-0.5c0.1-0.3,0.1-0.6,0-0.8l-0.5-1.2c-0.1-0.3-0.3-0.5-0.6-0.6s-0.6-0.1-0.8,0l-1.6,0.6l-4-3.3
			c-0.1-0.1-0.2-0.1-0.3-0.2c-0.3-0.1-0.7-0.1-1,0L334,1c-0.3,0.1-0.5,0.3-0.6,0.5c-0.1,0.3-0.1,0.7,0.1,1l7.3,9.3
			c0,0.1,0.1,0.2,0.2,0.3l1.6,3.9c-3.7,1.6-7,3.3-9.7,4.8c-0.3,0.1-0.5,0.3-0.7,0.4l-7.1-3.8c0,0-0.1,0-0.1-0.1
			c-0.3-0.1-0.7-0.1-1.1,0l-1.1,0.4c-0.3,0.1-0.5,0.3-0.6,0.5c-0.2,0.4-0.1,0.8,0.2,1.1l4.1,4.6c0,0,0.1,0.2,0.1,0.2l0.3,0.6
			c-0.3,0.3-0.5,0.6-0.6,0.9c-0.2,0.4-0.2,0.8,0,1.1l0,0v0c0.1,0.3,0.4,0.6,0.8,0.8c0.3,0.1,0.6,0.2,1.1,0.2l0.3,0.6
			c0,0,0,0.2,0,0.3l0.3,6.2c0,0.4,0.2,0.7,0.6,0.9h0c0.2,0.1,0.5,0.1,0.8,0l1.1-0.4c0.3-0.1,0.6-0.4,0.8-0.8c0,0,0-0.1,0-0.1
			l2.5-7.7c0.3-0.1,0.5-0.1,0.8-0.2c3-0.8,6.5-2,10.3-3.4l1.6,3.9c0,0.1,0.1,0.2,0.1,0.3l1.3,11.7c0,0.4,0.3,0.7,0.6,0.8
			c0.3,0.1,0.5,0.1,0.8,0l2.3-0.9c0.3-0.1,0.5-0.4,0.7-0.7c0-0.1,0.1-0.2,0.1-0.3l0.5-5.1l1.6-0.6c0.3-0.1,0.5-0.3,0.6-0.6
			c0.1-0.3,0.1-0.6,0-0.8l-0.5-1.1c-0.1-0.3-0.3-0.5-0.6-0.6c-0.2-0.1-0.5-0.1-0.7,0l0.1-0.7l1.7-0.7c0.3-0.1,0.5-0.3,0.6-0.6
			c0.1-0.3,0.1-0.6,0-0.8l-0.5-1.1c-0.1-0.3-0.3-0.5-0.6-0.6c-0.3-0.1-0.6-0.1-0.8,0h0l0.5-5c0.6-0.3,1.3-0.5,1.9-0.7
			C360.1,17.6,362.6,16.7,364.5,15.6z"/>
	</g>
</g>
</svg>
