<svg xmlns="http://www.w3.org/2000/svg" width="157.711" height="35.433" viewBox="0 0 157.711 35.433">
  <defs>
    <style>
      .cls-1 {
        opacity: 0.767;
        mix-blend-mode: luminosity;
        isolation: isolate;
      }

      .cls-2 {
        opacity: 0.58;
      }

      .cls-13, .cls-3 {
        fill: #ffb300;
      }

      .cls-10, .cls-11, .cls-12, .cls-14, .cls-15, .cls-4, .cls-5, .cls-6, .cls-7, .cls-8, .cls-9 {
        fill: none;
      }

      .cls-10, .cls-11, .cls-12, .cls-4, .cls-5, .cls-6, .cls-7, .cls-8, .cls-9 {
        stroke: #ffb300;
      }

      .cls-10, .cls-11, .cls-12, .cls-13, .cls-14, .cls-15, .cls-4, .cls-5, .cls-6, .cls-7, .cls-8, .cls-9 {
        stroke-miterlimit: 10;
      }

      .cls-4 {
        strokeWidth: 1.1px;
      }

      .cls-5 {
        strokeWidth: 1.11px;
      }

      .cls-6 {
        strokeWidth: 1.12px;
      }

      .cls-7 {
        strokeWidth: 1.13px;
      }

      .cls-8 {
        strokeWidth: 1.14px;
      }

      .cls-9 {
        strokeWidth: 1.15px;
      }

      .cls-10 {
        strokeWidth: 1.16px;
      }

      .cls-11 {
        strokeWidth: 1.17px;
      }

      .cls-12 {
        strokeWidth: 1.18px;
      }

      .cls-13, .cls-14, .cls-15 {
        stroke: #fff;
      }

      .cls-13 {
        strokeWidth: 3.24px;
      }

      .cls-14 {
        strokeWidth: 2.16px;
      }

      .cls-15 {
        strokeWidth: 2.2px;
      }
    </style>
  </defs>
  <g id="safiran-logo" class="cls-1" transform="translate(-4 -3)">
    <g id="Group_9058" data-name="Group 9058" class="cls-2" transform="translate(4 13.546)">
      <path id="Path_95784" data-name="Path 95784" class="cls-3" d="M4,106.417a36.835,36.835,0,0,1,3.659-3.047,40.711,40.711,0,0,1,3.994-2.6,29.826,29.826,0,0,1,8.878-3.423,20.564,20.564,0,0,1,4.741-.4c.795.036,1.587.124,2.374.231s1.572.235,2.354.376c3.128.579,6.218,1.315,9.3,2.093,12.315,3.13,24.5,6.762,36.87,9.642,3.094.718,6.2,1.388,9.325,1.939A62.7,62.7,0,0,0,94.94,112.3c3.171.071,6.345-.092,9.512-.323s6.325-.564,9.477-.939q9.458-1.148,18.833-2.88,4.686-.845,9.34-1.878c1.548-.349,3.094-.716,4.627-1.127.766-.207,1.531-.425,2.286-.669.376-.126.751-.25,1.127-.4a5.46,5.46,0,0,0,1.067-.524,5.622,5.622,0,0,1-1.063.532c-.376.148-.751.276-1.127.4-.751.246-1.518.47-2.282.68-1.533.423-3.077.8-4.623,1.155-3.1.71-6.21,1.343-9.332,1.929q-9.372,1.741-18.835,2.919c-3.154.385-6.313.716-9.482.956s-6.353.4-9.528.344a63.1,63.1,0,0,1-9.475-1.056c-3.131-.539-6.24-1.21-9.336-1.925-12.379-2.895-24.553-6.558-36.859-9.708-3.079-.776-6.167-1.527-9.287-2.11-.78-.145-1.563-.274-2.348-.376s-1.574-.188-2.365-.233a20.578,20.578,0,0,0-4.726.376,29.606,29.606,0,0,0-8.857,3.368,40.5,40.5,0,0,0-4,2.573A37.044,37.044,0,0,0,4,106.417Z" transform="translate(-4 -89.841)"/>
      <path id="Path_95785" data-name="Path 95785" class="cls-4" d="M6.56,104.207s10.959-9.5,22.568-9.231,52.337,14.922,69.516,15.2,52.285-6.387,55.3-8.592" transform="translate(-6.079 -88.24)"/>
      <path id="Path_95786" data-name="Path 95786" class="cls-5" d="M9.08,101.7s12.264-9.419,24.315-9.056c12.093.376,52.168,14.887,69.21,15.005s51.227-6.306,54.037-8.361" transform="translate(-8.126 -86.344)"/>
      <path id="Path_95787" data-name="Path 95787" class="cls-5" d="M11.6,99.211s13.57-9.338,26.06-8.874c12.556.473,52,14.849,68.907,14.81s50.17-6.214,52.785-8.128" transform="translate(-10.172 -84.464)"/>
      <path id="Path_95788" data-name="Path 95788" class="cls-6" d="M14.12,96.723S29,87.462,41.921,88.031c13.016.575,51.834,14.812,68.6,14.614s49.112-6.129,51.52-7.89" transform="translate(-12.219 -82.584)"/>
      <path id="Path_95789" data-name="Path 95789" class="cls-6" d="M16.64,94.22S32.823,85.038,46.2,85.709c13.469.68,51.657,14.774,68.289,14.421s48.056-6.047,50.264-7.668" transform="translate(-14.266 -80.689)"/>
      <path id="Path_95790" data-name="Path 95790" class="cls-7" d="M19.16,91.708s17.488-9.1,31.3-8.329c13.94.785,51.5,14.738,68,14.226s47-5.96,49.005-7.435" transform="translate(-16.312 -78.788)"/>
      <path id="Path_95791" data-name="Path 95791" class="cls-7" d="M21.68,89.194s18.8-9.017,33.042-8.149c14.4.883,51.332,14.7,67.69,14.032s45.941-5.878,47.747-7.2" transform="translate(-18.359 -76.883)"/>
      <path id="Path_95792" data-name="Path 95792" class="cls-8" d="M24.2,86.653s20.1-8.943,34.787-7.972c14.86.994,51.165,14.665,67.386,13.837s44.884-5.793,46.49-6.971" transform="translate(-20.406 -74.951)"/>
      <path id="Path_95793" data-name="Path 95793" class="cls-9" d="M26.73,84.133s21.4-8.864,36.53-7.786c15.323,1.1,51,14.629,67.083,13.643s43.824-5.7,45.229-6.74" transform="translate(-22.46 -73.041)"/>
      <path id="Path_95794" data-name="Path 95794" class="cls-9" d="M29.25,81.6s22.712-8.795,38.273-7.615c15.779,1.2,50.831,14.592,66.779,13.448s42.77-5.624,43.975-6.509" transform="translate(-24.507 -71.111)"/>
      <path id="Path_95795" data-name="Path 95795" class="cls-10" d="M31.77,79.056s24.018-8.707,40.02-7.424c16.247,1.315,50.664,14.554,66.475,13.252s41.7-5.541,42.716-6.278" transform="translate(-26.554 -69.181)"/>
      <path id="Path_95796" data-name="Path 95796" class="cls-10" d="M34.29,76.5s25.323-8.626,41.767-7.241c16.705,1.409,50.495,14.517,66.17,13.057s40.653-5.448,41.456-6.045" transform="translate(-28.6 -67.236)"/>
      <path id="Path_95797" data-name="Path 95797" class="cls-11" d="M36.81,73.941s26.631-8.547,43.512-7.061c17.167,1.514,50.328,14.481,65.866,12.864s39.6-5.372,40.2-5.823" transform="translate(-30.647 -65.285)"/>
      <path id="Path_95798" data-name="Path 95798" class="cls-11" d="M39.33,71.378s27.936-8.472,45.258-6.885c17.629,1.619,50.155,14.445,65.558,12.668s38.54-5.286,38.942-5.581" transform="translate(-32.693 -63.327)"/>
      <path id="Path_95799" data-name="Path 95799" class="cls-12" d="M41.85,68.8s29.242-8.389,47-6.7c18.091,1.723,49.993,14.408,65.259,12.475s37.479-5.2,37.682-5.35" transform="translate(-34.74 -61.359)"/>
      <path id="Path_95800" data-name="Path 95800" class="cls-3" d="M44.37,65.968c3.069-.823,6.159-1.565,9.261-2.254s6.214-1.336,9.338-1.914,6.265-1.084,9.415-1.5,6.312-.751,9.484-.967a77.638,77.638,0,0,1,9.535-.081,74.439,74.439,0,0,1,9.447,1.315c6.242,1.223,12.4,2.84,18.54,4.444s12.283,3.269,18.488,4.634c3.1.678,6.221,1.285,9.366,1.717,1.572.21,3.15.376,4.734.473a35.2,35.2,0,0,0,4.753-.015c.789-.054,1.572-.177,2.361-.284l2.359-.331,4.721-.657,9.441-1.315,18.886-2.62-18.871,2.709-9.437,1.337-4.719.667-2.361.334c-.785.109-1.572.233-2.369.291a35.819,35.819,0,0,1-4.773.024c-1.589-.086-3.171-.257-4.747-.466-3.154-.426-6.278-1.028-9.392-1.691-6.212-1.36-12.356-2.992-18.5-4.612s-12.287-3.255-18.512-4.488a73.938,73.938,0,0,0-9.422-1.326,77.715,77.715,0,0,0-9.516.066A166.119,166.119,0,0,0,62.987,61.9q-4.7.842-9.345,1.863C50.539,64.435,47.443,65.161,44.37,65.968Z" transform="translate(-36.787 -59.14)"/>
    </g>
    <path id="Path_95801" data-name="Path 95801" class="cls-3" d="M408.288,16.471a3.817,3.817,0,0,0-1.815-.051l-.068.013h-.032a3.313,3.313,0,0,0-2.461,2.677A3.651,3.651,0,0,0,404.155,21c.034.07.069.139.109.207l.085.133a3.342,3.342,0,0,0,1.259,1.1,1.82,1.82,0,0,0,1.251.158l.25-.088-.663-.721.329-.116c.105-.036.808.663.808.663l.729-.257c.239-.085.6.218.6.218s-.09.46-.327.545l-.729.257s-.109.984-.214,1.022l-.331.116.066-.979-.44.156a1.16,1.16,0,0,1-.135.049h-.015l-.054.019H406.7a1.948,1.948,0,0,1-.806,0,3.294,3.294,0,0,1-2.474-2.209,5.027,5.027,0,0,1-.188-.477h0a.387.387,0,0,0-.289-.255.4.4,0,0,0-.47.3.4.4,0,0,0,0,.133v.028h0a4.287,4.287,0,0,0,8.359.712C410.9,21.409,411.808,17.54,408.288,16.471Z" transform="translate(-323.619 -10.83)"/>
    <path id="Path_95802" data-name="Path 95802" class="cls-3" d="M410.61,21.621s4.1-6.591,6.424-1.576a4.755,4.755,0,0,0-.716-2.23,3.659,3.659,0,0,0-2.981-1.484,3.377,3.377,0,0,0-3.022,1.655A3.513,3.513,0,0,0,410.2,21a3.072,3.072,0,0,0,1.49,1.456l-1.14-1.777" transform="translate(-329.667 -10.826)"/>
    <path id="Path_95803" data-name="Path 95803" class="cls-3" d="M410.636,21.578s2.254-6.95,5.707-3.811a3.714,3.714,0,0,0-1.736-1.217,3.6,3.6,0,0,0-3.657.763,3.4,3.4,0,0,0-.8,3.332,2.3,2.3,0,0,0,.49.934Z" transform="translate(-329.742 -10.844)"/>
    <path id="Path_95804" data-name="Path 95804" class="cls-3" d="M416.074,16.4a3.8,3.8,0,0,0-2.418,2.6c-.607,2.647,2.465,3.569,2.465,3.569l-.051-.054S412.855,20.339,416.074,16.4Z" transform="translate(-332.64 -10.883)"/>
    <path id="Path_95805" data-name="Path 95805" class="cls-3" d="M410.65,19a3.775,3.775,0,0,1,2.41-2.6h0a3.285,3.285,0,0,0-3.145,2.776,3.133,3.133,0,0,0,1.8,3.381,1.713,1.713,0,0,0,1.4.021S410.051,21.647,410.65,19Z" transform="translate(-329.634 -10.883)"/>
    <path id="Path_95806" data-name="Path 95806" class="cls-3" d="M410.65,19a3.775,3.775,0,0,1,2.41-2.6h0a3.285,3.285,0,0,0-3.145,2.776,3.133,3.133,0,0,0,1.8,3.381,1.713,1.713,0,0,0,1.4.021S410.051,21.647,410.65,19Z" transform="translate(-329.634 -10.883)"/>
    <path id="Path_95807" data-name="Path 95807" class="cls-3" d="M459.892,58.41h-.152a7.451,7.451,0,0,0-7.45,7.4V81.958H458.6V66.012a1.289,1.289,0,0,1,1.289-1.292h2.4V58.41Z" transform="translate(-364.081 -45.001)"/>
    <path id="Path_95808" data-name="Path 95808" class="cls-3" d="M405.37,74.11v20.6h6.313V74.11Z" transform="translate(-325.975 -57.752)"/>
    <path id="Path_95809" data-name="Path 95809" class="cls-3" d="M339.27,3h-.152a7.45,7.45,0,0,0-7.448,7.422h0V37h6.315V10.6a1.287,1.287,0,0,1,1.287-1.287h2.4V3Z" transform="translate(-266.119)"/>
    <path id="Path_95810" data-name="Path 95810" class="cls-3" d="M74.594,68.411a7.394,7.394,0,0,0-2.478-.883H61.883a1.044,1.044,0,0,1-1.044-1.044v-.12a1.044,1.044,0,0,1,1.044-1.044H78.343V59H62.251A7.448,7.448,0,0,0,61.2,73.795H71.438a1.044,1.044,0,0,1,1.044,1.044v.128a1.043,1.043,0,0,1-1.044,1.043H54.976v6.313H71.068a7.448,7.448,0,0,0,3.524-13.912Z" transform="translate(-41.395 -45.481)"/>
    <path id="Path_95811" data-name="Path 95811" class="cls-3" d="M557.814,66.806h0c0-.137-.011-.272-.021-.406v-.1c0-.1-.015-.2-.024-.3-.034-.393-.079-.765-.133-1.127-1.46-9.64-10.179-6.935-12.961-5.8h-.015a11.194,11.194,0,0,0-1.691.9,46.527,46.527,0,0,0-4.987,4.257c-.475.443-.939.866-1.294,1.2a8.308,8.308,0,0,1-3.017,1.229l-.071.013a7.86,7.86,0,0,1-.875.107V65.2h0a7.514,7.514,0,0,0-7.326-7.219H510.819v6.37h14.928a1.05,1.05,0,0,1,1.042,1.037v.15a1.05,1.05,0,0,1-1.048,1.039h-9.274A7.514,7.514,0,0,0,515.412,81.5h17.282V72.929h.16s4.952-.376,7.514-2.6c.466-.408,1.063-.964,1.745-1.6.5-.464,1.208-1.142,1.925-1.8.411-.376.826-.751,1.206-1.074l.069-.053h0l.019-.013a8.662,8.662,0,0,1,1.334-.873c3.447-2.019,4.55-.564,4.893.8a4.677,4.677,0,0,1,.12.721c.015.148.024.289.028.409V81.5h6.107V67.739q-.71-.214-1.458-.41.751.188,1.458.41Zm-31.025,8.38H516.1a1.054,1.054,0,0,1-1.054-1.052v-.124a1.052,1.052,0,0,1,1.054-1.052H526.79Z" transform="translate(-410.25 -44.54)"/>
    <path id="Path_95812" data-name="Path 95812" class="cls-13" d="M217.636,68.775h0a12.585,12.585,0,0,1-1.655,1.1V69.34h0v-.227a7.089,7.089,0,0,0-6.939-6.913H194.294v5.034h14.622a2.025,2.025,0,0,1,2.025,2.025v1.771h-11.38a6.931,6.931,0,1,0,0,13.862h16.416V74.84h0a15.673,15.673,0,0,0,1.544-.883,25.319,25.319,0,0,1,5.061-2.59c.077-.03.16-.06.25-.09h.024a16.831,16.831,0,0,1,2.985-.763,13.417,13.417,0,0,1,4.052-.225V65.333A21.514,21.514,0,0,0,217.636,68.775Zm-6.689,10.6h-12.1a1.422,1.422,0,0,1,0-2.842h11.675a3.753,3.753,0,0,0,.376,0h.043Z" transform="translate(-153.197 -48.08)"/>
    <path id="Path_95813" data-name="Path 95813" class="cls-3" d="M224.832,68.775h0a12.588,12.588,0,0,1-1.655,1.1V69.34h0v-.227a7.089,7.089,0,0,0-6.939-6.913H201.49v5.034h14.622a2.025,2.025,0,0,1,2.025,2.025v1.771h-11.38a6.892,6.892,0,0,0-3.355.868c1.212.088,2.442.224,3.635.417,5.072.821,10.79,2.215,16.136,2.818V74.85h0a15.673,15.673,0,0,0,1.544-.883,25.319,25.319,0,0,1,5.061-2.6c.077-.03.16-.06.25-.09h.024a16.83,16.83,0,0,1,2.985-.763,13.417,13.417,0,0,1,4.052-.225V65.333A21.514,21.514,0,0,0,224.832,68.775Z" transform="translate(-160.392 -48.08)"/>
    <path id="Path_95814" data-name="Path 95814" class="cls-3" d="M196.225,113.81a6.931,6.931,0,0,0,3.347,12.993h16.416v-9.764c-5.346-.6-11.066-1.991-16.136-2.818C198.659,114.034,197.436,113.9,196.225,113.81Zm10.144,4.642h4.176q.188.009.376,0h.043v2.842H198.87a1.422,1.422,0,0,1,0-2.842h7.493Z" transform="translate(-153.215 -89.995)"/>
    <path id="Path_95815" data-name="Path 95815" class="cls-14" d="M294.188,130.31s-3.439,1.753-5.448,1.739" transform="translate(-231.253 -103.395)"/>
    <path id="Path_95816" data-name="Path 95816" class="cls-15" d="M295.1,101.33a9.9,9.9,0,0,1-5.2,1.26" transform="translate(-232.195 -79.859)"/>
  </g>
</svg>
