<svg xmlns="http://www.w3.org/2000/svg" width="132.479" height="25.152" viewBox="0 0 132.479 25.152">
  <defs>
    <style>
      .cls-1 {
        opacity: 0.767;
        mix-blend-mode: luminosity;
        isolation: isolate;
      }

      .cls-2 {
        fill: #fc4238;
      }
    </style>
  </defs>
  <g id="snapptrip.7814197" class="cls-1" transform="translate(0.008 -0.021)">
    <path id="Path_95817" data-name="Path 95817" class="cls-2" d="M1782.228,266.677c0-2.605.089-5.215-.038-7.814-.07-1.421.416-1.82,1.728-1.638.652.091,1.327.012,1.99.037.245.01.68.058.7.16.393,1.812,1.29.633,2,.346a6.444,6.444,0,0,1,8.294,3.153,6.846,6.846,0,0,1-.694,7.86,6.166,6.166,0,0,1-7.076,2.275,4.564,4.564,0,0,1-.439-.126c-1.837-.713-1.837-.715-1.837,1.373,0,2.891-.857,3.739-3.533,3.76-.918.007-1.126-.265-1.114-1.11C1782.254,272.2,1782.23,269.436,1782.228,266.677Zm10.758-2.38a3.042,3.042,0,0,0-3.13-3.061,3.061,3.061,0,0,0,.165,6.12A3.028,3.028,0,0,0,1792.986,264.3Z" transform="translate(-1675.926 -251.302)"/>
    <path id="Path_95818" data-name="Path 95818" class="cls-2" d="M1048.148,274.328c0-2.654.029-5.309-.017-7.96-.015-.811.245-1.2,1.036-1,1.25.309,2.729-.763,3.807.673.245.33.516-.137.75-.272,4.186-2.413,9.078.662,9.47,5.417a6.626,6.626,0,0,1-7.083,7.416,5.161,5.161,0,0,1-2.4-.892c-.754-.525-.99-.234-.98.551.007.816.02,1.633.016,2.449a3.177,3.177,0,0,1-3.929,2.933c-.77-.208-.673-.79-.673-1.342q-.006-3.983,0-7.966Zm7.361.23a2.674,2.674,0,0,0,2.992-2.832,2.881,2.881,0,0,0-2.878-2.914,2.814,2.814,0,0,0-2.946,2.962A2.506,2.506,0,0,0,1055.51,274.558Z" transform="translate(-986.817 -258.567)"/>
    <path id="Path_95819" data-name="Path 95819" class="cls-2" d="M795.209,277.5c0,1.065.042,2.073-.008,3.077a3.238,3.238,0,0,1-3.969,3.131c-.593-.1-.595-.457-.6-.866q-.015-8.332-.017-16.665c0-.289-.046-.8.306-.735,1.418.255,3.029-.791,4.267.583.434.482.64-.024.857-.17,3.469-2.309,9.234.1,9.408,5.224.165,4.837-2.643,7.884-7,7.537A16.282,16.282,0,0,1,795.209,277.5Zm2.748-2.821a2.636,2.636,0,0,0,2.861-2.847A2.732,2.732,0,0,0,798,268.9a2.872,2.872,0,0,0-3.016,2.962A2.792,2.792,0,0,0,797.957,274.684Z" transform="translate(-745.071 -258.621)"/>
    <path id="Path_95820" data-name="Path 95820" class="cls-2" d="M54.478,165.662a13.823,13.823,0,0,1,3.919.966c.8.269,1.026.639.648,1.45a2.791,2.791,0,0,1-3.306,1.782c-1.307-.194-2.916-.623-3.346,1.081-.476,1.883,1.411,1.867,2.548,2.358.372.16.787.216,1.172.35,3.208,1.122,4.241,2.533,4.186,5.7a5.821,5.821,0,0,1-4.479,5.689,11.143,11.143,0,0,1-8.686-1.229c-.559-.306-.692-.658-.364-1.23a22.628,22.628,0,0,0,1.191-2.307c.332-.777.673-.669,1.262-.252a6.1,6.1,0,0,0,3.511,1.344,2.146,2.146,0,0,0,2.37-1.5c.331-1.2-.556-1.773-1.487-2.153s-1.931-.621-2.878-.98c-3.491-1.313-4.672-4.371-2.984-7.731C49,166.515,51.144,165.625,54.478,165.662Z" transform="translate(-46.6 -165.381)"/>
    <path id="Path_95821" data-name="Path 95821" class="cls-2" d="M536.938,271.54c0,1.377-.022,2.755.007,4.131a2.414,2.414,0,0,1-1.445,2.605c-1.064.41-2.226,1.154-3.2-.276-.317-.466-.621.061-.873.2a6.121,6.121,0,0,1-7.871-1.325,7.537,7.537,0,0,1-.585-8.422,6.332,6.332,0,0,1,7.615-2.529,11.152,11.152,0,0,1,1.057.59,1.749,1.749,0,0,0,.525.184c.9-1.683,2.438-.45,3.629-.784.97-.272,1.193.31,1.158,1.2-.061,1.477-.016,2.958-.016,4.437Zm-7.447,3.619c2.1-.037,2.958-.857,2.939-2.807s-1.113-3.068-2.974-3a2.64,2.64,0,0,0-2.712,2.955C526.765,274.228,527.69,275.19,529.491,275.159Z" transform="translate(-492.86 -259.102)"/>
    <path id="Path_95822" data-name="Path 95822" class="cls-2" d="M1285.978,173.82c0-2.147-.037-4.294.016-6.44.022-.9-.205-1.245-1.185-1.257-3.153-.036-3.09-.081-3.155-3.267-.025-1.207.367-1.428,1.483-1.4q5.211.113,10.427,0c1.163-.026,1.538.359,1.5,1.475a2.97,2.97,0,0,1-2.986,3.17c-1.152.011-1.334.467-1.333,1.45.005,3.677-.043,7.353-.094,11.029a3.074,3.074,0,0,1-4.149,2.939c-.658-.2-.518-.673-.52-1.1C1285.972,178.217,1285.979,176.019,1285.978,173.82Z" transform="translate(-1206.041 -161.43)"/>
    <path id="Path_95823" data-name="Path 95823" class="cls-2" d="M285.311,271.638c0-1.738.021-3.476-.01-5.214-.013-.754.2-1.15,1.041-1.1.814.053,1.635.01,2.453.011.153,0,.405-.052.446.017,1.1,1.89,2.094.1,3.042-.156,3.868-1.051,6.505.842,6.544,4.837.017,1.738.042,3.476,0,5.213a3.162,3.162,0,0,1-3.946,2.944c-.726-.184-.626-.708-.631-1.2-.021-2.147-.047-4.293-.022-6.44a1.793,1.793,0,0,0-1.9-2.082,2.226,2.226,0,0,0-2.393,2.063c-.061,1.429.017,2.864-.047,4.293-.1,2.262-1.185,3.292-3.319,3.373-.914.035-1.3-.253-1.277-1.2.045-1.788.013-3.578.013-5.367Z" transform="translate(-270.686 -258.558)"/>
    <path id="Path_95824" data-name="Path 95824" class="cls-2" d="M1502.991,259.4c1.163-.727,1.918-1.722,3.166-1.822.408-.033.965-.231,1.013.3a20.117,20.117,0,0,1,.01,3.505c-.056.655-.617.282-.975.212-2.253-.441-3.222.386-3.259,2.684a23.663,23.663,0,0,1-.156,4.872,3.2,3.2,0,0,1-4.041,2.429c-.6-.163-.627-.583-.629-1.054-.006-3.976,0-7.953-.022-11.93,0-.819.271-1.248,1.16-1.169a7.6,7.6,0,0,0,1.68.008C1502.308,257.249,1503.243,257.536,1502.991,259.4Z" transform="translate(-1409.235 -251.49)"/>
    <path id="Path_95825" data-name="Path 95825" class="cls-2" d="M1675.98,263.6c0-1.941.05-3.884-.023-5.821-.031-.809.184-1.065.992-1.108,3.74-.2,3.739-.218,3.739,3.479,0,2.4.005,4.805,0,7.208-.01,2.575-1.145,3.612-3.684,3.51-.738-.03-.992-.277-.972-.986.03-1.07,0-2.143,0-3.214V263.6Z" transform="translate(-1576.201 -250.753)"/>
    <path id="Path_95826" data-name="Path 95826" class="cls-2" d="M2095.09,171.558c2.7-.013,2.694-.015,2.076,2.36-.637,2.449-1.251,4.9-1.9,7.347-.428,1.627-3.46,2.943-4.811,2.092-.519-.328-.261-.8-.145-1.236.749-2.791,1.592-5.562,2.2-8.384C2092.873,172.061,2093.481,171.1,2095.09,171.558Z" transform="translate(-1965.031 -170.811)"/>
    <path id="Path_95827" data-name="Path 95827" class="cls-2" d="M2067.587,397.086a2.882,2.882,0,0,1,2.811-2.831,2.866,2.866,0,0,1-.1,5.732A2.829,2.829,0,0,1,2067.587,397.086Z" transform="translate(-1943.855 -379.98)"/>
    <path id="Path_95828" data-name="Path 95828" class="cls-2" d="M1677.559,164.007a2.36,2.36,0,0,1,2.234-2.272,2.476,2.476,0,0,1,2.343,2.193,2.291,2.291,0,1,1-4.577.078Z" transform="translate(-1577.708 -161.696)"/>
  </g>
</svg>
